SourceHanSans-Regular.ufo
<glyph name="exclam" format="2">
  <advance width="323" height="323"/>
  <unicode hex="0021"/>
  <outline>
    <contour>
      <point x="115" y="749" type="line"/>
      <point x="207" y="749" type="line"/>
      <point x="205" y="645" type="line"/>
      <point x="193" y="221" type="line"/>
      <point x="130" y="221" type="line"/>
      <point x="117" y="645" type="line"/>
    </contour>
    <contour>
      <point x="95" y="26"/>
      <point x="95" y="56" type="qcurve" smooth="yes"/>
      <point x="95" y="87"/>
      <point x="133" y="126"/>
      <point x="161" y="126" type="qcurve" smooth="yes"/>
      <point x="189" y="126"/>
      <point x="227" y="87"/>
      <point x="227" y="56" type="qcurve" smooth="yes"/>
      <point x="227" y="26"/>
      <point x="189" y="-13"/>
      <point x="161" y="-13" type="qcurve" smooth="yes"/>
      <point x="133" y="-13"/>
    </contour>
  </outline>
</glyph>
<glyph name="dollar" format="2">
  <advance width="555" height="555"/>
  <unicode hex="0024"/>
  <outline>
    <contour>
      <point x="94" y="40"/>
      <point x="58" y="74" type="qcurve"/>
      <point x="101" y="137" type="line"/>
      <point x="186" y="63"/>
      <point x="273" y="63" type="qcurve" smooth="yes"/>
      <point x="334" y="63"/>
      <point x="399" y="124"/>
      <point x="399" y="178" type="qcurve" smooth="yes"/>
      <point x="399" y="219"/>
      <point x="360" y="276"/>
      <point x="303" y="314"/>
      <point x="253" y="339" type="qcurve" smooth="yes"/>
      <point x="199" y="366"/>
      <point x="133" y="412"/>
      <point x="87" y="484"/>
      <point x="87" y="537" type="qcurve" smooth="yes"/>
      <point x="87" y="612"/>
      <point x="176" y="712"/>
      <point x="249" y="723" type="qcurve"/>
      <point x="249" y="836" type="line"/>
      <point x="315" y="836" type="line"/>
      <point x="315" y="724" type="line"/>
      <point x="364" y="719"/>
      <point x="438" y="677"/>
      <point x="473" y="641" type="qcurve"/>
      <point x="424" y="587" type="line"/>
      <point x="390" y="620"/>
      <point x="331" y="650"/>
      <point x="288" y="650" type="qcurve" smooth="yes"/>
      <point x="236" y="650"/>
      <point x="175" y="591"/>
      <point x="175" y="542" type="qcurve" smooth="yes"/>
      <point x="175" y="507"/>
      <point x="210" y="458"/>
      <point x="263" y="425"/>
      <point x="309" y="403" type="qcurve" smooth="yes"/>
      <point x="368" y="374"/>
      <point x="438" y="327"/>
      <point x="488" y="245"/>
      <point x="488" y="184" type="qcurve" smooth="yes"/>
      <point x="488" y="105"/>
      <point x="395" y="1"/>
      <point x="315" y="-10" type="qcurve"/>
      <point x="315" y="-123" type="line"/>
      <point x="249" y="-123" type="line"/>
      <point x="249" y="-12" type="line"/>
      <point x="196" y="-7"/>
    </contour>
  </outline>
</glyph>
<glyph name="percent" format="2">
  <advance width="921" height="921"/>
  <unicode hex="0025"/>
  <outline>
    <contour>
      <point x="39" y="407"/>
      <point x="39" y="517" type="qcurve" smooth="yes"/>
      <point x="39" y="625"/>
      <point x="129" y="746"/>
      <point x="205" y="746" type="qcurve" smooth="yes"/>
      <point x="282" y="746"/>
      <point x="372" y="625"/>
      <point x="372" y="517" type="qcurve" smooth="yes"/>
      <point x="372" y="407"/>
      <point x="282" y="284"/>
      <point x="205" y="284" type="qcurve" smooth="yes"/>
      <point x="129" y="284"/>
    </contour>
    <contour>
      <point x="302" y="431"/>
      <point x="302" y="517" type="qcurve" smooth="yes"/>
      <point x="302" y="602"/>
      <point x="250" y="690"/>
      <point x="205" y="690" type="qcurve" smooth="yes"/>
      <point x="160" y="690"/>
      <point x="108" y="602"/>
      <point x="108" y="517" type="qcurve" smooth="yes"/>
      <point x="108" y="431"/>
      <point x="160" y="340"/>
      <point x="205" y="340" type="qcurve" smooth="yes"/>
      <point x="250" y="340"/>
    </contour>
    <contour>
      <point x="693" y="746" type="line"/>
      <point x="288" y="-13" type="line"/>
      <point x="226" y="-13" type="line"/>
      <point x="631" y="746" type="line"/>
    </contour>
    <contour>
      <point x="550" y="109"/>
      <point x="550" y="219" type="qcurve" smooth="yes"/>
      <point x="550" y="328"/>
      <point x="640" y="449"/>
      <point x="716" y="449" type="qcurve" smooth="yes"/>
      <point x="792" y="449"/>
      <point x="882" y="328"/>
      <point x="882" y="219" type="qcurve" smooth="yes"/>
      <point x="882" y="109"/>
      <point x="792" y="-13"/>
      <point x="716" y="-13" type="qcurve" smooth="yes"/>
      <point x="640" y="-13"/>
    </contour>
    <contour>
      <point x="814" y="134"/>
      <point x="814" y="219" type="qcurve" smooth="yes"/>
      <point x="814" y="304"/>
      <point x="760" y="393"/>
      <point x="716" y="393" type="qcurve" smooth="yes"/>
      <point x="671" y="393"/>
      <point x="618" y="304"/>
      <point x="618" y="219" type="qcurve" smooth="yes"/>
      <point x="618" y="134"/>
      <point x="671" y="43"/>
      <point x="716" y="43" type="qcurve" smooth="yes"/>
      <point x="760" y="43"/>
    </contour>
  </outline>
</glyph>
<glyph name="ampersand" format="2">
  <advance width="680" height="680"/>
  <unicode hex="0026"/>
  <outline>
    <contour>
      <point x="92" y="39"/>
      <point x="36" y="132"/>
      <point x="36" y="190" type="qcurve" smooth="yes"/>
      <point x="36" y="257"/>
      <point x="113" y="355"/>
      <point x="181" y="402" type="qcurve"/>
      <point x="133" y="498"/>
      <point x="133" y="574" type="qcurve" smooth="yes"/>
      <point x="133" y="622"/>
      <point x="175" y="701"/>
      <point x="252" y="746"/>
      <point x="301" y="746" type="qcurve" smooth="yes"/>
      <point x="368" y="746"/>
      <point x="445" y="667"/>
      <point x="445" y="602" type="qcurve" smooth="yes"/>
      <point x="445" y="557"/>
      <point x="400" y="482"/>
      <point x="333" y="423"/>
      <point x="280" y="385" type="qcurve"/>
      <point x="315" y="330"/>
      <point x="412" y="224"/>
      <point x="466" y="179" type="qcurve"/>
      <point x="535" y="271"/>
      <point x="569" y="395" type="qcurve"/>
      <point x="654" y="395" type="line"/>
      <point x="610" y="243"/>
      <point x="526" y="133" type="qcurve"/>
      <point x="601" y="80"/>
      <point x="663" y="63" type="qcurve"/>
      <point x="639" y="-13" type="line"/>
      <point x="563" y="6"/>
      <point x="470" y="71" type="qcurve"/>
      <point x="378" y="-13"/>
      <point x="259" y="-13" type="qcurve" smooth="yes"/>
      <point x="194" y="-13"/>
    </contour>
    <contour>
      <point x="218" y="338" type="qcurve"/>
      <point x="174" y="303"/>
      <point x="125" y="235"/>
      <point x="125" y="195" type="qcurve" smooth="yes"/>
      <point x="125" y="134"/>
      <point x="207" y="60"/>
      <point x="270" y="60" type="qcurve" smooth="yes"/>
      <point x="341" y="60"/>
      <point x="410" y="119" type="qcurve"/>
      <point x="294" y="221"/>
    </contour>
    <contour>
      <point x="371" y="556"/>
      <point x="371" y="600" type="qcurve" smooth="yes"/>
      <point x="371" y="635"/>
      <point x="337" y="682"/>
      <point x="302" y="682" type="qcurve" smooth="yes"/>
      <point x="261" y="682"/>
      <point x="211" y="621"/>
      <point x="211" y="575" type="qcurve" smooth="yes"/>
      <point x="211" y="517"/>
      <point x="246" y="445" type="qcurve"/>
      <point x="308" y="488"/>
    </contour>
  </outline>
</glyph>
<glyph name="parenleft" format="2">
  <advance width="338" height="338"/>
  <unicode hex="0028"/>
  <outline>
    <contour>
      <point x="92" y="168"/>
      <point x="92" y="311" type="qcurve" smooth="yes"/>
      <point x="92" y="453"/>
      <point x="167" y="700"/>
      <point x="239" y="818" type="qcurve"/>
      <point x="295" y="792" type="line"/>
      <point x="232" y="687"/>
      <point x="168" y="440"/>
      <point x="168" y="311" type="qcurve" smooth="yes"/>
      <point x="168" y="181"/>
      <point x="232" y="-67"/>
      <point x="295" y="-171" type="qcurve"/>
      <point x="239" y="-196" type="line"/>
      <point x="167" y="-79"/>
    </contour>
  </outline>
</glyph>
<glyph name="parenright" format="2">
  <advance width="338" height="338"/>
  <unicode hex="0029"/>
  <outline>
    <contour>
      <point x="171" y="182"/>
      <point x="171" y="311" type="qcurve" smooth="yes"/>
      <point x="171" y="439"/>
      <point x="106" y="686"/>
      <point x="42" y="792" type="qcurve"/>
      <point x="99" y="818" type="line"/>
      <point x="171" y="700"/>
      <point x="246" y="453"/>
      <point x="246" y="311" type="qcurve" smooth="yes"/>
      <point x="246" y="168"/>
      <point x="171" y="-79"/>
      <point x="99" y="-196" type="qcurve"/>
      <point x="42" y="-171" type="line"/>
      <point x="106" y="-66"/>
    </contour>
  </outline>
</glyph>
<glyph name="comma" format="2">
  <advance width="278" height="278"/>
  <unicode hex="002C"/>
  <outline>
    <contour>
      <point x="152" y="-46"/>
      <point x="153" y="-1" type="qcurve"/>
      <point x="142" y="-2" type="line" smooth="yes"/>
      <point x="114" y="-2"/>
      <point x="75" y="33"/>
      <point x="75" y="62" type="qcurve" smooth="yes"/>
      <point x="75" y="91"/>
      <point x="115" y="126"/>
      <point x="144" y="126" type="qcurve" smooth="yes"/>
      <point x="180" y="126"/>
      <point x="221" y="69"/>
      <point x="221" y="19" type="qcurve" smooth="yes"/>
      <point x="221" y="-52"/>
      <point x="143" y="-161"/>
      <point x="75" y="-190" type="qcurve"/>
      <point x="53" y="-136" type="line"/>
      <point x="100" y="-116"/>
    </contour>
  </outline>
</glyph>
<glyph name="hyphen" format="2">
  <advance width="347" height="347"/>
  <unicode hex="002D"/>
  <unicode hex="2011"/>
  <unicode hex="00AD"/>
  <outline>
    <contour>
      <point x="302" y="315" type="line"/>
      <point x="302" y="245" type="line"/>
      <point x="46" y="245" type="line"/>
      <point x="46" y="315" type="line"/>
    </contour>
  </outline>
</glyph>
<glyph name="period" format="2">
  <advance width="278" height="278"/>
  <unicode hex="002E"/>
  <outline>
    <contour>
      <point x="73" y="26"/>
      <point x="73" y="56" type="qcurve" smooth="yes"/>
      <point x="73" y="87"/>
      <point x="111" y="126"/>
      <point x="139" y="126" type="qcurve" smooth="yes"/>
      <point x="167" y="126"/>
      <point x="205" y="87"/>
      <point x="205" y="56" type="qcurve" smooth="yes"/>
      <point x="205" y="26"/>
      <point x="167" y="-13"/>
      <point x="139" y="-13" type="qcurve" smooth="yes"/>
      <point x="111" y="-13"/>
    </contour>
  </outline>
</glyph>
<glyph name="slash" format="2">
  <advance width="392" height="392"/>
  <unicode hex="002F"/>
  <outline>
    <contour>
      <point x="377" y="794" type="line"/>
      <point x="78" y="-179" type="line"/>
      <point x="11" y="-179" type="line"/>
      <point x="311" y="794" type="line"/>
    </contour>
  </outline>
</glyph>
<glyph name="zero" format="2">
  <advance width="555" height="555"/>
  <unicode hex="0030"/>
  <outline>
    <contour>
      <point x="50" y="181"/>
      <point x="50" y="369" type="qcurve" smooth="yes"/>
      <point x="50" y="555"/>
      <point x="170" y="746"/>
      <point x="278" y="746" type="qcurve" smooth="yes"/>
      <point x="385" y="746"/>
      <point x="506" y="555"/>
      <point x="506" y="369" type="qcurve" smooth="yes"/>
      <point x="506" y="181"/>
      <point x="385" y="-13"/>
      <point x="278" y="-13" type="qcurve" smooth="yes"/>
      <point x="171" y="-13"/>
    </contour>
    <contour>
      <point x="418" y="214"/>
      <point x="418" y="369" type="qcurve" smooth="yes"/>
      <point x="418" y="524"/>
      <point x="343" y="674"/>
      <point x="278" y="674" type="qcurve" smooth="yes"/>
      <point x="213" y="674"/>
      <point x="138" y="524"/>
      <point x="138" y="369" type="qcurve" smooth="yes"/>
      <point x="138" y="214"/>
      <point x="213" y="61"/>
      <point x="278" y="61" type="qcurve" smooth="yes"/>
      <point x="343" y="61"/>
    </contour>
  </outline>
</glyph>
<glyph name="two" format="2">
  <advance width="555" height="555"/>
  <unicode hex="0032"/>
  <outline>
    <contour>
      <point x="380" y="433"/>
      <point x="380" y="527" type="qcurve" smooth="yes"/>
      <point x="380" y="593"/>
      <point x="311" y="672"/>
      <point x="245" y="672" type="qcurve" smooth="yes"/>
      <point x="164" y="672"/>
      <point x="93" y="587" type="qcurve"/>
      <point x="40" y="639" type="line"/>
      <point x="88" y="692"/>
      <point x="190" y="746"/>
      <point x="256" y="746" type="qcurve" smooth="yes"/>
      <point x="354" y="746"/>
      <point x="470" y="629"/>
      <point x="470" y="531" type="qcurve" smooth="yes"/>
      <point x="470" y="427"/>
      <point x="322" y="205"/>
      <point x="182" y="72" type="qcurve"/>
      <point x="271" y="79"/>
      <point x="302" y="79" type="qcurve" smooth="yes"/>
      <point x="505" y="79" type="line"/>
      <point x="505" y="0" type="line"/>
      <point x="44" y="0" type="line"/>
      <point x="44" y="54" type="line"/>
      <point x="218" y="206"/>
    </contour>
  </outline>
</glyph>
<glyph name="three" format="2">
  <advance width="555" height="555"/>
  <unicode hex="0033"/>
  <outline>
    <contour>
      <point x="29" y="88" type="qcurve"/>
      <point x="76" y="147" type="line"/>
      <point x="114" y="108"/>
      <point x="200" y="63"/>
      <point x="257" y="63" type="qcurve" smooth="yes"/>
      <point x="324" y="63"/>
      <point x="406" y="137"/>
      <point x="406" y="199" type="qcurve" smooth="yes"/>
      <point x="406" y="270"/>
      <point x="300" y="346"/>
      <point x="178" y="346" type="qcurve"/>
      <point x="178" y="416" type="line"/>
      <point x="285" y="416"/>
      <point x="381" y="492"/>
      <point x="381" y="556" type="qcurve" smooth="yes"/>
      <point x="381" y="609"/>
      <point x="314" y="672"/>
      <point x="257" y="672" type="qcurve" smooth="yes"/>
      <point x="176" y="672"/>
      <point x="105" y="601" type="qcurve"/>
      <point x="56" y="659" type="line"/>
      <point x="101" y="700"/>
      <point x="201" y="746"/>
      <point x="260" y="746" type="qcurve" smooth="yes"/>
      <point x="355" y="746"/>
      <point x="474" y="648"/>
      <point x="474" y="563" type="qcurve" smooth="yes"/>
      <point x="474" y="498"/>
      <point x="404" y="408"/>
      <point x="344" y="387" type="qcurve"/>
      <point x="344" y="382" type="line"/>
      <point x="412" y="365"/>
      <point x="499" y="268"/>
      <point x="499" y="196" type="qcurve" smooth="yes"/>
      <point x="499" y="132"/>
      <point x="437" y="37"/>
      <point x="329" y="-13"/>
      <point x="263" y="-13" type="qcurve" smooth="yes"/>
      <point x="120" y="-13"/>
    </contour>
  </outline>
</glyph>
<glyph name="four" format="2">
  <advance width="555" height="555"/>
  <unicode hex="0034"/>
  <outline>
    <contour>
      <point x="20" y="202" type="line"/>
      <point x="20" y="262" type="line"/>
      <point x="325" y="733" type="line"/>
      <point x="426" y="733" type="line"/>
      <point x="426" y="275" type="line"/>
      <point x="524" y="275" type="line"/>
      <point x="524" y="202" type="line"/>
      <point x="426" y="202" type="line"/>
      <point x="426" y="0" type="line"/>
      <point x="340" y="0" type="line"/>
      <point x="340" y="202" type="line"/>
    </contour>
    <contour>
      <point x="345" y="633" type="qcurve"/>
      <point x="341" y="633" type="line"/>
      <point x="311" y="575"/>
      <point x="282" y="525" type="qcurve" smooth="yes"/>
      <point x="115" y="275" type="line"/>
      <point x="340" y="275" type="line"/>
      <point x="340" y="500" type="line" smooth="yes"/>
      <point x="340" y="541"/>
    </contour>
  </outline>
</glyph>
<glyph name="five" format="2">
  <advance width="555" height="555"/>
  <unicode hex="0035"/>
  <outline>
    <contour>
      <point x="72" y="40"/>
      <point x="27" y="84" type="qcurve"/>
      <point x="73" y="144" type="line"/>
      <point x="109" y="107"/>
      <point x="195" y="63"/>
      <point x="253" y="63" type="qcurve" smooth="yes"/>
      <point x="297" y="63"/>
      <point x="368" y="105"/>
      <point x="409" y="184"/>
      <point x="409" y="236" type="qcurve" smooth="yes"/>
      <point x="409" y="314"/>
      <point x="327" y="403"/>
      <point x="257" y="403" type="qcurve" smooth="yes"/>
      <point x="222" y="403"/>
      <point x="169" y="383"/>
      <point x="135" y="360" type="qcurve"/>
      <point x="86" y="391" type="line"/>
      <point x="110" y="733" type="line"/>
      <point x="466" y="733" type="line"/>
      <point x="466" y="655" type="line"/>
      <point x="190" y="655" type="line"/>
      <point x="171" y="443" type="line"/>
      <point x="224" y="472"/>
      <point x="281" y="472" type="qcurve" smooth="yes"/>
      <point x="378" y="472"/>
      <point x="502" y="354"/>
      <point x="502" y="238" type="qcurve" smooth="yes"/>
      <point x="502" y="161"/>
      <point x="435" y="47"/>
      <point x="325" y="-13"/>
      <point x="262" y="-13" type="qcurve" smooth="yes"/>
      <point x="183" y="-13"/>
    </contour>
  </outline>
</glyph>
<glyph name="six" format="2">
  <advance width="555" height="555"/>
  <unicode hex="0036"/>
  <outline>
    <contour>
      <point x="119" y="69"/>
      <point x="56" y="232"/>
      <point x="56" y="350" type="qcurve" smooth="yes"/>
      <point x="56" y="487"/>
      <point x="130" y="664"/>
      <point x="252" y="746"/>
      <point x="327" y="746" type="qcurve" smooth="yes"/>
      <point x="429" y="746"/>
      <point x="499" y="671" type="qcurve"/>
      <point x="447" y="615" type="line"/>
      <point x="426" y="641"/>
      <point x="364" y="671"/>
      <point x="331" y="671" type="qcurve" smooth="yes"/>
      <point x="247" y="671"/>
      <point x="145" y="527"/>
      <point x="142" y="367" type="qcurve"/>
      <point x="176" y="408"/>
      <point x="265" y="455"/>
      <point x="308" y="455" type="qcurve" smooth="yes"/>
      <point x="403" y="455"/>
      <point x="512" y="338"/>
      <point x="512" y="225" type="qcurve" smooth="yes"/>
      <point x="512" y="156"/>
      <point x="455" y="47"/>
      <point x="358" y="-13"/>
      <point x="301" y="-13" type="qcurve" smooth="yes"/>
      <point x="230" y="-13"/>
    </contour>
    <contour>
      <point x="232" y="59"/>
      <point x="301" y="59" type="qcurve" smooth="yes"/>
      <point x="336" y="59"/>
      <point x="392" y="101"/>
      <point x="425" y="176"/>
      <point x="425" y="225" type="qcurve" smooth="yes"/>
      <point x="425" y="301"/>
      <point x="358" y="387"/>
      <point x="293" y="387" type="qcurve" smooth="yes"/>
      <point x="256" y="387"/>
      <point x="178" y="342"/>
      <point x="144" y="294" type="qcurve"/>
      <point x="152" y="180"/>
    </contour>
  </outline>
</glyph>
<glyph name="seven" format="2">
  <advance width="555" height="555"/>
  <unicode hex="0037"/>
  <outline>
    <contour>
      <point x="299" y="508"/>
      <point x="405" y="655" type="qcurve"/>
      <point x="49" y="655" type="line"/>
      <point x="49" y="733" type="line"/>
      <point x="508" y="733" type="line"/>
      <point x="508" y="678" type="line"/>
      <point x="424" y="571"/>
      <point x="336" y="372"/>
      <point x="300" y="157"/>
      <point x="293" y="0" type="qcurve"/>
      <point x="198" y="0" type="line"/>
      <point x="208" y="213"/>
    </contour>
  </outline>
</glyph>
<glyph name="eight" format="2">
  <advance width="555" height="555"/>
  <unicode hex="0038"/>
  <outline>
    <contour>
      <point x="106" y="37"/>
      <point x="46" y="126"/>
      <point x="46" y="182" type="qcurve" smooth="yes"/>
      <point x="46" y="250"/>
      <point x="123" y="354"/>
      <point x="180" y="385" type="qcurve"/>
      <point x="180" y="389" type="line"/>
      <point x="81" y="458"/>
      <point x="81" y="558" type="qcurve" smooth="yes"/>
      <point x="81" y="612"/>
      <point x="134" y="697"/>
      <point x="225" y="744"/>
      <point x="282" y="744" type="qcurve" smooth="yes"/>
      <point x="374" y="744"/>
      <point x="483" y="637"/>
      <point x="483" y="551" type="qcurve" smooth="yes"/>
      <point x="483" y="498"/>
      <point x="425" y="405"/>
      <point x="386" y="374" type="qcurve"/>
      <point x="386" y="369" type="line"/>
      <point x="442" y="337"/>
      <point x="509" y="245"/>
      <point x="509" y="176" type="qcurve" smooth="yes"/>
      <point x="509" y="123"/>
      <point x="451" y="37"/>
      <point x="347" y="-13"/>
      <point x="280" y="-13" type="qcurve" smooth="yes"/>
      <point x="213" y="-13"/>
    </contour>
    <contour>
      <point x="405" y="546" type="qcurve" smooth="yes"/>
      <point x="405" y="602"/>
      <point x="338" y="676"/>
      <point x="281" y="676" type="qcurve" smooth="yes"/>
      <point x="230" y="676"/>
      <point x="164" y="611"/>
      <point x="164" y="558" type="qcurve" smooth="yes"/>
      <point x="164" y="499"/>
      <point x="250" y="429"/>
      <point x="330" y="398" type="qcurve"/>
      <point x="405" y="465"/>
    </contour>
    <contour>
      <point x="422" y="124"/>
      <point x="422" y="179" type="qcurve" smooth="yes"/>
      <point x="422" y="225"/>
      <point x="372" y="288"/>
      <point x="296" y="329"/>
      <point x="228" y="356" type="qcurve"/>
      <point x="182" y="326"/>
      <point x="127" y="241"/>
      <point x="127" y="190" type="qcurve" smooth="yes"/>
      <point x="127" y="132"/>
      <point x="215" y="55"/>
      <point x="281" y="55" type="qcurve" smooth="yes"/>
      <point x="344" y="55"/>
    </contour>
  </outline>
</glyph>
<glyph name="nine" format="2">
  <advance width="555" height="555"/>
  <unicode hex="0039"/>
  <outline>
    <contour>
      <point x="58" y="62" type="qcurve"/>
      <point x="108" y="119" type="line"/>
      <point x="132" y="92"/>
      <point x="196" y="63"/>
      <point x="232" y="63" type="qcurve" smooth="yes"/>
      <point x="310" y="63"/>
      <point x="410" y="207"/>
      <point x="415" y="367" type="qcurve"/>
      <point x="381" y="326"/>
      <point x="291" y="278"/>
      <point x="246" y="278" type="qcurve" smooth="yes"/>
      <point x="153" y="278"/>
      <point x="44" y="397"/>
      <point x="44" y="508" type="qcurve" smooth="yes"/>
      <point x="44" y="578"/>
      <point x="101" y="686"/>
      <point x="197" y="746"/>
      <point x="254" y="746" type="qcurve" smooth="yes"/>
      <point x="326" y="746"/>
      <point x="437" y="668"/>
      <point x="501" y="511"/>
      <point x="501" y="398" type="qcurve" smooth="yes"/>
      <point x="501" y="256"/>
      <point x="428" y="72"/>
      <point x="308" y="-13"/>
      <point x="235" y="-13" type="qcurve" smooth="yes"/>
      <point x="130" y="-13"/>
    </contour>
    <contour>
      <point x="325" y="675"/>
      <point x="255" y="675" type="qcurve" smooth="yes"/>
      <point x="201" y="675"/>
      <point x="130" y="583"/>
      <point x="130" y="508" type="qcurve" smooth="yes"/>
      <point x="130" y="433"/>
      <point x="197" y="346"/>
      <point x="261" y="346" type="qcurve" smooth="yes"/>
      <point x="300" y="346"/>
      <point x="379" y="394"/>
      <point x="414" y="444" type="qcurve"/>
      <point x="407" y="557"/>
    </contour>
  </outline>
</glyph>
<glyph name="colon" format="2">
  <advance width="278" height="278"/>
  <unicode hex="003A"/>
  <outline>
    <contour>
      <point x="73" y="429"/>
      <point x="73" y="460" type="qcurve" smooth="yes"/>
      <point x="73" y="490"/>
      <point x="111" y="530"/>
      <point x="139" y="530" type="qcurve" smooth="yes"/>
      <point x="166" y="530"/>
      <point x="205" y="490"/>
      <point x="205" y="460" type="qcurve" smooth="yes"/>
      <point x="205" y="429"/>
      <point x="167" y="390"/>
      <point x="139" y="390" type="qcurve" smooth="yes"/>
      <point x="111" y="390"/>
    </contour>
    <contour>
      <point x="73" y="26"/>
      <point x="73" y="56" type="qcurve" smooth="yes"/>
      <point x="73" y="87"/>
      <point x="111" y="126"/>
      <point x="139" y="126" type="qcurve" smooth="yes"/>
      <point x="167" y="126"/>
      <point x="205" y="87"/>
      <point x="205" y="56" type="qcurve" smooth="yes"/>
      <point x="205" y="26"/>
      <point x="167" y="-13"/>
      <point x="139" y="-13" type="qcurve" smooth="yes"/>
      <point x="111" y="-13"/>
    </contour>
  </outline>
</glyph>
<glyph name="semicolon" format="2">
  <advance width="278" height="278"/>
  <unicode hex="003B"/>
  <outline>
    <contour>
      <point x="73" y="429"/>
      <point x="73" y="460" type="qcurve" smooth="yes"/>
      <point x="73" y="490"/>
      <point x="111" y="530"/>
      <point x="139" y="530" type="qcurve" smooth="yes"/>
      <point x="166" y="530"/>
      <point x="205" y="490"/>
      <point x="205" y="460" type="qcurve" smooth="yes"/>
      <point x="205" y="429"/>
      <point x="167" y="390"/>
      <point x="139" y="390" type="qcurve" smooth="yes"/>
      <point x="111" y="390"/>
    </contour>
    <contour>
      <point x="152" y="-46"/>
      <point x="153" y="-1" type="qcurve"/>
      <point x="142" y="-2" type="line" smooth="yes"/>
      <point x="114" y="-2"/>
      <point x="75" y="33"/>
      <point x="75" y="62" type="qcurve" smooth="yes"/>
      <point x="75" y="91"/>
      <point x="115" y="126"/>
      <point x="144" y="126" type="qcurve" smooth="yes"/>
      <point x="180" y="126"/>
      <point x="221" y="69"/>
      <point x="221" y="19" type="qcurve" smooth="yes"/>
      <point x="221" y="-52"/>
      <point x="143" y="-161"/>
      <point x="75" y="-190" type="qcurve"/>
      <point x="53" y="-136" type="line"/>
      <point x="100" y="-116"/>
    </contour>
  </outline>
</glyph>
<glyph name="question" format="2">
  <advance width="474" height="474"/>
  <unicode hex="003F"/>
  <outline>
    <contour>
      <point x="176" y="253" type="qcurve" smooth="yes"/>
      <point x="176" y="307"/>
      <point x="220" y="388"/>
      <point x="263" y="441" type="qcurve" smooth="yes"/>
      <point x="297" y="483"/>
      <point x="332" y="544"/>
      <point x="332" y="578" type="qcurve" smooth="yes"/>
      <point x="332" y="625"/>
      <point x="276" y="686"/>
      <point x="224" y="686" type="qcurve" smooth="yes"/>
      <point x="151" y="686"/>
      <point x="95" y="622" type="qcurve"/>
      <point x="43" y="670" type="line"/>
      <point x="80" y="713"/>
      <point x="176" y="762"/>
      <point x="234" y="762" type="qcurve" smooth="yes"/>
      <point x="319" y="762"/>
      <point x="421" y="666"/>
      <point x="421" y="584" type="qcurve" smooth="yes"/>
      <point x="421" y="537"/>
      <point x="381" y="465"/>
      <point x="340" y="414" type="qcurve" smooth="yes"/>
      <point x="299" y="364"/>
      <point x="258" y="290"/>
      <point x="258" y="243" type="qcurve" smooth="yes"/>
      <point x="258" y="228"/>
      <point x="259" y="221" type="qcurve"/>
      <point x="178" y="221" type="line"/>
      <point x="176" y="232"/>
    </contour>
    <contour>
      <point x="156" y="26"/>
      <point x="156" y="56" type="qcurve" smooth="yes"/>
      <point x="156" y="87"/>
      <point x="193" y="126"/>
      <point x="221" y="126" type="qcurve" smooth="yes"/>
      <point x="249" y="126"/>
      <point x="288" y="87"/>
      <point x="288" y="56" type="qcurve" smooth="yes"/>
      <point x="288" y="26"/>
      <point x="249" y="-13"/>
      <point x="221" y="-13" type="qcurve" smooth="yes"/>
      <point x="193" y="-13"/>
    </contour>
  </outline>
</glyph>
<glyph name="at" format="2">
  <advance width="946" height="946"/>
  <unicode hex="0040"/>
  <outline>
    <contour>
      <point x="160" y="-80"/>
      <point x="56" y="100"/>
      <point x="56" y="227" type="qcurve" smooth="yes"/>
      <point x="56" y="372"/>
      <point x="183" y="598"/>
      <point x="398" y="722"/>
      <point x="523" y="722" type="qcurve" smooth="yes"/>
      <point x="633" y="722"/>
      <point x="799" y="629"/>
      <point x="889" y="461"/>
      <point x="889" y="352" type="qcurve" smooth="yes"/>
      <point x="889" y="260"/>
      <point x="822" y="125"/>
      <point x="719" y="55"/>
      <point x="666" y="55" type="qcurve" smooth="yes"/>
      <point x="619" y="55"/>
      <point x="556" y="99"/>
      <point x="551" y="140" type="qcurve"/>
      <point x="548" y="140" type="line"/>
      <point x="519" y="106"/>
      <point x="448" y="63"/>
      <point x="412" y="63" type="qcurve" smooth="yes"/>
      <point x="353" y="63"/>
      <point x="277" y="148"/>
      <point x="277" y="222" type="qcurve" smooth="yes"/>
      <point x="277" y="282"/>
      <point x="332" y="403"/>
      <point x="431" y="481"/>
      <point x="493" y="481" type="qcurve" smooth="yes"/>
      <point x="551" y="481"/>
      <point x="582" y="426" type="qcurve"/>
      <point x="584" y="426" type="line"/>
      <point x="597" y="472" type="line"/>
      <point x="657" y="472" type="line"/>
      <point x="613" y="249" type="line" smooth="yes"/>
      <point x="605" y="218"/>
      <point x="605" y="190" type="qcurve" smooth="yes"/>
      <point x="605" y="117"/>
      <point x="674" y="117" type="qcurve" smooth="yes"/>
      <point x="710" y="117"/>
      <point x="780" y="174"/>
      <point x="825" y="279"/>
      <point x="825" y="348" type="qcurve" smooth="yes"/>
      <point x="825" y="440"/>
      <point x="754" y="581"/>
      <point x="614" y="661"/>
      <point x="515" y="661" type="qcurve" smooth="yes"/>
      <point x="414" y="661"/>
      <point x="234" y="553"/>
      <point x="123" y="356"/>
      <point x="123" y="230" type="qcurve" smooth="yes"/>
      <point x="123" y="124"/>
      <point x="209" y="-31"/>
      <point x="360" y="-112"/>
      <point x="456" y="-112" type="qcurve" smooth="yes"/>
      <point x="553" y="-112"/>
      <point x="637" y="-62" type="qcurve"/>
      <point x="662" y="-116" type="line"/>
      <point x="567" y="-173"/>
      <point x="449" y="-173" type="qcurve" smooth="yes"/>
      <point x="338" y="-173"/>
    </contour>
    <contour>
      <point x="534" y="193" type="qcurve"/>
      <point x="565" y="370" type="line"/>
      <point x="549" y="396"/>
      <point x="517" y="417"/>
      <point x="493" y="417" type="qcurve" smooth="yes"/>
      <point x="452" y="417"/>
      <point x="387" y="359"/>
      <point x="351" y="271"/>
      <point x="351" y="227" type="qcurve" smooth="yes"/>
      <point x="351" y="176"/>
      <point x="394" y="126"/>
      <point x="430" y="126" type="qcurve" smooth="yes"/>
      <point x="478" y="126"/>
    </contour>
  </outline>
</glyph>
<glyph name="B" format="2">
  <advance width="657" height="657"/>
  <unicode hex="0042"/>
  <outline>
    <contour>
      <point x="570" y="647"/>
      <point x="570" y="554" type="qcurve" smooth="yes"/>
      <point x="570" y="498"/>
      <point x="514" y="411"/>
      <point x="463" y="395" type="qcurve"/>
      <point x="463" y="390" type="line"/>
      <point x="531" y="377"/>
      <point x="612" y="287"/>
      <point x="612" y="215" type="qcurve" smooth="yes"/>
      <point x="612" y="110"/>
      <point x="461" y="0"/>
      <point x="334" y="0" type="qcurve" smooth="yes"/>
      <point x="101" y="0" type="line"/>
      <point x="101" y="733" type="line"/>
      <point x="318" y="733" type="line" smooth="yes"/>
      <point x="436" y="733"/>
    </contour>
    <contour>
      <point x="479" y="542" type="qcurve" smooth="yes"/>
      <point x="479" y="605"/>
      <point x="394" y="660"/>
      <point x="306" y="660" type="qcurve" smooth="yes"/>
      <point x="193" y="660" type="line"/>
      <point x="193" y="422" type="line"/>
      <point x="302" y="422" type="line" smooth="yes"/>
      <point x="479" y="422"/>
    </contour>
    <contour>
      <point x="521" y="145"/>
      <point x="521" y="218" type="qcurve" smooth="yes"/>
      <point x="521" y="350"/>
      <point x="321" y="350" type="qcurve" smooth="yes"/>
      <point x="193" y="350" type="line"/>
      <point x="193" y="74" type="line"/>
      <point x="321" y="74" type="line" smooth="yes"/>
      <point x="418" y="74"/>
    </contour>
  </outline>
</glyph>
<glyph name="C" format="2">
  <advance width="638" height="638"/>
  <unicode hex="0043"/>
  <outline>
    <contour>
      <point x="140" y="78"/>
      <point x="58" y="250"/>
      <point x="58" y="366" type="qcurve" smooth="yes"/>
      <point x="58" y="482"/>
      <point x="142" y="654"/>
      <point x="290" y="746"/>
      <point x="383" y="746" type="qcurve" smooth="yes"/>
      <point x="445" y="746"/>
      <point x="549" y="695"/>
      <point x="584" y="656" type="qcurve"/>
      <point x="534" y="596" type="line"/>
      <point x="468" y="665"/>
      <point x="384" y="665" type="qcurve" smooth="yes"/>
      <point x="315" y="665"/>
      <point x="211" y="593"/>
      <point x="153" y="459"/>
      <point x="153" y="369" type="qcurve" smooth="yes"/>
      <point x="153" y="277"/>
      <point x="209" y="141"/>
      <point x="312" y="68"/>
      <point x="381" y="68" type="qcurve" smooth="yes"/>
      <point x="432" y="68"/>
      <point x="514" y="110"/>
      <point x="551" y="151" type="qcurve"/>
      <point x="602" y="92" type="line"/>
      <point x="511" y="-13"/>
      <point x="377" y="-13" type="qcurve" smooth="yes"/>
      <point x="285" y="-13"/>
    </contour>
  </outline>
</glyph>
<glyph name="D" format="2">
  <advance width="688" height="688"/>
  <unicode hex="0044"/>
  <outline>
    <contour>
      <point x="629" y="545"/>
      <point x="629" y="369" type="qcurve" smooth="yes"/>
      <point x="629" y="194"/>
      <point x="453" y="0"/>
      <point x="288" y="0" type="qcurve" smooth="yes"/>
      <point x="101" y="0" type="line"/>
      <point x="101" y="733" type="line"/>
      <point x="284" y="733" type="line" smooth="yes"/>
      <point x="452" y="733"/>
    </contour>
    <contour>
      <point x="534" y="228"/>
      <point x="534" y="369" type="qcurve" smooth="yes"/>
      <point x="534" y="510"/>
      <point x="404" y="658"/>
      <point x="276" y="658" type="qcurve" smooth="yes"/>
      <point x="193" y="658" type="line"/>
      <point x="193" y="76" type="line"/>
      <point x="276" y="76" type="line" smooth="yes"/>
      <point x="404" y="76"/>
    </contour>
  </outline>
</glyph>
<glyph name="G" format="2">
  <advance width="689" height="689"/>
  <unicode hex="0047"/>
  <outline>
    <contour>
      <point x="142" y="78"/>
      <point x="58" y="249"/>
      <point x="58" y="366" type="qcurve" smooth="yes"/>
      <point x="58" y="482"/>
      <point x="144" y="654"/>
      <point x="297" y="746"/>
      <point x="394" y="746" type="qcurve" smooth="yes"/>
      <point x="519" y="746"/>
      <point x="605" y="656" type="qcurve"/>
      <point x="555" y="596" type="line"/>
      <point x="524" y="628"/>
      <point x="448" y="665"/>
      <point x="397" y="665" type="qcurve" smooth="yes"/>
      <point x="323" y="665"/>
      <point x="213" y="593"/>
      <point x="153" y="459"/>
      <point x="153" y="369" type="qcurve" smooth="yes"/>
      <point x="153" y="229"/>
      <point x="281" y="68"/>
      <point x="398" y="68" type="qcurve" smooth="yes"/>
      <point x="437" y="68"/>
      <point x="508" y="91"/>
      <point x="530" y="111" type="qcurve"/>
      <point x="530" y="303" type="line"/>
      <point x="374" y="303" type="line"/>
      <point x="374" y="380" type="line"/>
      <point x="615" y="380" type="line"/>
      <point x="615" y="72" type="line"/>
      <point x="578" y="34"/>
      <point x="460" y="-13"/>
      <point x="389" y="-13" type="qcurve" smooth="yes"/>
      <point x="292" y="-13"/>
    </contour>
  </outline>
</glyph>
<glyph name="J" format="2">
  <advance width="535" height="535"/>
  <unicode hex="004A"/>
  <outline>
    <contour>
      <point x="35" y="103" type="qcurve"/>
      <point x="101" y="151" type="line"/>
      <point x="125" y="108"/>
      <point x="187" y="68"/>
      <point x="228" y="68" type="qcurve" smooth="yes"/>
      <point x="288" y="68"/>
      <point x="346" y="142"/>
      <point x="346" y="224" type="qcurve" smooth="yes"/>
      <point x="346" y="733" type="line"/>
      <point x="439" y="733" type="line"/>
      <point x="439" y="215" type="line" smooth="yes"/>
      <point x="439" y="113"/>
      <point x="339" y="-13"/>
      <point x="237" y="-13" type="qcurve" smooth="yes"/>
      <point x="101" y="-13"/>
    </contour>
  </outline>
</glyph>
<glyph name="N" format="2">
  <advance width="723" height="723"/>
  <unicode hex="004E"/>
  <outline>
    <contour>
      <point x="195" y="733" type="line"/>
      <point x="463" y="271" type="line"/>
      <point x="542" y="120" type="line"/>
      <point x="547" y="120" type="line"/>
      <point x="534" y="278"/>
      <point x="534" y="352" type="qcurve" smooth="yes"/>
      <point x="534" y="733" type="line"/>
      <point x="622" y="733" type="line"/>
      <point x="622" y="0" type="line"/>
      <point x="527" y="0" type="line"/>
      <point x="260" y="463" type="line"/>
      <point x="181" y="614" type="line"/>
      <point x="177" y="614" type="line"/>
      <point x="181" y="550" type="line" smooth="yes"/>
      <point x="183" y="509"/>
      <point x="188" y="420"/>
      <point x="188" y="385" type="qcurve" smooth="yes"/>
      <point x="188" y="0" type="line"/>
      <point x="101" y="0" type="line"/>
      <point x="101" y="733" type="line"/>
    </contour>
  </outline>
</glyph>
<glyph name="P" format="2">
  <advance width="633" height="633"/>
  <unicode hex="0050"/>
  <outline>
    <contour>
      <point x="584" y="632"/>
      <point x="584" y="518" type="qcurve" smooth="yes"/>
      <point x="584" y="405"/>
      <point x="439" y="292"/>
      <point x="314" y="292" type="qcurve" smooth="yes"/>
      <point x="193" y="292" type="line"/>
      <point x="193" y="0" type="line"/>
      <point x="101" y="0" type="line"/>
      <point x="101" y="733" type="line"/>
      <point x="310" y="733" type="line" smooth="yes"/>
      <point x="441" y="733"/>
    </contour>
    <contour>
      <point x="492" y="440"/>
      <point x="492" y="518" type="qcurve" smooth="yes"/>
      <point x="492" y="596"/>
      <point x="399" y="658"/>
      <point x="298" y="658" type="qcurve" smooth="yes"/>
      <point x="193" y="658" type="line"/>
      <point x="193" y="367" type="line"/>
      <point x="302" y="367" type="line" smooth="yes"/>
      <point x="399" y="367"/>
    </contour>
  </outline>
</glyph>
<glyph name="Q" format="2">
  <advance width="742" height="742"/>
  <unicode hex="0051"/>
  <outline>
    <contour>
      <point x="535" y="139"/>
      <point x="589" y="276"/>
      <point x="589" y="369" type="qcurve" smooth="yes"/>
      <point x="589" y="459"/>
      <point x="535" y="593"/>
      <point x="437" y="665"/>
      <point x="371" y="665" type="qcurve" smooth="yes"/>
      <point x="305" y="665"/>
      <point x="207" y="593"/>
      <point x="153" y="459"/>
      <point x="153" y="369" type="qcurve" smooth="yes"/>
      <point x="153" y="276"/>
      <point x="207" y="139"/>
      <point x="305" y="64"/>
      <point x="371" y="64" type="qcurve" smooth="yes"/>
      <point x="437" y="64"/>
    </contour>
    <contour>
      <point x="358" y="-89"/>
      <point x="326" y="-10" type="qcurve"/>
      <point x="246" y="1"/>
      <point x="125" y="99"/>
      <point x="58" y="263"/>
      <point x="58" y="369" type="qcurve" smooth="yes"/>
      <point x="58" y="484"/>
      <point x="137" y="655"/>
      <point x="279" y="746"/>
      <point x="371" y="746" type="qcurve" smooth="yes"/>
      <point x="463" y="746"/>
      <point x="605" y="655"/>
      <point x="684" y="484"/>
      <point x="684" y="369" type="qcurve" smooth="yes"/>
      <point x="684" y="265"/>
      <point x="620" y="104"/>
      <point x="503" y="5"/>
      <point x="425" y="-9" type="qcurve"/>
      <point x="449" y="-57"/>
      <point x="544" y="-107"/>
      <point x="605" y="-107" type="qcurve" smooth="yes"/>
      <point x="647" y="-107"/>
      <point x="682" y="-96" type="qcurve"/>
      <point x="700" y="-167" type="line"/>
      <point x="683" y="-175"/>
      <point x="627" y="-184"/>
      <point x="595" y="-184" type="qcurve" smooth="yes"/>
      <point x="498" y="-184"/>
    </contour>
  </outline>
</glyph>
<glyph name="R" format="2">
  <advance width="635" height="635"/>
  <unicode hex="0052"/>
  <outline>
    <contour>
      <point x="494" y="457"/>
      <point x="494" y="528" type="qcurve" smooth="yes"/>
      <point x="494" y="598"/>
      <point x="406" y="658"/>
      <point x="316" y="658" type="qcurve" smooth="yes"/>
      <point x="193" y="658" type="line"/>
      <point x="193" y="385" type="line"/>
      <point x="316" y="385" type="line" smooth="yes"/>
      <point x="403" y="385"/>
    </contour>
    <contour>
      <point x="193" y="311" type="line"/>
      <point x="193" y="0" type="line"/>
      <point x="101" y="0" type="line"/>
      <point x="101" y="733" type="line"/>
      <point x="330" y="733" type="line" smooth="yes"/>
      <point x="586" y="733"/>
      <point x="586" y="528" type="qcurve" smooth="yes"/>
      <point x="586" y="444"/>
      <point x="498" y="340"/>
      <point x="421" y="321" type="qcurve"/>
      <point x="607" y="0" type="line"/>
      <point x="503" y="0" type="line"/>
      <point x="325" y="311" type="line"/>
    </contour>
  </outline>
</glyph>
<glyph name="S" format="2">
  <advance width="596" height="596"/>
  <unicode hex="0053"/>
  <outline>
    <contour>
      <point x="97" y="44"/>
      <point x="48" y="95" type="qcurve"/>
      <point x="103" y="159" type="line"/>
      <point x="143" y="117"/>
      <point x="249" y="68"/>
      <point x="305" y="68" type="qcurve" smooth="yes"/>
      <point x="377" y="68"/>
      <point x="459" y="133"/>
      <point x="459" y="187" type="qcurve" smooth="yes"/>
      <point x="459" y="223"/>
      <point x="429" y="269"/>
      <point x="380" y="298"/>
      <point x="336" y="318" type="qcurve" smooth="yes"/>
      <point x="231" y="364" type="line" smooth="yes"/>
      <point x="167" y="391"/>
      <point x="82" y="480"/>
      <point x="82" y="552" type="qcurve" smooth="yes"/>
      <point x="82" y="608"/>
      <point x="142" y="696"/>
      <point x="247" y="746"/>
      <point x="313" y="746" type="qcurve" smooth="yes"/>
      <point x="376" y="746"/>
      <point x="488" y="697"/>
      <point x="528" y="656" type="qcurve"/>
      <point x="480" y="597" type="line"/>
      <point x="407" y="665"/>
      <point x="313" y="665" type="qcurve" smooth="yes"/>
      <point x="251" y="665"/>
      <point x="176" y="608"/>
      <point x="176" y="559" type="qcurve" smooth="yes"/>
      <point x="176" y="526"/>
      <point x="211" y="480"/>
      <point x="259" y="452"/>
      <point x="298" y="436" type="qcurve" smooth="yes"/>
      <point x="402" y="391" type="line" smooth="yes"/>
      <point x="475" y="359"/>
      <point x="553" y="271"/>
      <point x="553" y="195" type="qcurve" smooth="yes"/>
      <point x="553" y="137"/>
      <point x="492" y="42"/>
      <point x="379" y="-13"/>
      <point x="304" y="-13" type="qcurve" smooth="yes"/>
      <point x="228" y="-13"/>
    </contour>
  </outline>
</glyph>
<glyph name="V" format="2">
  <advance width="575" height="575"/>
  <unicode hex="0056"/>
  <outline>
    <contour>
      <point x="98" y="733" type="line"/>
      <point x="217" y="336" type="line"/>
      <point x="238" y="263" type="line" smooth="yes"/>
      <point x="267" y="161"/>
      <point x="288" y="94" type="qcurve"/>
      <point x="292" y="94" type="line"/>
      <point x="315" y="166"/>
      <point x="341" y="259" type="qcurve" smooth="yes"/>
      <point x="363" y="336" type="line"/>
      <point x="481" y="733" type="line"/>
      <point x="575" y="733" type="line"/>
      <point x="342" y="0" type="line"/>
      <point x="235" y="0" type="line"/>
      <point x="1" y="733" type="line"/>
    </contour>
  </outline>
</glyph>
<glyph name="W" format="2">
  <advance width="878" height="878"/>
  <unicode hex="0057"/>
  <outline>
    <contour>
      <point x="121" y="733" type="line"/>
      <point x="198" y="334" type="line"/>
      <point x="242" y="96" type="line"/>
      <point x="246" y="96" type="line"/>
      <point x="262" y="176"/>
      <point x="298" y="334" type="qcurve" smooth="yes"/>
      <point x="399" y="733" type="line"/>
      <point x="484" y="733" type="line"/>
      <point x="586" y="334" type="line" smooth="yes"/>
      <point x="598" y="284"/>
      <point x="614" y="204" type="qcurve" smooth="yes"/>
      <point x="638" y="96" type="line"/>
      <point x="644" y="96" type="line"/>
      <point x="684" y="334" type="line"/>
      <point x="763" y="733" type="line"/>
      <point x="851" y="733" type="line"/>
      <point x="700" y="0" type="line"/>
      <point x="588" y="0" type="line"/>
      <point x="477" y="442" type="line"/>
      <point x="441" y="609" type="line"/>
      <point x="437" y="609" type="line"/>
      <point x="430" y="573"/>
      <point x="417" y="520" type="qcurve" smooth="yes"/>
      <point x="400" y="442" type="line"/>
      <point x="291" y="0" type="line"/>
      <point x="181" y="0" type="line"/>
      <point x="26" y="733" type="line"/>
    </contour>
  </outline>
</glyph>
<glyph name="backslash" format="2">
  <advance width="392" height="392"/>
  <unicode hex="005C"/>
  <outline>
    <contour>
      <point x="81" y="794" type="line"/>
      <point x="380" y="-179" type="line"/>
      <point x="314" y="-179" type="line"/>
      <point x="15" y="794" type="line"/>
    </contour>
  </outline>
</glyph>
<glyph name="underscore" format="2">
  <advance width="559" height="559"/>
  <unicode hex="005F"/>
  <outline>
    <contour>
      <point x="545" y="-80" type="line"/>
      <point x="545" y="-140" type="line"/>
      <point x="13" y="-140" type="line"/>
      <point x="13" y="-80" type="line"/>
    </contour>
  </outline>
</glyph>
<glyph name="grave" format="2">
  <advance width="606" height="606"/>
  <unicode hex="0060"/>
  <outline>
    <contour>
      <point x="208" y="872" type="line"/>
      <point x="366" y="686" type="line"/>
      <point x="319" y="640" type="line"/>
      <point x="144" y="812" type="line"/>
    </contour>
  </outline>
</glyph>
<glyph name="b" format="2">
  <advance width="618" height="618"/>
  <unicode hex="0062"/>
  <outline>
    <contour>
      <point x="212" y="24"/>
      <point x="177" y="56" type="qcurve"/>
      <point x="173" y="56" type="line"/>
      <point x="165" y="0" type="line"/>
      <point x="92" y="0" type="line"/>
      <point x="92" y="796" type="line"/>
      <point x="184" y="796" type="line"/>
      <point x="184" y="578" type="line"/>
      <point x="180" y="481" type="line"/>
      <point x="270" y="557"/>
      <point x="351" y="557" type="qcurve" smooth="yes"/>
      <point x="454" y="557"/>
      <point x="567" y="408"/>
      <point x="567" y="280" type="qcurve" smooth="yes"/>
      <point x="567" y="190"/>
      <point x="502" y="57"/>
      <point x="394" y="-13"/>
      <point x="331" y="-13" type="qcurve" smooth="yes"/>
      <point x="294" y="-13"/>
    </contour>
    <contour>
      <point x="432" y="116"/>
      <point x="472" y="213"/>
      <point x="472" y="279" type="qcurve" smooth="yes"/>
      <point x="472" y="480"/>
      <point x="328" y="480" type="qcurve" smooth="yes"/>
      <point x="263" y="480"/>
      <point x="184" y="406" type="qcurve"/>
      <point x="184" y="120" type="line"/>
      <point x="217" y="91"/>
      <point x="286" y="64"/>
      <point x="316" y="64" type="qcurve" smooth="yes"/>
      <point x="361" y="64"/>
    </contour>
  </outline>
</glyph>
<glyph name="c" format="2">
  <advance width="510" height="510"/>
  <unicode hex="0063"/>
  <outline>
    <contour>
      <point x="118" y="55"/>
      <point x="52" y="183"/>
      <point x="52" y="271" type="qcurve" smooth="yes"/>
      <point x="52" y="359"/>
      <point x="123" y="488"/>
      <point x="242" y="557"/>
      <point x="313" y="557" type="qcurve" smooth="yes"/>
      <point x="362" y="557"/>
      <point x="438" y="522"/>
      <point x="471" y="493" type="qcurve"/>
      <point x="425" y="433" type="line"/>
      <point x="373" y="480"/>
      <point x="317" y="480" type="qcurve" smooth="yes"/>
      <point x="268" y="480"/>
      <point x="190" y="428"/>
      <point x="146" y="332"/>
      <point x="146" y="271" type="qcurve" smooth="yes"/>
      <point x="146" y="209"/>
      <point x="188" y="115"/>
      <point x="264" y="63"/>
      <point x="314" y="63" type="qcurve" smooth="yes"/>
      <point x="381" y="63"/>
      <point x="442" y="117" type="qcurve"/>
      <point x="482" y="55" type="line"/>
      <point x="444" y="23"/>
      <point x="354" y="-13"/>
      <point x="306" y="-13" type="qcurve" smooth="yes"/>
      <point x="233" y="-13"/>
    </contour>
  </outline>
</glyph>
<glyph name="d" format="2">
  <advance width="620" height="620"/>
  <unicode hex="0064"/>
  <outline>
    <contour>
      <point x="53" y="137"/>
      <point x="53" y="271" type="qcurve" smooth="yes"/>
      <point x="53" y="356"/>
      <point x="118" y="486"/>
      <point x="225" y="557"/>
      <point x="288" y="557" type="qcurve" smooth="yes"/>
      <point x="333" y="557"/>
      <point x="401" y="526"/>
      <point x="441" y="494" type="qcurve"/>
      <point x="436" y="587" type="line"/>
      <point x="436" y="796" type="line"/>
      <point x="528" y="796" type="line"/>
      <point x="528" y="0" type="line"/>
      <point x="453" y="0" type="line"/>
      <point x="445" y="64" type="line"/>
      <point x="442" y="64" type="line"/>
      <point x="408" y="30"/>
      <point x="323" y="-13"/>
      <point x="277" y="-13" type="qcurve" smooth="yes"/>
      <point x="174" y="-13"/>
    </contour>
    <contour>
      <point x="402" y="100"/>
      <point x="436" y="138" type="qcurve"/>
      <point x="436" y="423" type="line"/>
      <point x="373" y="480"/>
      <point x="304" y="480" type="qcurve" smooth="yes"/>
      <point x="261" y="480"/>
      <point x="189" y="427"/>
      <point x="147" y="333"/>
      <point x="147" y="272" type="qcurve" smooth="yes"/>
      <point x="147" y="174"/>
      <point x="226" y="64"/>
      <point x="297" y="64" type="qcurve" smooth="yes"/>
      <point x="334" y="64"/>
    </contour>
  </outline>
</glyph>
<glyph name="f" format="2">
  <advance width="325" height="325"/>
  <unicode hex="0066"/>
  <outline>
    <contour>
      <point x="107" y="543" type="line"/>
      <point x="107" y="630" type="line" smooth="yes"/>
      <point x="107" y="715"/>
      <point x="186" y="809"/>
      <point x="265" y="809" type="qcurve" smooth="yes"/>
      <point x="314" y="809"/>
      <point x="356" y="792" type="qcurve"/>
      <point x="336" y="721" type="line"/>
      <point x="306" y="736"/>
      <point x="275" y="736" type="qcurve" smooth="yes"/>
      <point x="198" y="736"/>
      <point x="198" y="629" type="qcurve" smooth="yes"/>
      <point x="198" y="543" type="line"/>
      <point x="313" y="543" type="line"/>
      <point x="313" y="469" type="line"/>
      <point x="198" y="469" type="line"/>
      <point x="198" y="0" type="line"/>
      <point x="107" y="0" type="line"/>
      <point x="107" y="469" type="line"/>
      <point x="33" y="469" type="line"/>
      <point x="33" y="538" type="line"/>
    </contour>
  </outline>
</glyph>
<glyph name="g" format="2">
  <advance width="564" height="564"/>
  <unicode hex="0067"/>
  <outline>
    <contour>
      <point x="51" y="-173"/>
      <point x="51" y="-105" type="qcurve" smooth="yes"/>
      <point x="51" y="-70"/>
      <point x="93" y="-5"/>
      <point x="131" y="18" type="qcurve"/>
      <point x="131" y="23" type="line"/>
      <point x="82" y="53"/>
      <point x="82" y="112" type="qcurve" smooth="yes"/>
      <point x="82" y="143"/>
      <point x="117" y="196"/>
      <point x="142" y="213" type="qcurve"/>
      <point x="142" y="217" type="line"/>
      <point x="112" y="240"/>
      <point x="71" y="317"/>
      <point x="71" y="363" type="qcurve" smooth="yes"/>
      <point x="71" y="421"/>
      <point x="126" y="509"/>
      <point x="219" y="557"/>
      <point x="274" y="557" type="qcurve" smooth="yes"/>
      <point x="318" y="557"/>
      <point x="351" y="543" type="qcurve"/>
      <point x="540" y="543" type="line"/>
      <point x="540" y="473" type="line"/>
      <point x="429" y="473" type="line"/>
      <point x="449" y="454"/>
      <point x="473" y="395"/>
      <point x="473" y="361" type="qcurve" smooth="yes"/>
      <point x="473" y="304"/>
      <point x="421" y="218"/>
      <point x="330" y="172"/>
      <point x="274" y="172" type="qcurve" smooth="yes"/>
      <point x="232" y="172"/>
      <point x="194" y="191" type="qcurve"/>
      <point x="177" y="176"/>
      <point x="159" y="147"/>
      <point x="159" y="126" type="qcurve" smooth="yes"/>
      <point x="159" y="67"/>
      <point x="254" y="67" type="qcurve" smooth="yes"/>
      <point x="361" y="67" type="line" smooth="yes"/>
      <point x="456" y="67"/>
      <point x="550" y="5"/>
      <point x="550" y="-62" type="qcurve" smooth="yes"/>
      <point x="550" y="-113"/>
      <point x="482" y="-199"/>
      <point x="357" y="-250"/>
      <point x="275" y="-250" type="qcurve" smooth="yes"/>
      <point x="174" y="-250"/>
    </contour>
    <contour>
      <point x="390" y="305"/>
      <point x="390" y="363" type="qcurve" smooth="yes"/>
      <point x="390" y="421"/>
      <point x="324" y="490"/>
      <point x="274" y="490" type="qcurve" smooth="yes"/>
      <point x="225" y="490"/>
      <point x="159" y="421"/>
      <point x="159" y="363" type="qcurve" smooth="yes"/>
      <point x="159" y="305"/>
      <point x="226" y="234"/>
      <point x="274" y="234" type="qcurve" smooth="yes"/>
      <point x="323" y="234"/>
    </contour>
    <contour>
      <point x="417" y="-156"/>
      <point x="460" y="-105"/>
      <point x="460" y="-77" type="qcurve" smooth="yes"/>
      <point x="460" y="-40"/>
      <point x="406" y="-8"/>
      <point x="350" y="-8" type="qcurve" smooth="yes"/>
      <point x="256" y="-8" type="line" smooth="yes"/>
      <point x="218" y="-8"/>
      <point x="186" y="0" type="qcurve"/>
      <point x="131" y="-39"/>
      <point x="131" y="-92" type="qcurve" smooth="yes"/>
      <point x="131" y="-136"/>
      <point x="214" y="-187"/>
      <point x="288" y="-187" type="qcurve" smooth="yes"/>
      <point x="339" y="-187"/>
    </contour>
  </outline>
</glyph>
<glyph name="h" format="2">
  <advance width="607" height="607"/>
  <unicode hex="0068"/>
  <outline>
    <contour>
      <point x="184" y="796" type="line"/>
      <point x="184" y="578" type="line"/>
      <point x="180" y="466" type="line"/>
      <point x="223" y="509"/>
      <point x="309" y="557"/>
      <point x="360" y="557" type="qcurve" smooth="yes"/>
      <point x="526" y="557"/>
      <point x="526" y="344" type="qcurve" smooth="yes"/>
      <point x="526" y="0" type="line"/>
      <point x="435" y="0" type="line"/>
      <point x="435" y="332" type="line" smooth="yes"/>
      <point x="435" y="408"/>
      <point x="386" y="477"/>
      <point x="332" y="477" type="qcurve" smooth="yes"/>
      <point x="292" y="477"/>
      <point x="228" y="438"/>
      <point x="184" y="394" type="qcurve"/>
      <point x="184" y="0" type="line"/>
      <point x="92" y="0" type="line"/>
      <point x="92" y="796" type="line"/>
    </contour>
  </outline>
</glyph>
<glyph name="i" format="2">
  <advance width="275" height="275"/>
  <unicode hex="0069"/>
  <outline>
    <contour>
      <point x="184" y="543" type="line"/>
      <point x="184" y="0" type="line"/>
      <point x="92" y="0" type="line"/>
      <point x="92" y="543" type="line"/>
    </contour>
    <contour>
      <point x="78" y="688"/>
      <point x="78" y="716" type="qcurve" smooth="yes"/>
      <point x="78" y="742"/>
      <point x="111" y="775"/>
      <point x="138" y="775" type="qcurve" smooth="yes"/>
      <point x="165" y="775"/>
      <point x="199" y="742"/>
      <point x="199" y="716" type="qcurve" smooth="yes"/>
      <point x="199" y="688"/>
      <point x="165" y="655"/>
      <point x="138" y="655" type="qcurve" smooth="yes"/>
      <point x="111" y="655"/>
    </contour>
  </outline>
</glyph>
<glyph name="j" format="2">
  <advance width="275" height="275"/>
  <unicode hex="006A"/>
  <outline>
    <contour>
      <point x="-44" y="-228" type="qcurve"/>
      <point x="-26" y="-159" type="line"/>
      <point x="2" y="-169"/>
      <point x="26" y="-169" type="qcurve" smooth="yes"/>
      <point x="64" y="-169"/>
      <point x="93" y="-116"/>
      <point x="93" y="-62" type="qcurve" smooth="yes"/>
      <point x="93" y="543" type="line"/>
      <point x="184" y="543" type="line"/>
      <point x="184" y="-62" type="line" smooth="yes"/>
      <point x="184" y="-149"/>
      <point x="113" y="-242"/>
      <point x="35" y="-242" type="qcurve" smooth="yes"/>
      <point x="-11" y="-242"/>
    </contour>
    <contour>
      <point x="77" y="688"/>
      <point x="77" y="716" type="qcurve" smooth="yes"/>
      <point x="77" y="742"/>
      <point x="111" y="775"/>
      <point x="138" y="775" type="qcurve" smooth="yes"/>
      <point x="164" y="775"/>
      <point x="199" y="742"/>
      <point x="199" y="716" type="qcurve" smooth="yes"/>
      <point x="199" y="689"/>
      <point x="165" y="655"/>
      <point x="138" y="655" type="qcurve" smooth="yes"/>
      <point x="111" y="655"/>
    </contour>
  </outline>
</glyph>
<glyph name="l" format="2">
  <advance width="284" height="284"/>
  <unicode hex="006C"/>
  <outline>
    <contour>
      <point x="92" y="108" type="qcurve" smooth="yes"/>
      <point x="92" y="796" type="line"/>
      <point x="184" y="796" type="line"/>
      <point x="184" y="102" type="line" smooth="yes"/>
      <point x="184" y="82"/>
      <point x="198" y="63"/>
      <point x="209" y="63" type="qcurve" smooth="yes"/>
      <point x="218" y="63"/>
      <point x="228" y="65" type="qcurve"/>
      <point x="241" y="-5" type="line"/>
      <point x="215" y="-13"/>
      <point x="188" y="-13" type="qcurve" smooth="yes"/>
      <point x="92" y="-13"/>
    </contour>
  </outline>
</glyph>
<glyph name="n" format="2">
  <advance width="610" height="610"/>
  <unicode hex="006E"/>
  <outline>
    <contour>
      <point x="167" y="543" type="line"/>
      <point x="176" y="464" type="line"/>
      <point x="178" y="464" type="line"/>
      <point x="221" y="508"/>
      <point x="309" y="557"/>
      <point x="360" y="557" type="qcurve" smooth="yes"/>
      <point x="526" y="557"/>
      <point x="526" y="344" type="qcurve" smooth="yes"/>
      <point x="526" y="0" type="line"/>
      <point x="435" y="0" type="line"/>
      <point x="435" y="332" type="line" smooth="yes"/>
      <point x="435" y="408"/>
      <point x="386" y="477"/>
      <point x="332" y="477" type="qcurve" smooth="yes"/>
      <point x="292" y="477"/>
      <point x="228" y="438"/>
      <point x="184" y="394" type="qcurve"/>
      <point x="184" y="0" type="line"/>
      <point x="92" y="0" type="line"/>
      <point x="92" y="543" type="line"/>
    </contour>
  </outline>
</glyph>
<glyph name="q" format="2">
  <advance width="620" height="620"/>
  <unicode hex="0071"/>
  <outline>
    <contour>
      <point x="322" y="-13"/>
      <point x="277" y="-13" type="qcurve" smooth="yes"/>
      <point x="174" y="-13"/>
      <point x="53" y="137"/>
      <point x="53" y="271" type="qcurve" smooth="yes"/>
      <point x="53" y="356"/>
      <point x="118" y="486"/>
      <point x="225" y="557"/>
      <point x="288" y="557" type="qcurve" smooth="yes"/>
      <point x="334" y="557"/>
      <point x="406" y="525"/>
      <point x="444" y="492" type="qcurve"/>
      <point x="446" y="492" type="line"/>
      <point x="455" y="543" type="line"/>
      <point x="528" y="543" type="line"/>
      <point x="528" y="-229" type="line"/>
      <point x="436" y="-229" type="line"/>
      <point x="436" y="-36" type="line"/>
      <point x="441" y="63" type="line"/>
      <point x="405" y="28"/>
    </contour>
    <contour>
      <point x="402" y="100"/>
      <point x="436" y="138" type="qcurve"/>
      <point x="436" y="423" type="line"/>
      <point x="373" y="480"/>
      <point x="304" y="480" type="qcurve" smooth="yes"/>
      <point x="261" y="480"/>
      <point x="189" y="427"/>
      <point x="147" y="333"/>
      <point x="147" y="272" type="qcurve" smooth="yes"/>
      <point x="147" y="174"/>
      <point x="226" y="64"/>
      <point x="297" y="64" type="qcurve" smooth="yes"/>
      <point x="334" y="64"/>
    </contour>
  </outline>
</glyph>
<glyph name="r" format="2">
  <advance width="388" height="388"/>
  <unicode hex="0072"/>
  <outline>
    <contour>
      <point x="167" y="543" type="line"/>
      <point x="176" y="444" type="line"/>
      <point x="178" y="444" type="line"/>
      <point x="207" y="497"/>
      <point x="288" y="557"/>
      <point x="332" y="557" type="qcurve" smooth="yes"/>
      <point x="367" y="557"/>
      <point x="390" y="545" type="qcurve"/>
      <point x="373" y="466" type="line"/>
      <point x="346" y="475"/>
      <point x="320" y="475" type="qcurve" smooth="yes"/>
      <point x="283" y="475"/>
      <point x="209" y="414"/>
      <point x="184" y="349" type="qcurve"/>
      <point x="184" y="0" type="line"/>
      <point x="92" y="0" type="line"/>
      <point x="92" y="543" type="line"/>
    </contour>
  </outline>
</glyph>
<glyph name="s" format="2">
  <advance width="468" height="468"/>
  <unicode hex="0073"/>
  <outline>
    <contour>
      <point x="72" y="28"/>
      <point x="32" y="62" type="qcurve"/>
      <point x="76" y="123" type="line"/>
      <point x="115" y="91"/>
      <point x="191" y="58"/>
      <point x="237" y="58" type="qcurve" smooth="yes"/>
      <point x="289" y="58"/>
      <point x="344" y="106"/>
      <point x="344" y="143" type="qcurve" smooth="yes"/>
      <point x="344" y="180"/>
      <point x="279" y="224"/>
      <point x="220" y="246" type="qcurve" smooth="yes"/>
      <point x="146" y="273"/>
      <point x="62" y="341"/>
      <point x="62" y="403" type="qcurve" smooth="yes"/>
      <point x="62" y="446"/>
      <point x="106" y="516"/>
      <point x="191" y="557"/>
      <point x="249" y="557" type="qcurve" smooth="yes"/>
      <point x="297" y="557"/>
      <point x="384" y="523"/>
      <point x="417" y="495" type="qcurve"/>
      <point x="373" y="438" type="line"/>
      <point x="341" y="461"/>
      <point x="283" y="486"/>
      <point x="250" y="486" type="qcurve" smooth="yes"/>
      <point x="201" y="486"/>
      <point x="149" y="441"/>
      <point x="149" y="407" type="qcurve" smooth="yes"/>
      <point x="149" y="383"/>
      <point x="180" y="350"/>
      <point x="225" y="329"/>
      <point x="266" y="313" type="qcurve" smooth="yes"/>
      <point x="320" y="293"/>
      <point x="385" y="258"/>
      <point x="431" y="196"/>
      <point x="431" y="148" type="qcurve" smooth="yes"/>
      <point x="431" y="103"/>
      <point x="385" y="30"/>
      <point x="296" y="-13"/>
      <point x="234" y="-13" type="qcurve" smooth="yes"/>
      <point x="178" y="-13"/>
    </contour>
  </outline>
</glyph>
<glyph name="t" format="2">
  <advance width="377" height="377"/>
  <unicode hex="0074"/>
  <outline>
    <contour>
      <point x="108" y="81"/>
      <point x="108" y="168" type="qcurve" smooth="yes"/>
      <point x="108" y="469" type="line"/>
      <point x="27" y="469" type="line"/>
      <point x="27" y="538" type="line"/>
      <point x="113" y="543" type="line"/>
      <point x="123" y="696" type="line"/>
      <point x="199" y="696" type="line"/>
      <point x="199" y="543" type="line"/>
      <point x="347" y="543" type="line"/>
      <point x="347" y="469" type="line"/>
      <point x="199" y="469" type="line"/>
      <point x="199" y="165" type="line" smooth="yes"/>
      <point x="199" y="113"/>
      <point x="238" y="61"/>
      <point x="283" y="61" type="qcurve" smooth="yes"/>
      <point x="311" y="61"/>
      <point x="345" y="76" type="qcurve"/>
      <point x="363" y="7" type="line"/>
      <point x="301" y="-13"/>
      <point x="262" y="-13" type="qcurve" smooth="yes"/>
      <point x="180" y="-13"/>
    </contour>
  </outline>
</glyph>
<glyph name="v" format="2">
  <advance width="521" height="521"/>
  <unicode hex="0076"/>
  <outline>
    <contour>
      <point x="108" y="543" type="line"/>
      <point x="210" y="234" type="line"/>
      <point x="260" y="74" type="line"/>
      <point x="265" y="74" type="line"/>
      <point x="315" y="234" type="line"/>
      <point x="418" y="543" type="line"/>
      <point x="508" y="543" type="line"/>
      <point x="316" y="0" type="line"/>
      <point x="209" y="0" type="line"/>
      <point x="13" y="543" type="line"/>
    </contour>
  </outline>
</glyph>
<glyph name="w" format="2">
  <advance width="802" height="802"/>
  <unicode hex="0077"/>
  <outline>
    <contour>
      <point x="120" y="543" type="line"/>
      <point x="201" y="229" type="line"/>
      <point x="233" y="78" type="line"/>
      <point x="238" y="78" type="line"/>
      <point x="251" y="136"/>
      <point x="274" y="229" type="qcurve" smooth="yes"/>
      <point x="359" y="543" type="line"/>
      <point x="448" y="543" type="line"/>
      <point x="533" y="229" type="line"/>
      <point x="571" y="78" type="line"/>
      <point x="576" y="78" type="line"/>
      <point x="609" y="229" type="line"/>
      <point x="688" y="543" type="line"/>
      <point x="776" y="543" type="line"/>
      <point x="629" y="0" type="line"/>
      <point x="518" y="0" type="line"/>
      <point x="440" y="293" type="line" smooth="yes"/>
      <point x="429" y="333"/>
      <point x="415" y="396" type="qcurve" smooth="yes"/>
      <point x="403" y="449" type="line"/>
      <point x="398" y="449" type="line"/>
      <point x="374" y="341"/>
      <point x="361" y="291" type="qcurve" smooth="yes"/>
      <point x="284" y="0" type="line"/>
      <point x="178" y="0" type="line"/>
      <point x="27" y="543" type="line"/>
    </contour>
  </outline>
</glyph>
<glyph name="x" format="2">
  <advance width="498" height="498"/>
  <unicode hex="0078"/>
  <outline>
    <contour>
      <point x="29" y="543" type="line"/>
      <point x="128" y="543" type="line"/>
      <point x="201" y="424" type="line" smooth="yes"/>
      <point x="211" y="404"/>
      <point x="235" y="364" type="qcurve" smooth="yes"/>
      <point x="254" y="333" type="line"/>
      <point x="259" y="333" type="line"/>
      <point x="307" y="424" type="line"/>
      <point x="374" y="543" type="line"/>
      <point x="469" y="543" type="line"/>
      <point x="304" y="274" type="line"/>
      <point x="483" y="0" type="line"/>
      <point x="383" y="0" type="line"/>
      <point x="303" y="127" type="line" smooth="yes"/>
      <point x="275" y="178"/>
      <point x="244" y="224" type="qcurve"/>
      <point x="239" y="224" type="line"/>
      <point x="230" y="211"/>
      <point x="206" y="166" type="qcurve" smooth="yes"/>
      <point x="184" y="127" type="line"/>
      <point x="111" y="0" type="line"/>
      <point x="15" y="0" type="line"/>
      <point x="194" y="283" type="line"/>
    </contour>
  </outline>
</glyph>
<glyph name="y" format="2">
  <advance width="521" height="521"/>
  <unicode hex="0079"/>
  <outline>
    <contour>
      <point x="37" y="-223" type="qcurve"/>
      <point x="55" y="-150" type="line"/>
      <point x="80" y="-159"/>
      <point x="97" y="-159" type="qcurve" smooth="yes"/>
      <point x="179" y="-159"/>
      <point x="219" y="-42" type="qcurve"/>
      <point x="231" y="-1" type="line"/>
      <point x="13" y="543" type="line"/>
      <point x="108" y="543" type="line"/>
      <point x="218" y="242" type="line"/>
      <point x="237" y="186" type="line"/>
      <point x="272" y="88" type="line"/>
      <point x="277" y="88" type="line"/>
      <point x="321" y="242" type="line"/>
      <point x="419" y="543" type="line"/>
      <point x="508" y="543" type="line"/>
      <point x="304" y="-46" type="line" smooth="yes"/>
      <point x="272" y="-135"/>
      <point x="177" y="-234"/>
      <point x="101" y="-234" type="qcurve" smooth="yes"/>
      <point x="64" y="-234"/>
    </contour>
  </outline>
</glyph>
<glyph name="braceleft" format="2">
  <advance width="338" height="338"/>
  <unicode hex="007B"/>
  <outline>
    <contour>
      <point x="124" y="-105"/>
      <point x="124" y="-22" type="qcurve" smooth="yes"/>
      <point x="124" y="5"/>
      <point x="127" y="64"/>
      <point x="129" y="91" type="qcurve" smooth="yes"/>
      <point x="134" y="146"/>
      <point x="134" y="194" type="qcurve" smooth="yes"/>
      <point x="134" y="233"/>
      <point x="90" y="282"/>
      <point x="38" y="282" type="qcurve"/>
      <point x="38" y="340" type="line"/>
      <point x="90" y="341"/>
      <point x="134" y="389"/>
      <point x="134" y="426" type="qcurve" smooth="yes"/>
      <point x="134" y="475"/>
      <point x="129" y="530" type="qcurve" smooth="yes"/>
      <point x="127" y="556"/>
      <point x="124" y="616"/>
      <point x="124" y="642" type="qcurve" smooth="yes"/>
      <point x="124" y="726"/>
      <point x="185" y="792"/>
      <point x="254" y="792" type="qcurve" smooth="yes"/>
      <point x="304" y="792" type="line"/>
      <point x="304" y="739" type="line"/>
      <point x="275" y="739" type="line" smooth="yes"/>
      <point x="231" y="739"/>
      <point x="199" y="693"/>
      <point x="199" y="637" type="qcurve" smooth="yes"/>
      <point x="199" y="589"/>
      <point x="202" y="542" type="qcurve" smooth="yes"/>
      <point x="203" y="516"/>
      <point x="205" y="463"/>
      <point x="205" y="434" type="qcurve" smooth="yes"/>
      <point x="205" y="379"/>
      <point x="174" y="323"/>
      <point x="138" y="313" type="qcurve"/>
      <point x="138" y="308" type="line"/>
      <point x="174" y="298"/>
      <point x="205" y="241"/>
      <point x="205" y="187" type="qcurve" smooth="yes"/>
      <point x="205" y="158"/>
      <point x="203" y="105"/>
      <point x="202" y="80" type="qcurve" smooth="yes"/>
      <point x="199" y="32"/>
      <point x="199" y="-16" type="qcurve" smooth="yes"/>
      <point x="199" y="-72"/>
      <point x="231" y="-118"/>
      <point x="275" y="-118" type="qcurve" smooth="yes"/>
      <point x="304" y="-118" type="line"/>
      <point x="304" y="-170" type="line"/>
      <point x="254" y="-170" type="line" smooth="yes"/>
      <point x="185" y="-170"/>
    </contour>
  </outline>
</glyph>
<glyph name="bar" format="2">
  <advance width="270" height="270"/>
  <unicode hex="007C"/>
  <outline>
    <contour>
      <point x="167" y="838" type="line"/>
      <point x="167" y="-279" type="line"/>
      <point x="103" y="-279" type="line"/>
      <point x="103" y="838" type="line"/>
    </contour>
  </outline>
</glyph>
<glyph name="braceright" format="2">
  <advance width="338" height="338"/>
  <unicode hex="007D"/>
  <outline>
    <contour>
      <point x="139" y="-72"/>
      <point x="139" y="-16" type="qcurve" smooth="yes"/>
      <point x="139" y="16"/>
      <point x="137" y="80" type="qcurve" smooth="yes"/>
      <point x="134" y="130"/>
      <point x="134" y="187" type="qcurve" smooth="yes"/>
      <point x="134" y="241"/>
      <point x="164" y="298"/>
      <point x="200" y="308" type="qcurve"/>
      <point x="200" y="313" type="line"/>
      <point x="164" y="323"/>
      <point x="134" y="379"/>
      <point x="134" y="434" type="qcurve" smooth="yes"/>
      <point x="134" y="491"/>
      <point x="137" y="542" type="qcurve" smooth="yes"/>
      <point x="139" y="604"/>
      <point x="139" y="637" type="qcurve" smooth="yes"/>
      <point x="139" y="693"/>
      <point x="107" y="739"/>
      <point x="63" y="739" type="qcurve" smooth="yes"/>
      <point x="34" y="739" type="line"/>
      <point x="34" y="792" type="line"/>
      <point x="84" y="792" type="line" smooth="yes"/>
      <point x="153" y="792"/>
      <point x="215" y="726"/>
      <point x="215" y="642" type="qcurve" smooth="yes"/>
      <point x="215" y="616"/>
      <point x="212" y="556"/>
      <point x="210" y="530" type="qcurve" smooth="yes"/>
      <point x="205" y="475"/>
      <point x="205" y="426" type="qcurve" smooth="yes"/>
      <point x="205" y="389"/>
      <point x="248" y="341"/>
      <point x="300" y="340" type="qcurve"/>
      <point x="300" y="282" type="line"/>
      <point x="248" y="282"/>
      <point x="205" y="233"/>
      <point x="205" y="194" type="qcurve" smooth="yes"/>
      <point x="205" y="146"/>
      <point x="210" y="91" type="qcurve" smooth="yes"/>
      <point x="212" y="64"/>
      <point x="215" y="5"/>
      <point x="215" y="-22" type="qcurve" smooth="yes"/>
      <point x="215" y="-105"/>
      <point x="153" y="-170"/>
      <point x="84" y="-170" type="qcurve" smooth="yes"/>
      <point x="34" y="-170" type="line"/>
      <point x="34" y="-118" type="line"/>
      <point x="63" y="-118" type="line" smooth="yes"/>
      <point x="107" y="-118"/>
    </contour>
  </outline>
</glyph>
<glyph name="asciitilde" format="2">
  <advance width="555" height="555"/>
  <unicode hex="007E"/>
  <outline>
    <contour>
      <point x="295" y="314"/>
      <point x="260" y="340" type="qcurve" smooth="yes"/>
      <point x="233" y="361"/>
      <point x="196" y="382"/>
      <point x="177" y="382" type="qcurve" smooth="yes"/>
      <point x="127" y="382"/>
      <point x="92" y="314" type="qcurve"/>
      <point x="41" y="350" type="line"/>
      <point x="70" y="401"/>
      <point x="142" y="451"/>
      <point x="180" y="451" type="qcurve" smooth="yes"/>
      <point x="212" y="451"/>
      <point x="261" y="425"/>
      <point x="296" y="398" type="qcurve" smooth="yes"/>
      <point x="324" y="376"/>
      <point x="359" y="356"/>
      <point x="378" y="356" type="qcurve" smooth="yes"/>
      <point x="427" y="356"/>
      <point x="464" y="424" type="qcurve"/>
      <point x="515" y="387" type="line"/>
      <point x="485" y="336"/>
      <point x="414" y="287"/>
      <point x="376" y="287" type="qcurve" smooth="yes"/>
      <point x="345" y="287"/>
    </contour>
  </outline>
</glyph>
<glyph name="exclamdown" format="2">
  <advance width="323" height="323"/>
  <unicode hex="00A1"/>
  <outline>
    <contour>
      <point x="130" y="322" type="line"/>
      <point x="193" y="322" type="line"/>
      <point x="205" y="-101" type="line"/>
      <point x="207" y="-206" type="line"/>
      <point x="115" y="-206" type="line"/>
      <point x="117" y="-101" type="line"/>
    </contour>
    <contour>
      <point x="95" y="457"/>
      <point x="95" y="487" type="qcurve" smooth="yes"/>
      <point x="95" y="517"/>
      <point x="134" y="557"/>
      <point x="161" y="557" type="qcurve" smooth="yes"/>
      <point x="189" y="557"/>
      <point x="227" y="517"/>
      <point x="227" y="487" type="qcurve" smooth="yes"/>
      <point x="227" y="456"/>
      <point x="189" y="416"/>
      <point x="161" y="416" type="qcurve" smooth="yes"/>
      <point x="134" y="416"/>
    </contour>
  </outline>
</glyph>
<glyph name="cent" format="2">
  <advance width="555" height="555"/>
  <unicode hex="00A2"/>
  <outline>
    <contour>
      <point x="68" y="232"/>
      <point x="68" y="346" type="qcurve" smooth="yes"/>
      <point x="68" y="421"/>
      <point x="127" y="535"/>
      <point x="229" y="603"/>
      <point x="293" y="612" type="qcurve"/>
      <point x="293" y="730" type="line"/>
      <point x="351" y="730" type="line"/>
      <point x="351" y="615" type="line"/>
      <point x="433" y="610"/>
      <point x="497" y="550" type="qcurve"/>
      <point x="452" y="492" type="line"/>
      <point x="406" y="535"/>
      <point x="351" y="539" type="qcurve"/>
      <point x="351" y="153" type="line"/>
      <point x="411" y="158"/>
      <point x="467" y="207" type="qcurve"/>
      <point x="508" y="148" type="line"/>
      <point x="474" y="117"/>
      <point x="394" y="81"/>
      <point x="351" y="78" type="qcurve"/>
      <point x="351" y="-36" type="line"/>
      <point x="293" y="-36" type="line"/>
      <point x="293" y="79" type="line"/>
      <point x="190" y="91"/>
    </contour>
    <contour>
      <point x="158" y="419"/>
      <point x="158" y="346" type="qcurve" smooth="yes"/>
      <point x="158" y="272"/>
      <point x="230" y="172"/>
      <point x="293" y="158" type="qcurve"/>
      <point x="293" y="533" type="line"/>
      <point x="231" y="519"/>
    </contour>
  </outline>
</glyph>
<glyph name="sterling" format="2">
  <advance width="555" height="555"/>
  <unicode hex="00A3"/>
  <outline>
    <contour>
      <point x="134" y="381" type="line"/>
      <point x="154" y="381" type="line"/>
      <point x="139" y="433"/>
      <point x="125" y="490"/>
      <point x="125" y="522" type="qcurve" smooth="yes"/>
      <point x="125" y="616"/>
      <point x="238" y="726"/>
      <point x="332" y="726" type="qcurve" smooth="yes"/>
      <point x="438" y="726"/>
      <point x="505" y="642" type="qcurve"/>
      <point x="452" y="591" type="line"/>
      <point x="429" y="619"/>
      <point x="373" y="650"/>
      <point x="338" y="650" type="qcurve" smooth="yes"/>
      <point x="279" y="650"/>
      <point x="213" y="578"/>
      <point x="213" y="518" type="qcurve" smooth="yes"/>
      <point x="213" y="488"/>
      <point x="225" y="436"/>
      <point x="240" y="381" type="qcurve"/>
      <point x="419" y="381" type="line"/>
      <point x="419" y="319" type="line"/>
      <point x="254" y="319" type="line"/>
      <point x="260" y="289"/>
      <point x="260" y="256" type="qcurve" smooth="yes"/>
      <point x="260" y="199"/>
      <point x="227" y="119"/>
      <point x="192" y="83" type="qcurve"/>
      <point x="192" y="79" type="line"/>
      <point x="506" y="79" type="line"/>
      <point x="506" y="0" type="line"/>
      <point x="60" y="0" type="line"/>
      <point x="60" y="56" type="line"/>
      <point x="117" y="86"/>
      <point x="178" y="193"/>
      <point x="178" y="257" type="qcurve" smooth="yes"/>
      <point x="178" y="282"/>
      <point x="171" y="319" type="qcurve"/>
      <point x="59" y="319" type="line"/>
      <point x="59" y="377" type="line"/>
    </contour>
  </outline>
</glyph>
<glyph name="currency" format="2">
  <advance width="555" height="555"/>
  <unicode hex="00A4"/>
  <outline>
    <contour>
      <point x="61" y="368" type="qcurve" smooth="yes"/>
      <point x="61" y="446"/>
      <point x="101" y="498" type="qcurve"/>
      <point x="30" y="572" type="line"/>
      <point x="78" y="622" type="line"/>
      <point x="154" y="544" type="line"/>
      <point x="180" y="564"/>
      <point x="244" y="586"/>
      <point x="278" y="586" type="qcurve" smooth="yes"/>
      <point x="311" y="586"/>
      <point x="375" y="564"/>
      <point x="401" y="544" type="qcurve"/>
      <point x="477" y="622" type="line"/>
      <point x="525" y="572" type="line"/>
      <point x="453" y="498" type="line"/>
      <point x="494" y="446"/>
      <point x="494" y="368" type="qcurve" smooth="yes"/>
      <point x="494" y="294"/>
      <point x="454" y="238" type="qcurve"/>
      <point x="525" y="165" type="line"/>
      <point x="477" y="115" type="line"/>
      <point x="400" y="192" type="line"/>
      <point x="375" y="172"/>
      <point x="311" y="150"/>
      <point x="278" y="150" type="qcurve" smooth="yes"/>
      <point x="208" y="150"/>
      <point x="154" y="192" type="qcurve"/>
      <point x="78" y="115" type="line"/>
      <point x="30" y="165" type="line"/>
      <point x="101" y="238" type="line"/>
      <point x="61" y="292"/>
    </contour>
    <contour>
      <point x="375" y="256"/>
      <point x="411" y="324"/>
      <point x="411" y="368" type="qcurve" smooth="yes"/>
      <point x="411" y="411"/>
      <point x="375" y="480"/>
      <point x="314" y="518"/>
      <point x="278" y="518" type="qcurve" smooth="yes"/>
      <point x="242" y="518"/>
      <point x="181" y="480"/>
      <point x="145" y="411"/>
      <point x="145" y="368" type="qcurve" smooth="yes"/>
      <point x="145" y="324"/>
      <point x="181" y="256"/>
      <point x="242" y="218"/>
      <point x="278" y="218" type="qcurve" smooth="yes"/>
      <point x="314" y="218"/>
    </contour>
  </outline>
</glyph>
<glyph name="yen" format="2">
  <advance width="555" height="555"/>
  <unicode hex="00A5"/>
  <outline>
    <contour>
      <point x="51" y="178" type="line"/>
      <point x="51" y="230" type="line"/>
      <point x="232" y="230" type="line"/>
      <point x="232" y="302" type="line"/>
      <point x="51" y="302" type="line"/>
      <point x="51" y="355" type="line"/>
      <point x="208" y="355" type="line"/>
      <point x="26" y="713" type="line"/>
      <point x="122" y="713" type="line"/>
      <point x="209" y="521" type="line"/>
      <point x="276" y="370" type="line"/>
      <point x="281" y="370" type="line"/>
      <point x="307" y="429" type="line"/>
      <point x="349" y="521" type="line"/>
      <point x="436" y="713" type="line"/>
      <point x="529" y="713" type="line"/>
      <point x="345" y="355" type="line"/>
      <point x="505" y="355" type="line"/>
      <point x="505" y="302" type="line"/>
      <point x="322" y="302" type="line"/>
      <point x="322" y="230" type="line"/>
      <point x="505" y="230" type="line"/>
      <point x="505" y="178" type="line"/>
      <point x="322" y="178" type="line"/>
      <point x="322" y="0" type="line"/>
      <point x="232" y="0" type="line"/>
      <point x="232" y="178" type="line"/>
    </contour>
  </outline>
</glyph>
<glyph name="brokenbar" format="2">
  <advance width="270" height="270"/>
  <unicode hex="00A6"/>
  <outline>
    <contour>
      <point x="167" y="838" type="line"/>
      <point x="167" y="325" type="line"/>
      <point x="103" y="325" type="line"/>
      <point x="103" y="838" type="line"/>
    </contour>
    <contour>
      <point x="167" y="239" type="line"/>
      <point x="167" y="-279" type="line"/>
      <point x="103" y="-279" type="line"/>
      <point x="103" y="239" type="line"/>
    </contour>
  </outline>
</glyph>
<glyph name="section" format="2">
  <advance width="1000" height="1000"/>
  <unicode hex="00A7"/>
  <outline>
    <contour>
      <point x="558" y="713"/>
      <point x="508" y="713" type="qcurve" smooth="yes"/>
      <point x="472" y="713"/>
      <point x="415" y="688"/>
      <point x="384" y="647"/>
      <point x="384" y="626" type="qcurve" smooth="yes"/>
      <point x="384" y="585"/>
      <point x="460" y="540"/>
      <point x="539" y="519" type="qcurve" smooth="yes"/>
      <point x="635" y="493"/>
      <point x="732" y="414"/>
      <point x="732" y="349" type="qcurve" smooth="yes"/>
      <point x="732" y="307"/>
      <point x="696" y="233"/>
      <point x="666" y="208" type="qcurve"/>
      <point x="683" y="195"/>
      <point x="708" y="140"/>
      <point x="708" y="109" type="qcurve" smooth="yes"/>
      <point x="708" y="58"/>
      <point x="648" y="-21"/>
      <point x="546" y="-64"/>
      <point x="484" y="-64" type="qcurve" smooth="yes"/>
      <point x="362" y="-64"/>
      <point x="297" y="-14" type="qcurve"/>
      <point x="325" y="47" type="line"/>
      <point x="351" y="27"/>
      <point x="432" y="-2"/>
      <point x="486" y="-2" type="qcurve" smooth="yes"/>
      <point x="550" y="-2"/>
      <point x="626" y="56"/>
      <point x="626" y="100" type="qcurve" smooth="yes"/>
      <point x="626" y="127"/>
      <point x="598" y="165"/>
      <point x="531" y="199"/>
      <point x="469" y="218" type="qcurve" smooth="yes"/>
      <point x="364" y="249"/>
      <point x="267" y="326"/>
      <point x="267" y="392" type="qcurve" smooth="yes"/>
      <point x="267" y="424"/>
      <point x="306" y="495"/>
      <point x="344" y="523" type="qcurve"/>
      <point x="326" y="536"/>
      <point x="304" y="587"/>
      <point x="304" y="611" type="qcurve" smooth="yes"/>
      <point x="304" y="657"/>
      <point x="356" y="732"/>
      <point x="453" y="776"/>
      <point x="518" y="776" type="qcurve" smooth="yes"/>
      <point x="571" y="776"/>
      <point x="661" y="750"/>
      <point x="694" y="731" type="qcurve"/>
      <point x="669" y="669" type="line"/>
      <point x="644" y="686"/>
    </contour>
    <contour>
      <point x="362" y="348"/>
      <point x="421" y="314"/>
      <point x="478" y="295" type="qcurve" smooth="yes"/>
      <point x="591" y="258"/>
      <point x="618" y="241" type="qcurve"/>
      <point x="636" y="257"/>
      <point x="657" y="306"/>
      <point x="657" y="331" type="qcurve" smooth="yes"/>
      <point x="657" y="365"/>
      <point x="610" y="411"/>
      <point x="542" y="439"/>
      <point x="487" y="456" type="qcurve" smooth="yes"/>
      <point x="420" y="477"/>
      <point x="391" y="492" type="qcurve"/>
      <point x="342" y="452"/>
      <point x="342" y="404" type="qcurve" smooth="yes"/>
      <point x="342" y="382"/>
    </contour>
  </outline>
</glyph>
<glyph name="dieresis" format="2">
  <advance width="606" height="606"/>
  <unicode hex="00A8"/>
  <outline>
    <contour>
      <point x="141" y="688"/>
      <point x="141" y="712" type="qcurve" smooth="yes"/>
      <point x="141" y="736"/>
      <point x="172" y="767"/>
      <point x="196" y="767" type="qcurve" smooth="yes"/>
      <point x="219" y="767"/>
      <point x="251" y="735"/>
      <point x="251" y="712" type="qcurve" smooth="yes"/>
      <point x="251" y="689"/>
      <point x="219" y="657"/>
      <point x="196" y="657" type="qcurve" smooth="yes"/>
      <point x="172" y="657"/>
    </contour>
    <contour>
      <point x="355" y="689"/>
      <point x="355" y="712" type="qcurve" smooth="yes"/>
      <point x="355" y="735"/>
      <point x="386" y="767"/>
      <point x="410" y="767" type="qcurve" smooth="yes"/>
      <point x="434" y="767"/>
      <point x="465" y="735"/>
      <point x="465" y="712" type="qcurve" smooth="yes"/>
      <point x="465" y="689"/>
      <point x="434" y="657"/>
      <point x="410" y="657" type="qcurve" smooth="yes"/>
      <point x="386" y="657"/>
    </contour>
  </outline>
</glyph>
<glyph name="copyright" format="2">
  <advance width="832" height="832"/>
  <unicode hex="00A9"/>
  <outline>
    <contour>
      <point x="153" y="81"/>
      <point x="55" y="251"/>
      <point x="55" y="361" type="qcurve" smooth="yes"/>
      <point x="55" y="471"/>
      <point x="153" y="639"/>
      <point x="318" y="730"/>
      <point x="416" y="730" type="qcurve" smooth="yes"/>
      <point x="514" y="730"/>
      <point x="679" y="639"/>
      <point x="777" y="471"/>
      <point x="777" y="361" type="qcurve" smooth="yes"/>
      <point x="777" y="251"/>
      <point x="679" y="81"/>
      <point x="514" y="-11"/>
      <point x="416" y="-11" type="qcurve" smooth="yes"/>
      <point x="318" y="-11"/>
    </contour>
    <contour>
      <point x="642" y="117"/>
      <point x="725" y="266"/>
      <point x="725" y="361" type="qcurve" smooth="yes"/>
      <point x="725" y="456"/>
      <point x="642" y="604"/>
      <point x="500" y="685"/>
      <point x="416" y="685" type="qcurve" smooth="yes"/>
      <point x="331" y="685"/>
      <point x="190" y="604"/>
      <point x="107" y="456"/>
      <point x="107" y="361" type="qcurve" smooth="yes"/>
      <point x="107" y="266"/>
      <point x="190" y="117"/>
      <point x="332" y="34"/>
      <point x="416" y="34" type="qcurve" smooth="yes"/>
      <point x="500" y="34"/>
    </contour>
    <contour>
      <point x="276" y="194"/>
      <point x="222" y="294"/>
      <point x="222" y="361" type="qcurve" smooth="yes"/>
      <point x="222" y="424"/>
      <point x="279" y="520"/>
      <point x="373" y="572"/>
      <point x="428" y="572" type="qcurve" smooth="yes"/>
      <point x="472" y="572"/>
      <point x="538" y="539"/>
      <point x="567" y="509" type="qcurve"/>
      <point x="529" y="465" type="line"/>
      <point x="504" y="489"/>
      <point x="460" y="511"/>
      <point x="432" y="511" type="qcurve" smooth="yes"/>
      <point x="370" y="511"/>
      <point x="296" y="428"/>
      <point x="296" y="361" type="qcurve" smooth="yes"/>
      <point x="296" y="287"/>
      <point x="367" y="201"/>
      <point x="428" y="201" type="qcurve" smooth="yes"/>
      <point x="461" y="201"/>
      <point x="513" y="227"/>
      <point x="542" y="251" type="qcurve"/>
      <point x="576" y="203" type="line"/>
      <point x="539" y="172"/>
      <point x="470" y="140"/>
      <point x="424" y="140" type="qcurve" smooth="yes"/>
      <point x="368" y="140"/>
    </contour>
  </outline>
</glyph>
<glyph name="ordfeminine" format="2">
  <advance width="386" height="386"/>
  <unicode hex="00AA"/>
  <outline>
    <contour>
      <point x="42" y="490"/>
      <point x="42" y="537" type="qcurve" smooth="yes"/>
      <point x="42" y="596"/>
      <point x="148" y="659"/>
      <point x="264" y="670" type="qcurve"/>
      <point x="262" y="710"/>
      <point x="232" y="753"/>
      <point x="195" y="753" type="qcurve" smooth="yes"/>
      <point x="167" y="753"/>
      <point x="106" y="731"/>
      <point x="81" y="715" type="qcurve"/>
      <point x="56" y="762" type="line"/>
      <point x="87" y="782"/>
      <point x="165" y="809"/>
      <point x="205" y="809" type="qcurve" smooth="yes"/>
      <point x="332" y="809"/>
      <point x="332" y="660" type="qcurve" smooth="yes"/>
      <point x="332" y="441" type="line"/>
      <point x="278" y="441" type="line"/>
      <point x="270" y="482" type="line"/>
      <point x="266" y="482" type="line"/>
      <point x="239" y="459"/>
      <point x="184" y="432"/>
      <point x="152" y="432" type="qcurve" smooth="yes"/>
      <point x="103" y="432"/>
    </contour>
    <contour>
      <point x="264" y="532" type="qcurve"/>
      <point x="264" y="627" type="line"/>
      <point x="181" y="618"/>
      <point x="109" y="576"/>
      <point x="109" y="543" type="qcurve" smooth="yes"/>
      <point x="109" y="515"/>
      <point x="142" y="488"/>
      <point x="172" y="488" type="qcurve" smooth="yes"/>
      <point x="216" y="488"/>
    </contour>
  </outline>
</glyph>
<glyph name="registered" format="2">
  <advance width="473" height="473"/>
  <unicode hex="00AE"/>
  <outline>
    <contour>
      <point x="82" y="413"/>
      <point x="26" y="513"/>
      <point x="26" y="577" type="qcurve" smooth="yes"/>
      <point x="26" y="640"/>
      <point x="82" y="741"/>
      <point x="179" y="797"/>
      <point x="236" y="797" type="qcurve" smooth="yes"/>
      <point x="293" y="797"/>
      <point x="390" y="741"/>
      <point x="446" y="640"/>
      <point x="446" y="577" type="qcurve" smooth="yes"/>
      <point x="446" y="513"/>
      <point x="390" y="413"/>
      <point x="293" y="357"/>
      <point x="236" y="357" type="qcurve" smooth="yes"/>
      <point x="179" y="357"/>
    </contour>
    <contour>
      <point x="358" y="443"/>
      <point x="402" y="525"/>
      <point x="402" y="577" type="qcurve" smooth="yes"/>
      <point x="402" y="629"/>
      <point x="358" y="711"/>
      <point x="283" y="757"/>
      <point x="236" y="757" type="qcurve" smooth="yes"/>
      <point x="189" y="757"/>
      <point x="114" y="711"/>
      <point x="70" y="629"/>
      <point x="70" y="577" type="qcurve" smooth="yes"/>
      <point x="70" y="525"/>
      <point x="114" y="443"/>
      <point x="189" y="397"/>
      <point x="236" y="397" type="qcurve" smooth="yes"/>
      <point x="283" y="397"/>
    </contour>
    <contour>
      <point x="327" y="658"/>
      <point x="327" y="621" type="qcurve" smooth="yes"/>
      <point x="327" y="601"/>
      <point x="304" y="566"/>
      <point x="285" y="559" type="qcurve"/>
      <point x="337" y="466" type="line"/>
      <point x="286" y="466" type="line"/>
      <point x="246" y="545" type="line"/>
      <point x="201" y="545" type="line"/>
      <point x="201" y="466" type="line"/>
      <point x="155" y="466" type="line"/>
      <point x="155" y="693" type="line"/>
      <point x="240" y="693" type="line" smooth="yes"/>
      <point x="278" y="693"/>
    </contour>
    <contour>
      <point x="279" y="618" type="qcurve" smooth="yes"/>
      <point x="279" y="656"/>
      <point x="232" y="656" type="qcurve" smooth="yes"/>
      <point x="201" y="656" type="line"/>
      <point x="201" y="580" type="line"/>
      <point x="229" y="580" type="line" smooth="yes"/>
      <point x="279" y="580"/>
    </contour>
  </outline>
</glyph>
<glyph name="macron" format="2">
  <advance width="606" height="606"/>
  <unicode hex="00AF"/>
  <outline>
    <contour>
      <point x="451" y="736" type="line"/>
      <point x="451" y="671" type="line"/>
      <point x="156" y="671" type="line"/>
      <point x="156" y="736" type="line"/>
    </contour>
  </outline>
</glyph>
<glyph name="degree" format="2">
  <advance width="370" height="370"/>
  <unicode hex="00B0"/>
  <outline>
    <contour>
      <point x="84" y="516"/>
      <point x="45" y="580"/>
      <point x="45" y="622" type="qcurve" smooth="yes"/>
      <point x="45" y="664"/>
      <point x="84" y="729"/>
      <point x="148" y="765"/>
      <point x="186" y="765" type="qcurve" smooth="yes"/>
      <point x="223" y="765"/>
      <point x="287" y="729"/>
      <point x="325" y="664"/>
      <point x="325" y="622" type="qcurve" smooth="yes"/>
      <point x="325" y="580"/>
      <point x="287" y="516"/>
      <point x="223" y="480"/>
      <point x="186" y="480" type="qcurve" smooth="yes"/>
      <point x="148" y="480"/>
    </contour>
    <contour>
      <point x="270" y="582"/>
      <point x="270" y="622" type="qcurve" smooth="yes"/>
      <point x="270" y="663"/>
      <point x="223" y="715"/>
      <point x="186" y="715" type="qcurve" smooth="yes"/>
      <point x="149" y="715"/>
      <point x="101" y="663"/>
      <point x="101" y="622" type="qcurve" smooth="yes"/>
      <point x="101" y="582"/>
      <point x="149" y="531"/>
      <point x="186" y="531" type="qcurve" smooth="yes"/>
      <point x="223" y="531"/>
    </contour>
  </outline>
</glyph>
<glyph name="uni00B2" format="2">
  <advance width="411" height="411"/>
  <unicode hex="00B2"/>
  <outline>
    <contour>
      <point x="265" y="693"/>
      <point x="265" y="739" type="qcurve" smooth="yes"/>
      <point x="265" y="781"/>
      <point x="220" y="831"/>
      <point x="181" y="831" type="qcurve" smooth="yes"/>
      <point x="155" y="831"/>
      <point x="106" y="796"/>
      <point x="87" y="767" type="qcurve"/>
      <point x="45" y="806" type="line"/>
      <point x="71" y="845"/>
      <point x="147" y="891"/>
      <point x="190" y="891" type="qcurve" smooth="yes"/>
      <point x="257" y="891"/>
      <point x="335" y="817"/>
      <point x="335" y="749" type="qcurve" smooth="yes"/>
      <point x="335" y="710"/>
      <point x="295" y="634"/>
      <point x="234" y="564"/>
      <point x="173" y="502" type="qcurve"/>
      <point x="358" y="502" type="line"/>
      <point x="358" y="441" type="line"/>
      <point x="59" y="441" type="line"/>
      <point x="59" y="482" type="line"/>
      <point x="174" y="586"/>
    </contour>
  </outline>
</glyph>
<glyph name="uni00B3" format="2">
  <advance width="411" height="411"/>
  <unicode hex="00B3"/>
  <outline>
    <contour>
      <point x="66" y="475"/>
      <point x="40" y="513" type="qcurve"/>
      <point x="87" y="549" type="line"/>
      <point x="108" y="518"/>
      <point x="164" y="485"/>
      <point x="198" y="485" type="qcurve" smooth="yes"/>
      <point x="235" y="485"/>
      <point x="285" y="526"/>
      <point x="285" y="562" type="qcurve" smooth="yes"/>
      <point x="285" y="601"/>
      <point x="215" y="640"/>
      <point x="149" y="640" type="qcurve"/>
      <point x="149" y="686" type="line"/>
      <point x="204" y="686"/>
      <point x="268" y="730"/>
      <point x="268" y="764" type="qcurve" smooth="yes"/>
      <point x="268" y="796"/>
      <point x="225" y="834"/>
      <point x="189" y="834" type="qcurve" smooth="yes"/>
      <point x="166" y="834"/>
      <point x="120" y="805"/>
      <point x="101" y="781" type="qcurve"/>
      <point x="58" y="819" type="line"/>
      <point x="118" y="891"/>
      <point x="199" y="891" type="qcurve" smooth="yes"/>
      <point x="258" y="891"/>
      <point x="339" y="827"/>
      <point x="339" y="774" type="qcurve" smooth="yes"/>
      <point x="339" y="737"/>
      <point x="298" y="683"/>
      <point x="262" y="667" type="qcurve"/>
      <point x="302" y="656"/>
      <point x="356" y="599"/>
      <point x="356" y="559" type="qcurve" smooth="yes"/>
      <point x="356" y="500"/>
      <point x="267" y="428"/>
      <point x="201" y="428" type="qcurve" smooth="yes"/>
      <point x="150" y="428"/>
    </contour>
  </outline>
</glyph>
<glyph name="acute" format="2">
  <advance width="606" height="606"/>
  <unicode hex="00B4"/>
  <outline>
    <contour>
      <point x="398" y="872" type="line"/>
      <point x="462" y="812" type="line"/>
      <point x="286" y="640" type="line"/>
      <point x="239" y="686" type="line"/>
    </contour>
  </outline>
</glyph>
<glyph name="paragraph" format="2">
  <advance width="1000" height="1000"/>
  <unicode hex="00B6"/>
  <outline>
    <contour>
      <point x="313" y="343"/>
      <point x="242" y="442"/>
      <point x="242" y="512" type="qcurve" smooth="yes"/>
      <point x="240" y="617"/>
      <point x="385" y="764"/>
      <point x="558" y="764" type="qcurve" smooth="yes"/>
      <point x="651" y="764"/>
      <point x="690" y="755" type="qcurve"/>
      <point x="690" y="-57" type="line"/>
      <point x="626" y="-57" type="line"/>
      <point x="626" y="701" type="line"/>
      <point x="541" y="701" type="line"/>
      <point x="541" y="-57" type="line"/>
      <point x="477" y="-57" type="line"/>
      <point x="477" y="294" type="line"/>
      <point x="468" y="294" type="line" smooth="yes"/>
      <point x="417" y="294"/>
    </contour>
  </outline>
</glyph>
<glyph name="periodcentered" format="2">
  <advance width="1000" height="1000"/>
  <unicode hex="00B7"/>
  <unicode hex="30FB"/>
  <unicode hex="2027"/>
  <unicode hex="2022"/>
  <outline>
    <contour>
      <point x="606" y="424"/>
      <point x="606" y="380" type="qcurve" smooth="yes"/>
      <point x="606" y="336"/>
      <point x="544" y="274"/>
      <point x="500" y="274" type="qcurve" smooth="yes"/>
      <point x="456" y="274"/>
      <point x="394" y="336"/>
      <point x="394" y="380" type="qcurve" smooth="yes"/>
      <point x="394" y="424"/>
      <point x="456" y="486"/>
      <point x="500" y="486" type="qcurve" smooth="yes"/>
      <point x="544" y="486"/>
    </contour>
  </outline>
</glyph>
<glyph name="cedilla" format="2">
  <advance width="606" height="606"/>
  <unicode hex="00B8"/>
  <outline>
    <contour>
      <point x="326" y="-177"/>
      <point x="326" y="-152" type="qcurve" smooth="yes"/>
      <point x="326" y="-131"/>
      <point x="287" y="-105"/>
      <point x="240" y="-98" type="qcurve"/>
      <point x="289" y="3" type="line"/>
      <point x="349" y="3" type="line"/>
      <point x="316" y="-71" type="line"/>
      <point x="356" y="-81"/>
      <point x="397" y="-118"/>
      <point x="397" y="-150" type="qcurve" smooth="yes"/>
      <point x="397" y="-244"/>
      <point x="214" y="-253" type="qcurve"/>
      <point x="205" y="-207" type="line"/>
      <point x="273" y="-203"/>
    </contour>
  </outline>
</glyph>
<glyph name="uni00B9" format="2">
  <advance width="411" height="411"/>
  <unicode hex="00B9"/>
  <outline>
    <contour>
      <point x="98" y="786" type="line"/>
      <point x="98" y="832" type="line"/>
      <point x="133" y="838"/>
      <point x="181" y="859"/>
      <point x="205" y="877" type="qcurve"/>
      <point x="264" y="877" type="line"/>
      <point x="264" y="441" type="line"/>
      <point x="192" y="441" type="line"/>
      <point x="192" y="786" type="line"/>
    </contour>
  </outline>
</glyph>
<glyph name="ordmasculine" format="2">
  <advance width="407" height="407"/>
  <unicode hex="00BA"/>
  <outline>
    <contour>
      <point x="79" y="478"/>
      <point x="33" y="564"/>
      <point x="33" y="621" type="qcurve" smooth="yes"/>
      <point x="33" y="679"/>
      <point x="79" y="764"/>
      <point x="156" y="809"/>
      <point x="203" y="809" type="qcurve" smooth="yes"/>
      <point x="250" y="809"/>
      <point x="327" y="764"/>
      <point x="373" y="679"/>
      <point x="373" y="621" type="qcurve" smooth="yes"/>
      <point x="373" y="564"/>
      <point x="327" y="478"/>
      <point x="249" y="432"/>
      <point x="203" y="432" type="qcurve" smooth="yes"/>
      <point x="157" y="432"/>
    </contour>
    <contour>
      <point x="302" y="562"/>
      <point x="302" y="621" type="qcurve" smooth="yes"/>
      <point x="302" y="681"/>
      <point x="249" y="753"/>
      <point x="203" y="753" type="qcurve" smooth="yes"/>
      <point x="157" y="753"/>
      <point x="103" y="681"/>
      <point x="103" y="621" type="qcurve" smooth="yes"/>
      <point x="103" y="562"/>
      <point x="157" y="489"/>
      <point x="203" y="489" type="qcurve" smooth="yes"/>
      <point x="249" y="489"/>
    </contour>
  </outline>
</glyph>
<glyph name="onequarter" format="2">
  <advance width="873" height="873"/>
  <unicode hex="00BC"/>
  <outline>
    <contour>
      <point x="71" y="642" type="line"/>
      <point x="71" y="688" type="line"/>
      <point x="106" y="694"/>
      <point x="154" y="716"/>
      <point x="178" y="733" type="qcurve"/>
      <point x="236" y="733" type="line"/>
      <point x="236" y="298" type="line"/>
      <point x="166" y="298" type="line"/>
      <point x="166" y="642" type="line"/>
    </contour>
    <contour>
      <point x="668" y="746" type="line"/>
      <point x="263" y="-13" type="line"/>
      <point x="201" y="-13" type="line"/>
      <point x="606" y="746" type="line"/>
    </contour>
    <contour>
      <point x="510" y="117" type="line"/>
      <point x="510" y="152" type="line"/>
      <point x="693" y="436" type="line"/>
      <point x="772" y="436" type="line"/>
      <point x="772" y="167" type="line"/>
      <point x="836" y="167" type="line"/>
      <point x="836" y="117" type="line"/>
      <point x="772" y="117" type="line"/>
      <point x="772" y="0" type="line"/>
      <point x="707" y="0" type="line"/>
      <point x="707" y="117" type="line"/>
    </contour>
    <contour>
      <point x="713" y="368" type="line"/>
      <point x="708" y="368" type="line"/>
      <point x="583" y="167" type="line"/>
      <point x="707" y="167" type="line"/>
      <point x="707" y="247" type="line"/>
    </contour>
  </outline>
</glyph>
<glyph name="onehalf" format="2">
  <advance width="903" height="903"/>
  <unicode hex="00BD"/>
  <outline>
    <contour>
      <point x="71" y="642" type="line"/>
      <point x="71" y="688" type="line"/>
      <point x="106" y="694"/>
      <point x="154" y="716"/>
      <point x="178" y="733" type="qcurve"/>
      <point x="236" y="733" type="line"/>
      <point x="236" y="298" type="line"/>
      <point x="166" y="298" type="line"/>
      <point x="166" y="642" type="line"/>
    </contour>
    <contour>
      <point x="645" y="746" type="line"/>
      <point x="241" y="-13" type="line"/>
      <point x="178" y="-13" type="line"/>
      <point x="583" y="746" type="line"/>
    </contour>
    <contour>
      <point x="713" y="195"/>
      <point x="758" y="266"/>
      <point x="758" y="298" type="qcurve" smooth="yes"/>
      <point x="758" y="340"/>
      <point x="712" y="390"/>
      <point x="673" y="390" type="qcurve" smooth="yes"/>
      <point x="623" y="390"/>
      <point x="580" y="326" type="qcurve"/>
      <point x="537" y="365" type="line"/>
      <point x="563" y="403"/>
      <point x="639" y="449"/>
      <point x="683" y="449" type="qcurve" smooth="yes"/>
      <point x="749" y="449"/>
      <point x="827" y="376"/>
      <point x="827" y="308" type="qcurve" smooth="yes"/>
      <point x="827" y="268"/>
      <point x="788" y="193"/>
      <point x="725" y="122"/>
      <point x="665" y="61" type="qcurve"/>
      <point x="850" y="61" type="line"/>
      <point x="850" y="0" type="line"/>
      <point x="551" y="0" type="line"/>
      <point x="551" y="41" type="line"/>
      <point x="631" y="113"/>
    </contour>
  </outline>
</glyph>
<glyph name="threequarters" format="2">
  <advance width="889" height="889"/>
  <unicode hex="00BE"/>
  <outline>
    <contour>
      <point x="64" y="331"/>
      <point x="38" y="369" type="qcurve"/>
      <point x="86" y="406" type="line"/>
      <point x="106" y="375"/>
      <point x="162" y="340"/>
      <point x="196" y="340" type="qcurve" smooth="yes"/>
      <point x="233" y="340"/>
      <point x="283" y="383"/>
      <point x="283" y="419" type="qcurve" smooth="yes"/>
      <point x="283" y="457"/>
      <point x="213" y="497"/>
      <point x="147" y="497" type="qcurve"/>
      <point x="147" y="542" type="line"/>
      <point x="203" y="542"/>
      <point x="267" y="586"/>
      <point x="267" y="621" type="qcurve" smooth="yes"/>
      <point x="267" y="652"/>
      <point x="224" y="690"/>
      <point x="188" y="690" type="qcurve" smooth="yes"/>
      <point x="164" y="690"/>
      <point x="118" y="661"/>
      <point x="99" y="637" type="qcurve"/>
      <point x="56" y="675" type="line"/>
      <point x="117" y="746"/>
      <point x="198" y="746" type="qcurve" smooth="yes"/>
      <point x="257" y="746"/>
      <point x="338" y="682"/>
      <point x="338" y="630" type="qcurve" smooth="yes"/>
      <point x="338" y="593"/>
      <point x="296" y="539"/>
      <point x="260" y="523" type="qcurve"/>
      <point x="300" y="512"/>
      <point x="354" y="456"/>
      <point x="354" y="415" type="qcurve" smooth="yes"/>
      <point x="354" y="356"/>
      <point x="265" y="284"/>
      <point x="200" y="284" type="qcurve" smooth="yes"/>
      <point x="149" y="284"/>
    </contour>
    <contour>
      <point x="710" y="746" type="line"/>
      <point x="306" y="-13" type="line"/>
      <point x="244" y="-13" type="line"/>
      <point x="649" y="746" type="line"/>
    </contour>
    <contour>
      <point x="526" y="117" type="line"/>
      <point x="526" y="152" type="line"/>
      <point x="709" y="436" type="line"/>
      <point x="788" y="436" type="line"/>
      <point x="788" y="167" type="line"/>
      <point x="853" y="167" type="line"/>
      <point x="853" y="117" type="line"/>
      <point x="788" y="117" type="line"/>
      <point x="788" y="0" type="line"/>
      <point x="724" y="0" type="line"/>
      <point x="724" y="117" type="line"/>
    </contour>
    <contour>
      <point x="730" y="368" type="line"/>
      <point x="725" y="368" type="line"/>
      <point x="600" y="167" type="line"/>
      <point x="724" y="167" type="line"/>
      <point x="724" y="247" type="line"/>
    </contour>
  </outline>
</glyph>
<glyph name="questiondown" format="2">
  <advance width="474" height="474"/>
  <unicode hex="00BF"/>
  <outline>
    <contour>
      <point x="53" y="-123"/>
      <point x="53" y="-40" type="qcurve" smooth="yes"/>
      <point x="53" y="7"/>
      <point x="94" y="80"/>
      <point x="135" y="130" type="qcurve" smooth="yes"/>
      <point x="176" y="181"/>
      <point x="216" y="253"/>
      <point x="216" y="299" type="qcurve" smooth="yes"/>
      <point x="216" y="314"/>
      <point x="215" y="322" type="qcurve"/>
      <point x="296" y="322" type="line"/>
      <point x="298" y="311"/>
      <point x="298" y="290" type="qcurve" smooth="yes"/>
      <point x="298" y="236"/>
      <point x="254" y="155"/>
      <point x="211" y="102" type="qcurve" smooth="yes"/>
      <point x="177" y="60"/>
      <point x="142" y="-1"/>
      <point x="142" y="-35" type="qcurve" smooth="yes"/>
      <point x="142" y="-82"/>
      <point x="199" y="-144"/>
      <point x="250" y="-144" type="qcurve" smooth="yes"/>
      <point x="322" y="-144"/>
      <point x="379" y="-79" type="qcurve"/>
      <point x="432" y="-127" type="line"/>
      <point x="349" y="-219"/>
      <point x="241" y="-219" type="qcurve" smooth="yes"/>
      <point x="155" y="-219"/>
    </contour>
    <contour>
      <point x="187" y="457"/>
      <point x="187" y="487" type="qcurve" smooth="yes"/>
      <point x="187" y="517"/>
      <point x="226" y="557"/>
      <point x="253" y="557" type="qcurve" smooth="yes"/>
      <point x="281" y="557"/>
      <point x="319" y="517"/>
      <point x="319" y="487" type="qcurve" smooth="yes"/>
      <point x="319" y="456"/>
      <point x="281" y="416"/>
      <point x="253" y="416" type="qcurve" smooth="yes"/>
      <point x="226" y="416"/>
    </contour>
  </outline>
</glyph>
<glyph name="Aacute" format="2">
  <advance width="608" height="608"/>
  <unicode hex="00C1"/>
  <outline>
    <contour>
      <point x="401" y="970" type="line"/>
      <point x="453" y="907" type="line"/>
      <point x="284" y="779" type="line"/>
      <point x="243" y="825" type="line"/>
    </contour>
    <contour>
      <point x="355" y="733" type="line"/>
      <point x="604" y="0" type="line"/>
      <point x="506" y="0" type="line"/>
      <point x="436" y="224" type="line"/>
      <point x="168" y="224" type="line"/>
      <point x="97" y="0" type="line"/>
      <point x="4" y="0" type="line"/>
      <point x="252" y="733" type="line"/>
    </contour>
    <contour>
      <point x="304" y="658" type="qcurve"/>
      <point x="300" y="658" type="line"/>
      <point x="273" y="556"/>
      <point x="227" y="410" type="qcurve" smooth="yes"/>
      <point x="191" y="297" type="line"/>
      <point x="413" y="297" type="line"/>
      <point x="378" y="410" type="line" smooth="yes"/>
      <point x="348" y="503"/>
    </contour>
  </outline>
</glyph>
<glyph name="Atilde" format="2">
  <advance width="608" height="608"/>
  <unicode hex="00C3"/>
  <outline>
    <contour>
      <point x="312" y="816"/>
      <point x="284" y="838" type="qcurve" smooth="yes"/>
      <point x="265" y="855"/>
      <point x="237" y="871"/>
      <point x="221" y="871" type="qcurve" smooth="yes"/>
      <point x="200" y="871"/>
      <point x="171" y="833"/>
      <point x="167" y="798" type="qcurve"/>
      <point x="106" y="803" type="line"/>
      <point x="108" y="866"/>
      <point x="169" y="939"/>
      <point x="219" y="939" type="qcurve" smooth="yes"/>
      <point x="250" y="939"/>
      <point x="294" y="915"/>
      <point x="322" y="893" type="qcurve" smooth="yes"/>
      <point x="341" y="876"/>
      <point x="369" y="860"/>
      <point x="385" y="860" type="qcurve" smooth="yes"/>
      <point x="406" y="860"/>
      <point x="435" y="898"/>
      <point x="439" y="934" type="qcurve"/>
      <point x="500" y="930" type="line"/>
      <point x="498" y="866"/>
      <point x="437" y="792"/>
      <point x="387" y="792" type="qcurve" smooth="yes"/>
      <point x="356" y="792"/>
    </contour>
    <contour>
      <point x="355" y="733" type="line"/>
      <point x="604" y="0" type="line"/>
      <point x="506" y="0" type="line"/>
      <point x="436" y="224" type="line"/>
      <point x="168" y="224" type="line"/>
      <point x="97" y="0" type="line"/>
      <point x="4" y="0" type="line"/>
      <point x="252" y="733" type="line"/>
    </contour>
    <contour>
      <point x="304" y="658" type="qcurve"/>
      <point x="300" y="658" type="line"/>
      <point x="273" y="556"/>
      <point x="227" y="410" type="qcurve" smooth="yes"/>
      <point x="191" y="297" type="line"/>
      <point x="413" y="297" type="line"/>
      <point x="378" y="410" type="line" smooth="yes"/>
      <point x="348" y="503"/>
    </contour>
  </outline>
</glyph>
<glyph name="Adieresis" format="2">
  <advance width="608" height="608"/>
  <unicode hex="00C4"/>
  <outline>
    <contour>
      <point x="134" y="831"/>
      <point x="134" y="855" type="qcurve" smooth="yes"/>
      <point x="134" y="878"/>
      <point x="164" y="909"/>
      <point x="187" y="909" type="qcurve" smooth="yes"/>
      <point x="211" y="909"/>
      <point x="243" y="878"/>
      <point x="243" y="855" type="qcurve" smooth="yes"/>
      <point x="243" y="831"/>
      <point x="211" y="800"/>
      <point x="187" y="800" type="qcurve" smooth="yes"/>
      <point x="164" y="800"/>
    </contour>
    <contour>
      <point x="363" y="830"/>
      <point x="363" y="855" type="qcurve" smooth="yes"/>
      <point x="363" y="878"/>
      <point x="394" y="909"/>
      <point x="418" y="909" type="qcurve" smooth="yes"/>
      <point x="441" y="909"/>
      <point x="472" y="878"/>
      <point x="472" y="855" type="qcurve" smooth="yes"/>
      <point x="472" y="831"/>
      <point x="442" y="800"/>
      <point x="418" y="800" type="qcurve" smooth="yes"/>
      <point x="394" y="800"/>
    </contour>
    <contour>
      <point x="355" y="733" type="line"/>
      <point x="604" y="0" type="line"/>
      <point x="506" y="0" type="line"/>
      <point x="436" y="224" type="line"/>
      <point x="168" y="224" type="line"/>
      <point x="97" y="0" type="line"/>
      <point x="4" y="0" type="line"/>
      <point x="252" y="733" type="line"/>
    </contour>
    <contour>
      <point x="304" y="658" type="qcurve"/>
      <point x="300" y="658" type="line"/>
      <point x="273" y="556"/>
      <point x="227" y="410" type="qcurve" smooth="yes"/>
      <point x="191" y="297" type="line"/>
      <point x="413" y="297" type="line"/>
      <point x="378" y="410" type="line" smooth="yes"/>
      <point x="348" y="503"/>
    </contour>
  </outline>
</glyph>
<glyph name="Aring" format="2">
  <advance width="608" height="608"/>
  <unicode hex="00C5"/>
  <outline>
    <contour>
      <point x="195" y="837"/>
      <point x="195" y="882" type="qcurve" smooth="yes"/>
      <point x="195" y="928"/>
      <point x="255" y="983"/>
      <point x="303" y="983" type="qcurve" smooth="yes"/>
      <point x="350" y="983"/>
      <point x="411" y="928"/>
      <point x="411" y="882" type="qcurve" smooth="yes"/>
      <point x="411" y="837"/>
      <point x="349" y="780"/>
      <point x="303" y="780" type="qcurve" smooth="yes"/>
      <point x="255" y="780"/>
    </contour>
    <contour>
      <point x="359" y="854"/>
      <point x="359" y="882" type="qcurve" smooth="yes"/>
      <point x="359" y="909"/>
      <point x="326" y="942"/>
      <point x="303" y="942" type="qcurve" smooth="yes"/>
      <point x="278" y="942"/>
      <point x="245" y="909"/>
      <point x="245" y="882" type="qcurve" smooth="yes"/>
      <point x="245" y="854"/>
      <point x="278" y="822"/>
      <point x="303" y="822" type="qcurve" smooth="yes"/>
      <point x="327" y="822"/>
    </contour>
    <contour>
      <point x="355" y="733" type="line"/>
      <point x="604" y="0" type="line"/>
      <point x="506" y="0" type="line"/>
      <point x="436" y="224" type="line"/>
      <point x="168" y="224" type="line"/>
      <point x="97" y="0" type="line"/>
      <point x="4" y="0" type="line"/>
      <point x="252" y="733" type="line"/>
    </contour>
    <contour>
      <point x="304" y="658" type="qcurve"/>
      <point x="300" y="658" type="line"/>
      <point x="273" y="556"/>
      <point x="227" y="410" type="qcurve" smooth="yes"/>
      <point x="191" y="297" type="line"/>
      <point x="413" y="297" type="line"/>
      <point x="378" y="410" type="line" smooth="yes"/>
      <point x="348" y="503"/>
    </contour>
  </outline>
</glyph>
<glyph name="Ccedilla" format="2">
  <advance width="638" height="638"/>
  <unicode hex="00C7"/>
  <outline>
    <contour>
      <point x="400" y="-177"/>
      <point x="400" y="-152" type="qcurve" smooth="yes"/>
      <point x="400" y="-131"/>
      <point x="360" y="-105"/>
      <point x="313" y="-98" type="qcurve"/>
      <point x="355" y="-12" type="line"/>
      <point x="269" y="-6"/>
      <point x="134" y="87"/>
      <point x="58" y="254"/>
      <point x="58" y="366" type="qcurve" smooth="yes"/>
      <point x="58" y="482"/>
      <point x="142" y="654"/>
      <point x="290" y="746"/>
      <point x="383" y="746" type="qcurve" smooth="yes"/>
      <point x="445" y="746"/>
      <point x="549" y="695"/>
      <point x="584" y="656" type="qcurve"/>
      <point x="534" y="596" type="line"/>
      <point x="468" y="665"/>
      <point x="384" y="665" type="qcurve" smooth="yes"/>
      <point x="315" y="665"/>
      <point x="211" y="593"/>
      <point x="153" y="459"/>
      <point x="153" y="369" type="qcurve" smooth="yes"/>
      <point x="153" y="277"/>
      <point x="209" y="141"/>
      <point x="312" y="68"/>
      <point x="381" y="68" type="qcurve" smooth="yes"/>
      <point x="432" y="68"/>
      <point x="514" y="110"/>
      <point x="551" y="151" type="qcurve"/>
      <point x="602" y="92" type="line"/>
      <point x="524" y="2"/>
      <point x="416" y="-11" type="qcurve"/>
      <point x="389" y="-71" type="line"/>
      <point x="429" y="-81"/>
      <point x="470" y="-118"/>
      <point x="470" y="-150" type="qcurve" smooth="yes"/>
      <point x="470" y="-244"/>
      <point x="287" y="-253" type="qcurve"/>
      <point x="278" y="-207" type="line"/>
      <point x="347" y="-203"/>
    </contour>
  </outline>
</glyph>
<glyph name="Idieresis" format="2">
  <advance width="293" height="293"/>
  <unicode hex="00CF"/>
  <outline>
    <contour>
      <point x="193" y="733" type="line"/>
      <point x="193" y="0" type="line"/>
      <point x="101" y="0" type="line"/>
      <point x="101" y="733" type="line"/>
    </contour>
    <contour>
      <point x="-21" y="830"/>
      <point x="-21" y="855" type="qcurve" smooth="yes"/>
      <point x="-21" y="878"/>
      <point x="9" y="909"/>
      <point x="33" y="909" type="qcurve" smooth="yes"/>
      <point x="56" y="909"/>
      <point x="87" y="878"/>
      <point x="87" y="855" type="qcurve" smooth="yes"/>
      <point x="87" y="831"/>
      <point x="57" y="800"/>
      <point x="33" y="800" type="qcurve" smooth="yes"/>
      <point x="9" y="800"/>
    </contour>
    <contour>
      <point x="207" y="830"/>
      <point x="207" y="855" type="qcurve" smooth="yes"/>
      <point x="207" y="878"/>
      <point x="238" y="909"/>
      <point x="262" y="909" type="qcurve" smooth="yes"/>
      <point x="286" y="909"/>
      <point x="316" y="878"/>
      <point x="316" y="855" type="qcurve" smooth="yes"/>
      <point x="316" y="830"/>
      <point x="286" y="800"/>
      <point x="262" y="800" type="qcurve" smooth="yes"/>
      <point x="238" y="800"/>
    </contour>
  </outline>
</glyph>
<glyph name="Eth" format="2">
  <advance width="712" height="712"/>
  <unicode hex="00D0"/>
  <outline>
    <contour>
      <point x="37" y="359" type="line"/>
      <point x="37" y="407" type="line"/>
      <point x="125" y="410" type="line"/>
      <point x="125" y="733" type="line"/>
      <point x="309" y="733" type="line" smooth="yes"/>
      <point x="477" y="733"/>
      <point x="654" y="545"/>
      <point x="654" y="369" type="qcurve" smooth="yes"/>
      <point x="654" y="194"/>
      <point x="478" y="0"/>
      <point x="313" y="0" type="qcurve" smooth="yes"/>
      <point x="125" y="0" type="line"/>
      <point x="125" y="359" type="line"/>
    </contour>
    <contour>
      <point x="559" y="228"/>
      <point x="559" y="369" type="qcurve" smooth="yes"/>
      <point x="559" y="510"/>
      <point x="429" y="658"/>
      <point x="301" y="658" type="qcurve" smooth="yes"/>
      <point x="218" y="658" type="line"/>
      <point x="218" y="410" type="line"/>
      <point x="384" y="410" type="line"/>
      <point x="384" y="359" type="line"/>
      <point x="218" y="359" type="line"/>
      <point x="218" y="76" type="line"/>
      <point x="301" y="76" type="line" smooth="yes"/>
      <point x="428" y="76"/>
    </contour>
  </outline>
</glyph>
<glyph name="Ntilde" format="2">
  <advance width="723" height="723"/>
  <unicode hex="00D1"/>
  <outline>
    <contour>
      <point x="195" y="733" type="line"/>
      <point x="463" y="271" type="line"/>
      <point x="542" y="120" type="line"/>
      <point x="547" y="120" type="line"/>
      <point x="534" y="278"/>
      <point x="534" y="352" type="qcurve" smooth="yes"/>
      <point x="534" y="733" type="line"/>
      <point x="622" y="733" type="line"/>
      <point x="622" y="0" type="line"/>
      <point x="527" y="0" type="line"/>
      <point x="260" y="463" type="line"/>
      <point x="181" y="614" type="line"/>
      <point x="177" y="614" type="line"/>
      <point x="181" y="550" type="line" smooth="yes"/>
      <point x="183" y="509"/>
      <point x="188" y="420"/>
      <point x="188" y="385" type="qcurve" smooth="yes"/>
      <point x="188" y="0" type="line"/>
      <point x="101" y="0" type="line"/>
      <point x="101" y="733" type="line"/>
    </contour>
    <contour>
      <point x="382" y="816"/>
      <point x="354" y="838" type="qcurve" smooth="yes"/>
      <point x="335" y="855"/>
      <point x="307" y="871"/>
      <point x="291" y="871" type="qcurve" smooth="yes"/>
      <point x="270" y="871"/>
      <point x="241" y="833"/>
      <point x="237" y="798" type="qcurve"/>
      <point x="176" y="803" type="line"/>
      <point x="178" y="866"/>
      <point x="239" y="939"/>
      <point x="289" y="939" type="qcurve" smooth="yes"/>
      <point x="320" y="939"/>
      <point x="365" y="915"/>
      <point x="392" y="892" type="qcurve" smooth="yes"/>
      <point x="413" y="875"/>
      <point x="439" y="860"/>
      <point x="454" y="860" type="qcurve" smooth="yes"/>
      <point x="476" y="860"/>
      <point x="505" y="898"/>
      <point x="509" y="934" type="qcurve"/>
      <point x="570" y="930" type="line"/>
      <point x="567" y="866"/>
      <point x="507" y="792"/>
      <point x="457" y="792" type="qcurve" smooth="yes"/>
      <point x="426" y="792"/>
    </contour>
  </outline>
</glyph>
<glyph name="Otilde" format="2">
  <advance width="742" height="742"/>
  <unicode hex="00D5"/>
  <outline>
    <contour>
      <point x="137" y="80"/>
      <point x="58" y="253"/>
      <point x="58" y="369" type="qcurve" smooth="yes"/>
      <point x="58" y="484"/>
      <point x="137" y="655"/>
      <point x="279" y="746"/>
      <point x="371" y="746" type="qcurve" smooth="yes"/>
      <point x="463" y="746"/>
      <point x="605" y="655"/>
      <point x="684" y="484"/>
      <point x="684" y="369" type="qcurve" smooth="yes"/>
      <point x="684" y="253"/>
      <point x="605" y="80"/>
      <point x="463" y="-13"/>
      <point x="371" y="-13" type="qcurve" smooth="yes"/>
      <point x="279" y="-13"/>
    </contour>
    <contour>
      <point x="535" y="142"/>
      <point x="589" y="278"/>
      <point x="589" y="369" type="qcurve" smooth="yes"/>
      <point x="589" y="459"/>
      <point x="535" y="593"/>
      <point x="437" y="665"/>
      <point x="371" y="665" type="qcurve" smooth="yes"/>
      <point x="305" y="665"/>
      <point x="207" y="593"/>
      <point x="153" y="459"/>
      <point x="153" y="369" type="qcurve" smooth="yes"/>
      <point x="153" y="278"/>
      <point x="207" y="142"/>
      <point x="306" y="68"/>
      <point x="371" y="68" type="qcurve" smooth="yes"/>
      <point x="436" y="68"/>
    </contour>
    <contour>
      <point x="379" y="816"/>
      <point x="352" y="839" type="qcurve" smooth="yes"/>
      <point x="331" y="856"/>
      <point x="305" y="871"/>
      <point x="290" y="871" type="qcurve" smooth="yes"/>
      <point x="268" y="871"/>
      <point x="238" y="833"/>
      <point x="235" y="798" type="qcurve"/>
      <point x="173" y="803" type="line"/>
      <point x="177" y="866"/>
      <point x="237" y="939"/>
      <point x="287" y="939" type="qcurve" smooth="yes"/>
      <point x="318" y="939"/>
      <point x="363" y="915"/>
      <point x="390" y="892" type="qcurve" smooth="yes"/>
      <point x="411" y="875"/>
      <point x="437" y="860"/>
      <point x="452" y="860" type="qcurve" smooth="yes"/>
      <point x="474" y="860"/>
      <point x="503" y="898"/>
      <point x="507" y="934" type="qcurve"/>
      <point x="569" y="930" type="line"/>
      <point x="565" y="866"/>
      <point x="505" y="792"/>
      <point x="455" y="792" type="qcurve" smooth="yes"/>
      <point x="424" y="792"/>
    </contour>
  </outline>
</glyph>
<glyph name="Odieresis" format="2">
  <advance width="742" height="742"/>
  <unicode hex="00D6"/>
  <outline>
    <contour>
      <point x="137" y="80"/>
      <point x="58" y="253"/>
      <point x="58" y="369" type="qcurve" smooth="yes"/>
      <point x="58" y="484"/>
      <point x="137" y="655"/>
      <point x="279" y="746"/>
      <point x="371" y="746" type="qcurve" smooth="yes"/>
      <point x="463" y="746"/>
      <point x="605" y="655"/>
      <point x="684" y="484"/>
      <point x="684" y="369" type="qcurve" smooth="yes"/>
      <point x="684" y="253"/>
      <point x="605" y="80"/>
      <point x="463" y="-13"/>
      <point x="371" y="-13" type="qcurve" smooth="yes"/>
      <point x="279" y="-13"/>
    </contour>
    <contour>
      <point x="535" y="142"/>
      <point x="589" y="278"/>
      <point x="589" y="369" type="qcurve" smooth="yes"/>
      <point x="589" y="459"/>
      <point x="535" y="593"/>
      <point x="437" y="665"/>
      <point x="371" y="665" type="qcurve" smooth="yes"/>
      <point x="305" y="665"/>
      <point x="207" y="593"/>
      <point x="153" y="459"/>
      <point x="153" y="369" type="qcurve" smooth="yes"/>
      <point x="153" y="278"/>
      <point x="207" y="142"/>
      <point x="306" y="68"/>
      <point x="371" y="68" type="qcurve" smooth="yes"/>
      <point x="436" y="68"/>
    </contour>
    <contour>
      <point x="202" y="831"/>
      <point x="202" y="855" type="qcurve" smooth="yes"/>
      <point x="202" y="878"/>
      <point x="233" y="909"/>
      <point x="256" y="909" type="qcurve" smooth="yes"/>
      <point x="280" y="909"/>
      <point x="311" y="878"/>
      <point x="311" y="855" type="qcurve" smooth="yes"/>
      <point x="311" y="830"/>
      <point x="280" y="800"/>
      <point x="256" y="800" type="qcurve" smooth="yes"/>
      <point x="233" y="800"/>
    </contour>
    <contour>
      <point x="431" y="830"/>
      <point x="431" y="855" type="qcurve" smooth="yes"/>
      <point x="431" y="878"/>
      <point x="462" y="909"/>
      <point x="486" y="909" type="qcurve" smooth="yes"/>
      <point x="510" y="909"/>
      <point x="540" y="878"/>
      <point x="540" y="855" type="qcurve" smooth="yes"/>
      <point x="540" y="830"/>
      <point x="510" y="800"/>
      <point x="486" y="800" type="qcurve" smooth="yes"/>
      <point x="462" y="800"/>
    </contour>
  </outline>
</glyph>
<glyph name="Oslash" format="2">
  <advance width="742" height="742"/>
  <unicode hex="00D8"/>
  <outline>
    <contour>
      <point x="178" y="59" type="qcurve"/>
      <point x="107" y="-33" type="line"/>
      <point x="56" y="6" type="line"/>
      <point x="134" y="108" type="line"/>
      <point x="99" y="158"/>
      <point x="61" y="290"/>
      <point x="61" y="369" type="qcurve" smooth="yes"/>
      <point x="61" y="484"/>
      <point x="140" y="655"/>
      <point x="282" y="746"/>
      <point x="374" y="746" type="qcurve" smooth="yes"/>
      <point x="489" y="746"/>
      <point x="570" y="676" type="qcurve"/>
      <point x="640" y="767" type="line"/>
      <point x="691" y="727" type="line"/>
      <point x="614" y="627" type="line"/>
      <point x="687" y="525"/>
      <point x="687" y="369" type="qcurve" smooth="yes"/>
      <point x="687" y="253"/>
      <point x="608" y="80"/>
      <point x="466" y="-13"/>
      <point x="374" y="-13" type="qcurve" smooth="yes"/>
      <point x="259" y="-13"/>
    </contour>
    <contour>
      <point x="538" y="142"/>
      <point x="592" y="278"/>
      <point x="592" y="369" type="qcurve" smooth="yes"/>
      <point x="592" y="477"/>
      <point x="555" y="549" type="qcurve"/>
      <point x="232" y="130" type="line"/>
      <point x="289" y="68"/>
      <point x="374" y="68" type="qcurve" smooth="yes"/>
      <point x="439" y="68"/>
    </contour>
    <contour>
      <point x="374" y="665" type="qcurve" smooth="yes"/>
      <point x="309" y="665"/>
      <point x="210" y="593"/>
      <point x="156" y="459"/>
      <point x="156" y="369" type="qcurve" smooth="yes"/>
      <point x="156" y="264"/>
      <point x="194" y="186" type="qcurve"/>
      <point x="516" y="605" type="line"/>
      <point x="459" y="665"/>
    </contour>
  </outline>
</glyph>
<glyph name="Ugrave" format="2">
  <advance width="721" height="721"/>
  <unicode hex="00D9"/>
  <outline>
    <contour>
      <point x="98" y="135"/>
      <point x="98" y="302" type="qcurve" smooth="yes"/>
      <point x="98" y="733" type="line"/>
      <point x="190" y="733" type="line"/>
      <point x="190" y="300" type="line" smooth="yes"/>
      <point x="190" y="68"/>
      <point x="361" y="68" type="qcurve" smooth="yes"/>
      <point x="441" y="68"/>
      <point x="535" y="176"/>
      <point x="535" y="300" type="qcurve" smooth="yes"/>
      <point x="535" y="733" type="line"/>
      <point x="624" y="733" type="line"/>
      <point x="624" y="302" type="line" smooth="yes"/>
      <point x="624" y="136"/>
      <point x="482" y="-13"/>
      <point x="361" y="-13" type="qcurve" smooth="yes"/>
      <point x="239" y="-13"/>
    </contour>
    <contour>
      <point x="262" y="970" type="line"/>
      <point x="419" y="825" type="line"/>
      <point x="379" y="779" type="line"/>
      <point x="209" y="907" type="line"/>
    </contour>
  </outline>
</glyph>
<glyph name="Udieresis" format="2">
  <advance width="721" height="721"/>
  <unicode hex="00DC"/>
  <outline>
    <contour>
      <point x="98" y="135"/>
      <point x="98" y="302" type="qcurve" smooth="yes"/>
      <point x="98" y="733" type="line"/>
      <point x="190" y="733" type="line"/>
      <point x="190" y="300" type="line" smooth="yes"/>
      <point x="190" y="68"/>
      <point x="361" y="68" type="qcurve" smooth="yes"/>
      <point x="441" y="68"/>
      <point x="535" y="176"/>
      <point x="535" y="300" type="qcurve" smooth="yes"/>
      <point x="535" y="733" type="line"/>
      <point x="624" y="733" type="line"/>
      <point x="624" y="302" type="line" smooth="yes"/>
      <point x="624" y="136"/>
      <point x="482" y="-13"/>
      <point x="361" y="-13" type="qcurve" smooth="yes"/>
      <point x="239" y="-13"/>
    </contour>
    <contour>
      <point x="191" y="831"/>
      <point x="191" y="855" type="qcurve" smooth="yes"/>
      <point x="191" y="878"/>
      <point x="222" y="909"/>
      <point x="245" y="909" type="qcurve" smooth="yes"/>
      <point x="269" y="909"/>
      <point x="300" y="878"/>
      <point x="300" y="855" type="qcurve" smooth="yes"/>
      <point x="300" y="830"/>
      <point x="269" y="800"/>
      <point x="245" y="800" type="qcurve" smooth="yes"/>
      <point x="222" y="800"/>
    </contour>
    <contour>
      <point x="420" y="830"/>
      <point x="420" y="855" type="qcurve" smooth="yes"/>
      <point x="420" y="878"/>
      <point x="451" y="909"/>
      <point x="475" y="909" type="qcurve" smooth="yes"/>
      <point x="498" y="909"/>
      <point x="529" y="878"/>
      <point x="529" y="855" type="qcurve" smooth="yes"/>
      <point x="529" y="831"/>
      <point x="499" y="800"/>
      <point x="475" y="800" type="qcurve" smooth="yes"/>
      <point x="451" y="800"/>
    </contour>
  </outline>
</glyph>
<glyph name="Yacute" format="2">
  <advance width="531" height="531"/>
  <unicode hex="00DD"/>
  <outline>
    <contour>
      <point x="-1" y="733" type="line"/>
      <point x="97" y="733" type="line"/>
      <point x="192" y="526" type="line"/>
      <point x="213" y="479" type="line" smooth="yes"/>
      <point x="230" y="439"/>
      <point x="264" y="365" type="qcurve"/>
      <point x="268" y="365" type="line"/>
      <point x="274" y="379"/>
      <point x="278" y="385" type="qcurve" smooth="yes"/>
      <point x="334" y="507"/>
      <point x="342" y="526" type="qcurve" smooth="yes"/>
      <point x="436" y="733" type="line"/>
      <point x="532" y="733" type="line"/>
      <point x="311" y="284" type="line"/>
      <point x="311" y="0" type="line"/>
      <point x="219" y="0" type="line"/>
      <point x="219" y="284" type="line"/>
    </contour>
    <contour>
      <point x="363" y="970" type="line"/>
      <point x="416" y="907" type="line"/>
      <point x="247" y="779" type="line"/>
      <point x="205" y="825" type="line"/>
    </contour>
  </outline>
</glyph>
<glyph name="Thorn" format="2">
  <advance width="652" height="652"/>
  <unicode hex="00DE"/>
  <outline>
    <contour>
      <point x="193" y="733" type="line"/>
      <point x="193" y="610" type="line"/>
      <point x="325" y="610" type="line" smooth="yes"/>
      <point x="454" y="610"/>
      <point x="596" y="509"/>
      <point x="596" y="394" type="qcurve" smooth="yes"/>
      <point x="596" y="282"/>
      <point x="450" y="168"/>
      <point x="325" y="168" type="qcurve" smooth="yes"/>
      <point x="193" y="168" type="line"/>
      <point x="193" y="0" type="line"/>
      <point x="101" y="0" type="line"/>
      <point x="101" y="733" type="line"/>
    </contour>
    <contour>
      <point x="503" y="316"/>
      <point x="503" y="394" type="qcurve" smooth="yes"/>
      <point x="503" y="472"/>
      <point x="412" y="535"/>
      <point x="313" y="535" type="qcurve" smooth="yes"/>
      <point x="193" y="535" type="line"/>
      <point x="193" y="243" type="line"/>
      <point x="313" y="243" type="line" smooth="yes"/>
      <point x="410" y="243"/>
    </contour>
  </outline>
</glyph>
<glyph name="germandbls" format="2">
  <advance width="643" height="643"/>
  <unicode hex="00DF"/>
  <outline>
    <contour>
      <point x="275" y="42" type="qcurve"/>
      <point x="311" y="106" type="line"/>
      <point x="369" y="58"/>
      <point x="429" y="58" type="qcurve" smooth="yes"/>
      <point x="474" y="58"/>
      <point x="525" y="110"/>
      <point x="525" y="148" type="qcurve" smooth="yes"/>
      <point x="525" y="177"/>
      <point x="498" y="218"/>
      <point x="457" y="245"/>
      <point x="422" y="264" type="qcurve" smooth="yes"/>
      <point x="383" y="284"/>
      <point x="337" y="317"/>
      <point x="304" y="370"/>
      <point x="304" y="408" type="qcurve" smooth="yes"/>
      <point x="304" y="442"/>
      <point x="329" y="491"/>
      <point x="355" y="525" type="qcurve" smooth="yes"/>
      <point x="379" y="557"/>
      <point x="403" y="604"/>
      <point x="403" y="635" type="qcurve" smooth="yes"/>
      <point x="403" y="679"/>
      <point x="354" y="733"/>
      <point x="309" y="733" type="qcurve" smooth="yes"/>
      <point x="249" y="733"/>
      <point x="182" y="645"/>
      <point x="182" y="559" type="qcurve" smooth="yes"/>
      <point x="182" y="0" type="line"/>
      <point x="92" y="0" type="line"/>
      <point x="92" y="576" type="line" smooth="yes"/>
      <point x="92" y="682"/>
      <point x="207" y="807"/>
      <point x="310" y="807" type="qcurve" smooth="yes"/>
      <point x="367" y="807"/>
      <point x="449" y="763"/>
      <point x="492" y="689"/>
      <point x="492" y="644" type="qcurve" smooth="yes"/>
      <point x="492" y="603"/>
      <point x="462" y="544"/>
      <point x="434" y="509" type="qcurve" smooth="yes"/>
      <point x="412" y="481"/>
      <point x="390" y="441"/>
      <point x="390" y="418" type="qcurve" smooth="yes"/>
      <point x="390" y="386"/>
      <point x="434" y="347"/>
      <point x="479" y="324" type="qcurve" smooth="yes"/>
      <point x="522" y="301"/>
      <point x="574" y="264"/>
      <point x="611" y="200"/>
      <point x="611" y="152" type="qcurve" smooth="yes"/>
      <point x="611" y="105"/>
      <point x="567" y="30"/>
      <point x="486" y="-13"/>
      <point x="433" y="-13" type="qcurve" smooth="yes"/>
      <point x="346" y="-13"/>
    </contour>
  </outline>
</glyph>
<glyph name="agrave" format="2">
  <advance width="563" height="563"/>
  <unicode hex="00E0"/>
  <outline>
    <contour>
      <point x="59" y="69"/>
      <point x="59" y="141" type="qcurve" smooth="yes"/>
      <point x="59" y="229"/>
      <point x="218" y="324"/>
      <point x="392" y="344" type="qcurve"/>
      <point x="392" y="405"/>
      <point x="341" y="481"/>
      <point x="280" y="481" type="qcurve" smooth="yes"/>
      <point x="203" y="481"/>
      <point x="117" y="423" type="qcurve"/>
      <point x="82" y="486" type="line"/>
      <point x="191" y="557"/>
      <point x="295" y="557" type="qcurve" smooth="yes"/>
      <point x="391" y="557"/>
      <point x="483" y="440"/>
      <point x="483" y="334" type="qcurve" smooth="yes"/>
      <point x="483" y="0" type="line"/>
      <point x="408" y="0" type="line"/>
      <point x="400" y="65" type="line"/>
      <point x="397" y="65" type="line"/>
      <point x="303" y="-13"/>
      <point x="217" y="-13" type="qcurve" smooth="yes"/>
      <point x="147" y="-13"/>
    </contour>
    <contour>
      <point x="351" y="95"/>
      <point x="392" y="132" type="qcurve"/>
      <point x="392" y="283" type="line"/>
      <point x="259" y="268"/>
      <point x="147" y="202"/>
      <point x="147" y="147" type="qcurve" smooth="yes"/>
      <point x="147" y="103"/>
      <point x="200" y="61"/>
      <point x="243" y="61" type="qcurve" smooth="yes"/>
      <point x="281" y="61"/>
    </contour>
    <contour>
      <point x="203" y="872" type="line"/>
      <point x="362" y="686" type="line"/>
      <point x="315" y="640" type="line"/>
      <point x="140" y="812" type="line"/>
    </contour>
  </outline>
</glyph>
<glyph name="acircumflex" format="2">
  <advance width="563" height="563"/>
  <unicode hex="00E2"/>
  <outline>
    <contour>
      <point x="59" y="69"/>
      <point x="59" y="141" type="qcurve" smooth="yes"/>
      <point x="59" y="229"/>
      <point x="218" y="324"/>
      <point x="392" y="344" type="qcurve"/>
      <point x="392" y="405"/>
      <point x="341" y="481"/>
      <point x="280" y="481" type="qcurve" smooth="yes"/>
      <point x="203" y="481"/>
      <point x="117" y="423" type="qcurve"/>
      <point x="82" y="486" type="line"/>
      <point x="191" y="557"/>
      <point x="295" y="557" type="qcurve" smooth="yes"/>
      <point x="391" y="557"/>
      <point x="483" y="440"/>
      <point x="483" y="334" type="qcurve" smooth="yes"/>
      <point x="483" y="0" type="line"/>
      <point x="408" y="0" type="line"/>
      <point x="400" y="65" type="line"/>
      <point x="397" y="65" type="line"/>
      <point x="303" y="-13"/>
      <point x="217" y="-13" type="qcurve" smooth="yes"/>
      <point x="147" y="-13"/>
    </contour>
    <contour>
      <point x="351" y="95"/>
      <point x="392" y="132" type="qcurve"/>
      <point x="392" y="283" type="line"/>
      <point x="259" y="268"/>
      <point x="147" y="202"/>
      <point x="147" y="147" type="qcurve" smooth="yes"/>
      <point x="147" y="103"/>
      <point x="200" y="61"/>
      <point x="243" y="61" type="qcurve" smooth="yes"/>
      <point x="281" y="61"/>
    </contour>
    <contour>
      <point x="344" y="827" type="line"/>
      <point x="471" y="671" type="line"/>
      <point x="433" y="635" type="line"/>
      <point x="301" y="761" type="line"/>
      <point x="297" y="761" type="line"/>
      <point x="165" y="635" type="line"/>
      <point x="126" y="671" type="line"/>
      <point x="253" y="827" type="line"/>
    </contour>
  </outline>
</glyph>
<glyph name="atilde" format="2">
  <advance width="563" height="563"/>
  <unicode hex="00E3"/>
  <outline>
    <contour>
      <point x="59" y="69"/>
      <point x="59" y="141" type="qcurve" smooth="yes"/>
      <point x="59" y="229"/>
      <point x="218" y="324"/>
      <point x="392" y="344" type="qcurve"/>
      <point x="392" y="405"/>
      <point x="341" y="481"/>
      <point x="280" y="481" type="qcurve" smooth="yes"/>
      <point x="203" y="481"/>
      <point x="117" y="423" type="qcurve"/>
      <point x="82" y="486" type="line"/>
      <point x="191" y="557"/>
      <point x="295" y="557" type="qcurve" smooth="yes"/>
      <point x="391" y="557"/>
      <point x="483" y="440"/>
      <point x="483" y="334" type="qcurve" smooth="yes"/>
      <point x="483" y="0" type="line"/>
      <point x="408" y="0" type="line"/>
      <point x="400" y="65" type="line"/>
      <point x="397" y="65" type="line"/>
      <point x="303" y="-13"/>
      <point x="217" y="-13" type="qcurve" smooth="yes"/>
      <point x="147" y="-13"/>
    </contour>
    <contour>
      <point x="351" y="95"/>
      <point x="392" y="132" type="qcurve"/>
      <point x="392" y="283" type="line"/>
      <point x="259" y="268"/>
      <point x="147" y="202"/>
      <point x="147" y="147" type="qcurve" smooth="yes"/>
      <point x="147" y="103"/>
      <point x="200" y="61"/>
      <point x="243" y="61" type="qcurve" smooth="yes"/>
      <point x="281" y="61"/>
    </contour>
    <contour>
      <point x="310" y="672"/>
      <point x="282" y="699" type="qcurve" smooth="yes"/>
      <point x="262" y="720"/>
      <point x="234" y="739"/>
      <point x="219" y="739" type="qcurve" smooth="yes"/>
      <point x="172" y="739"/>
      <point x="167" y="650" type="qcurve"/>
      <point x="106" y="654" type="line"/>
      <point x="108" y="724"/>
      <point x="162" y="805"/>
      <point x="218" y="805" type="qcurve" smooth="yes"/>
      <point x="247" y="805"/>
      <point x="290" y="778"/>
      <point x="316" y="751" type="qcurve" smooth="yes"/>
      <point x="337" y="731"/>
      <point x="364" y="712"/>
      <point x="379" y="712" type="qcurve" smooth="yes"/>
      <point x="424" y="712"/>
      <point x="431" y="799" type="qcurve"/>
      <point x="492" y="796" type="line"/>
      <point x="490" y="728"/>
      <point x="435" y="645"/>
      <point x="380" y="645" type="qcurve" smooth="yes"/>
      <point x="351" y="645"/>
    </contour>
  </outline>
</glyph>
<glyph name="aring" format="2">
  <advance width="563" height="563"/>
  <unicode hex="00E5"/>
  <outline>
    <contour>
      <point x="59" y="69"/>
      <point x="59" y="141" type="qcurve" smooth="yes"/>
      <point x="59" y="229"/>
      <point x="218" y="324"/>
      <point x="392" y="344" type="qcurve"/>
      <point x="392" y="405"/>
      <point x="341" y="481"/>
      <point x="280" y="481" type="qcurve" smooth="yes"/>
      <point x="203" y="481"/>
      <point x="117" y="423" type="qcurve"/>
      <point x="82" y="486" type="line"/>
      <point x="191" y="557"/>
      <point x="295" y="557" type="qcurve" smooth="yes"/>
      <point x="391" y="557"/>
      <point x="483" y="440"/>
      <point x="483" y="334" type="qcurve" smooth="yes"/>
      <point x="483" y="0" type="line"/>
      <point x="408" y="0" type="line"/>
      <point x="400" y="65" type="line"/>
      <point x="397" y="65" type="line"/>
      <point x="303" y="-13"/>
      <point x="217" y="-13" type="qcurve" smooth="yes"/>
      <point x="147" y="-13"/>
    </contour>
    <contour>
      <point x="351" y="95"/>
      <point x="392" y="132" type="qcurve"/>
      <point x="392" y="283" type="line"/>
      <point x="259" y="268"/>
      <point x="147" y="202"/>
      <point x="147" y="147" type="qcurve" smooth="yes"/>
      <point x="147" y="103"/>
      <point x="200" y="61"/>
      <point x="243" y="61" type="qcurve" smooth="yes"/>
      <point x="281" y="61"/>
    </contour>
    <contour>
      <point x="177" y="680"/>
      <point x="177" y="729" type="qcurve" smooth="yes"/>
      <point x="177" y="778"/>
      <point x="243" y="838"/>
      <point x="299" y="838" type="qcurve" smooth="yes"/>
      <point x="355" y="838"/>
      <point x="420" y="778"/>
      <point x="420" y="729" type="qcurve" smooth="yes"/>
      <point x="420" y="680"/>
      <point x="355" y="620"/>
      <point x="299" y="620" type="qcurve" smooth="yes"/>
      <point x="243" y="620"/>
    </contour>
    <contour>
      <point x="363" y="698"/>
      <point x="363" y="729" type="qcurve" smooth="yes"/>
      <point x="363" y="760"/>
      <point x="326" y="798"/>
      <point x="299" y="798" type="qcurve" smooth="yes"/>
      <point x="271" y="798"/>
      <point x="235" y="760"/>
      <point x="235" y="729" type="qcurve" smooth="yes"/>
      <point x="235" y="698"/>
      <point x="271" y="660"/>
      <point x="299" y="660" type="qcurve" smooth="yes"/>
      <point x="326" y="660"/>
    </contour>
  </outline>
</glyph>
<glyph name="ae" format="2">
  <advance width="877" height="877"/>
  <unicode hex="00E6"/>
  <outline>
    <contour>
      <point x="66" y="69"/>
      <point x="66" y="141" type="qcurve" smooth="yes"/>
      <point x="66" y="229"/>
      <point x="224" y="325"/>
      <point x="395" y="344" type="qcurve"/>
      <point x="393" y="481"/>
      <point x="283" y="481" type="qcurve" smooth="yes"/>
      <point x="211" y="481"/>
      <point x="125" y="423" type="qcurve"/>
      <point x="89" y="486" type="line"/>
      <point x="198" y="557"/>
      <point x="293" y="557" type="qcurve" smooth="yes"/>
      <point x="352" y="557"/>
      <point x="432" y="495"/>
      <point x="449" y="441" type="qcurve"/>
      <point x="482" y="496"/>
      <point x="574" y="557"/>
      <point x="628" y="557" type="qcurve" smooth="yes"/>
      <point x="727" y="557"/>
      <point x="836" y="418"/>
      <point x="836" y="300" type="qcurve" smooth="yes"/>
      <point x="836" y="273"/>
      <point x="831" y="250" type="qcurve"/>
      <point x="479" y="250" type="line"/>
      <point x="481" y="194"/>
      <point x="526" y="108"/>
      <point x="602" y="61"/>
      <point x="648" y="61" type="qcurve" smooth="yes"/>
      <point x="685" y="61"/>
      <point x="747" y="84"/>
      <point x="780" y="106" type="qcurve"/>
      <point x="814" y="42" type="line"/>
      <point x="773" y="16"/>
      <point x="690" y="-13"/>
      <point x="638" y="-13" type="qcurve" smooth="yes"/>
      <point x="523" y="-13"/>
      <point x="446" y="89" type="qcurve"/>
      <point x="392" y="39"/>
      <point x="278" y="-13"/>
      <point x="225" y="-13" type="qcurve" smooth="yes"/>
      <point x="155" y="-13"/>
    </contour>
    <contour>
      <point x="379" y="105"/>
      <point x="415" y="144" type="qcurve"/>
      <point x="405" y="165"/>
      <point x="395" y="224"/>
      <point x="395" y="255" type="qcurve" smooth="yes"/>
      <point x="394" y="283" type="line"/>
      <point x="267" y="268"/>
      <point x="155" y="202"/>
      <point x="155" y="147" type="qcurve" smooth="yes"/>
      <point x="155" y="103"/>
      <point x="207" y="61"/>
      <point x="251" y="61" type="qcurve" smooth="yes"/>
      <point x="290" y="61"/>
    </contour>
    <contour>
      <point x="688" y="484"/>
      <point x="625" y="484" type="qcurve" smooth="yes"/>
      <point x="569" y="484"/>
      <point x="486" y="388"/>
      <point x="479" y="310" type="qcurve"/>
      <point x="755" y="310" type="line"/>
      <point x="755" y="394"/>
    </contour>
  </outline>
</glyph>
<glyph name="ccedilla" format="2">
  <advance width="510" height="510"/>
  <unicode hex="00E7"/>
  <outline>
    <contour>
      <point x="314" y="-177"/>
      <point x="314" y="-152" type="qcurve" smooth="yes"/>
      <point x="314" y="-131"/>
      <point x="275" y="-105"/>
      <point x="228" y="-98" type="qcurve"/>
      <point x="270" y="-11" type="line"/>
      <point x="206" y="-2"/>
      <point x="108" y="70"/>
      <point x="52" y="191"/>
      <point x="52" y="271" type="qcurve" smooth="yes"/>
      <point x="52" y="359"/>
      <point x="123" y="488"/>
      <point x="242" y="557"/>
      <point x="313" y="557" type="qcurve" smooth="yes"/>
      <point x="362" y="557"/>
      <point x="438" y="522"/>
      <point x="471" y="493" type="qcurve"/>
      <point x="425" y="433" type="line"/>
      <point x="373" y="480"/>
      <point x="317" y="480" type="qcurve" smooth="yes"/>
      <point x="268" y="480"/>
      <point x="190" y="428"/>
      <point x="146" y="332"/>
      <point x="146" y="271" type="qcurve" smooth="yes"/>
      <point x="146" y="209"/>
      <point x="188" y="115"/>
      <point x="264" y="63"/>
      <point x="314" y="63" type="qcurve" smooth="yes"/>
      <point x="381" y="63"/>
      <point x="442" y="117" type="qcurve"/>
      <point x="482" y="55" type="line"/>
      <point x="415" y="-3"/>
      <point x="329" y="-12" type="qcurve"/>
      <point x="303" y="-71" type="line"/>
      <point x="344" y="-81"/>
      <point x="384" y="-118"/>
      <point x="384" y="-150" type="qcurve" smooth="yes"/>
      <point x="384" y="-244"/>
      <point x="201" y="-253" type="qcurve"/>
      <point x="192" y="-207" type="line"/>
      <point x="261" y="-203"/>
    </contour>
  </outline>
</glyph>
<glyph name="eacute" format="2">
  <advance width="554" height="554"/>
  <unicode hex="00E9"/>
  <outline>
    <contour>
      <point x="121" y="55"/>
      <point x="52" y="184"/>
      <point x="52" y="271" type="qcurve" smooth="yes"/>
      <point x="52" y="356"/>
      <point x="120" y="487"/>
      <point x="232" y="557"/>
      <point x="295" y="557" type="qcurve" smooth="yes"/>
      <point x="398" y="557"/>
      <point x="512" y="420"/>
      <point x="512" y="302" type="qcurve" smooth="yes"/>
      <point x="512" y="278"/>
      <point x="508" y="250" type="qcurve"/>
      <point x="142" y="250" type="line"/>
      <point x="146" y="163"/>
      <point x="245" y="60"/>
      <point x="322" y="60" type="qcurve" smooth="yes"/>
      <point x="360" y="60"/>
      <point x="426" y="82"/>
      <point x="458" y="103" type="qcurve"/>
      <point x="490" y="42" type="line"/>
      <point x="407" y="-13"/>
      <point x="312" y="-13" type="qcurve" smooth="yes"/>
      <point x="239" y="-13"/>
    </contour>
    <contour>
      <point x="361" y="484"/>
      <point x="297" y="484" type="qcurve" smooth="yes"/>
      <point x="237" y="484"/>
      <point x="149" y="394"/>
      <point x="141" y="315" type="qcurve"/>
      <point x="432" y="315" type="line"/>
      <point x="432" y="397"/>
    </contour>
    <contour>
      <point x="390" y="872" type="line"/>
      <point x="453" y="812" type="line"/>
      <point x="279" y="640" type="line"/>
      <point x="232" y="686" type="line"/>
    </contour>
  </outline>
</glyph>
<glyph name="idieresis" format="2">
  <advance width="275" height="275"/>
  <unicode hex="00EF"/>
  <outline>
    <contour>
      <point x="184" y="543" type="line"/>
      <point x="184" y="0" type="line"/>
      <point x="92" y="0" type="line"/>
      <point x="92" y="543" type="line"/>
    </contour>
    <contour>
      <point x="-25" y="689"/>
      <point x="-25" y="712" type="qcurve" smooth="yes"/>
      <point x="-25" y="735"/>
      <point x="7" y="767"/>
      <point x="31" y="767" type="qcurve" smooth="yes"/>
      <point x="55" y="767"/>
      <point x="86" y="735"/>
      <point x="86" y="712" type="qcurve" smooth="yes"/>
      <point x="86" y="689"/>
      <point x="55" y="657"/>
      <point x="31" y="657" type="qcurve" smooth="yes"/>
      <point x="7" y="657"/>
    </contour>
    <contour>
      <point x="190" y="689"/>
      <point x="190" y="712" type="qcurve" smooth="yes"/>
      <point x="190" y="735"/>
      <point x="222" y="767"/>
      <point x="246" y="767" type="qcurve" smooth="yes"/>
      <point x="270" y="767"/>
      <point x="301" y="735"/>
      <point x="301" y="712" type="qcurve" smooth="yes"/>
      <point x="301" y="689"/>
      <point x="270" y="657"/>
      <point x="246" y="657" type="qcurve" smooth="yes"/>
      <point x="222" y="657"/>
    </contour>
  </outline>
</glyph>
<glyph name="eth" format="2">
  <advance width="608" height="608"/>
  <unicode hex="00F0"/>
  <outline>
    <contour>
      <point x="345" y="428"/>
      <point x="303" y="428" type="qcurve" smooth="yes"/>
      <point x="229" y="428"/>
      <point x="146" y="328"/>
      <point x="146" y="249" type="qcurve" smooth="yes"/>
      <point x="146" y="194"/>
      <point x="188" y="109"/>
      <point x="260" y="63"/>
      <point x="303" y="63" type="qcurve" smooth="yes"/>
      <point x="376" y="63"/>
      <point x="453" y="182"/>
      <point x="453" y="283" type="qcurve" smooth="yes"/>
      <point x="453" y="317"/>
      <point x="450" y="347" type="qcurve"/>
      <point x="416" y="392"/>
    </contour>
    <contour>
      <point x="153" y="758" type="qcurve"/>
      <point x="194" y="816" type="line"/>
      <point x="286" y="767"/>
      <point x="349" y="714" type="qcurve"/>
      <point x="507" y="796" type="line"/>
      <point x="534" y="750" type="line"/>
      <point x="390" y="676" type="line"/>
      <point x="541" y="523"/>
      <point x="541" y="288" type="qcurve" smooth="yes"/>
      <point x="541" y="199"/>
      <point x="481" y="62"/>
      <point x="372" y="-13"/>
      <point x="300" y="-13" type="qcurve" smooth="yes"/>
      <point x="236" y="-13"/>
      <point x="126" y="51"/>
      <point x="60" y="170"/>
      <point x="60" y="249" type="qcurve" smooth="yes"/>
      <point x="60" y="323"/>
      <point x="120" y="437"/>
      <point x="225" y="499"/>
      <point x="290" y="499" type="qcurve" smooth="yes"/>
      <point x="334" y="499"/>
      <point x="410" y="463"/>
      <point x="438" y="427" type="qcurve"/>
      <point x="411" y="551"/>
      <point x="320" y="640" type="qcurve"/>
      <point x="162" y="559" type="line"/>
      <point x="136" y="604" type="line"/>
      <point x="277" y="677" type="line"/>
      <point x="230" y="715"/>
    </contour>
  </outline>
</glyph>
<glyph name="ntilde" format="2">
  <advance width="610" height="610"/>
  <unicode hex="00F1"/>
  <outline>
    <contour>
      <point x="167" y="543" type="line"/>
      <point x="176" y="464" type="line"/>
      <point x="178" y="464" type="line"/>
      <point x="221" y="508"/>
      <point x="309" y="557"/>
      <point x="360" y="557" type="qcurve" smooth="yes"/>
      <point x="526" y="557"/>
      <point x="526" y="344" type="qcurve" smooth="yes"/>
      <point x="526" y="0" type="line"/>
      <point x="435" y="0" type="line"/>
      <point x="435" y="332" type="line" smooth="yes"/>
      <point x="435" y="408"/>
      <point x="386" y="477"/>
      <point x="332" y="477" type="qcurve" smooth="yes"/>
      <point x="292" y="477"/>
      <point x="228" y="438"/>
      <point x="184" y="394" type="qcurve"/>
      <point x="184" y="0" type="line"/>
      <point x="92" y="0" type="line"/>
      <point x="92" y="543" type="line"/>
    </contour>
    <contour>
      <point x="340" y="672"/>
      <point x="312" y="699" type="qcurve" smooth="yes"/>
      <point x="292" y="720"/>
      <point x="264" y="739"/>
      <point x="249" y="739" type="qcurve" smooth="yes"/>
      <point x="225" y="739"/>
      <point x="200" y="692"/>
      <point x="198" y="650" type="qcurve"/>
      <point x="136" y="654" type="line"/>
      <point x="138" y="724"/>
      <point x="193" y="805"/>
      <point x="249" y="805" type="qcurve" smooth="yes"/>
      <point x="277" y="805"/>
      <point x="319" y="778"/>
      <point x="346" y="752" type="qcurve" smooth="yes"/>
      <point x="367" y="732"/>
      <point x="394" y="712"/>
      <point x="410" y="712" type="qcurve" smooth="yes"/>
      <point x="434" y="712"/>
      <point x="459" y="758"/>
      <point x="461" y="799" type="qcurve"/>
      <point x="523" y="796" type="line"/>
      <point x="520" y="727"/>
      <point x="465" y="645"/>
      <point x="410" y="645" type="qcurve" smooth="yes"/>
      <point x="381" y="645"/>
    </contour>
  </outline>
</glyph>
<glyph name="otilde" format="2">
  <advance width="606" height="606"/>
  <unicode hex="00F5"/>
  <outline>
    <contour>
      <point x="121" y="55"/>
      <point x="52" y="184"/>
      <point x="52" y="271" type="qcurve" smooth="yes"/>
      <point x="52" y="358"/>
      <point x="121" y="488"/>
      <point x="235" y="557"/>
      <point x="303" y="557" type="qcurve" smooth="yes"/>
      <point x="371" y="557"/>
      <point x="485" y="488"/>
      <point x="554" y="358"/>
      <point x="554" y="271" type="qcurve" smooth="yes"/>
      <point x="554" y="184"/>
      <point x="485" y="55"/>
      <point x="371" y="-13"/>
      <point x="303" y="-13" type="qcurve" smooth="yes"/>
      <point x="235" y="-13"/>
    </contour>
    <contour>
      <point x="421" y="115"/>
      <point x="461" y="209"/>
      <point x="461" y="271" type="qcurve" smooth="yes"/>
      <point x="461" y="333"/>
      <point x="421" y="428"/>
      <point x="350" y="480"/>
      <point x="303" y="480" type="qcurve" smooth="yes"/>
      <point x="256" y="480"/>
      <point x="185" y="428"/>
      <point x="146" y="333"/>
      <point x="146" y="271" type="qcurve" smooth="yes"/>
      <point x="146" y="177"/>
      <point x="232" y="63"/>
      <point x="303" y="63" type="qcurve" smooth="yes"/>
      <point x="350" y="63"/>
    </contour>
    <contour>
      <point x="314" y="672"/>
      <point x="286" y="699" type="qcurve" smooth="yes"/>
      <point x="266" y="720"/>
      <point x="238" y="739"/>
      <point x="223" y="739" type="qcurve" smooth="yes"/>
      <point x="176" y="739"/>
      <point x="171" y="650" type="qcurve"/>
      <point x="110" y="654" type="line"/>
      <point x="113" y="724"/>
      <point x="167" y="805"/>
      <point x="223" y="805" type="qcurve" smooth="yes"/>
      <point x="251" y="805"/>
      <point x="293" y="778"/>
      <point x="320" y="752" type="qcurve" smooth="yes"/>
      <point x="341" y="732"/>
      <point x="368" y="712"/>
      <point x="384" y="712" type="qcurve" smooth="yes"/>
      <point x="407" y="712"/>
      <point x="433" y="759"/>
      <point x="435" y="799" type="qcurve"/>
      <point x="497" y="796" type="line"/>
      <point x="493" y="727"/>
      <point x="439" y="645"/>
      <point x="384" y="645" type="qcurve" smooth="yes"/>
      <point x="355" y="645"/>
    </contour>
  </outline>
</glyph>
<glyph name="odieresis" format="2">
  <advance width="606" height="606"/>
  <unicode hex="00F6"/>
  <outline>
    <contour>
      <point x="121" y="55"/>
      <point x="52" y="184"/>
      <point x="52" y="271" type="qcurve" smooth="yes"/>
      <point x="52" y="358"/>
      <point x="121" y="488"/>
      <point x="235" y="557"/>
      <point x="303" y="557" type="qcurve" smooth="yes"/>
      <point x="371" y="557"/>
      <point x="485" y="488"/>
      <point x="554" y="358"/>
      <point x="554" y="271" type="qcurve" smooth="yes"/>
      <point x="554" y="184"/>
      <point x="485" y="55"/>
      <point x="371" y="-13"/>
      <point x="303" y="-13" type="qcurve" smooth="yes"/>
      <point x="235" y="-13"/>
    </contour>
    <contour>
      <point x="421" y="115"/>
      <point x="461" y="209"/>
      <point x="461" y="271" type="qcurve" smooth="yes"/>
      <point x="461" y="333"/>
      <point x="421" y="428"/>
      <point x="350" y="480"/>
      <point x="303" y="480" type="qcurve" smooth="yes"/>
      <point x="256" y="480"/>
      <point x="185" y="428"/>
      <point x="146" y="333"/>
      <point x="146" y="271" type="qcurve" smooth="yes"/>
      <point x="146" y="177"/>
      <point x="232" y="63"/>
      <point x="303" y="63" type="qcurve" smooth="yes"/>
      <point x="350" y="63"/>
    </contour>
    <contour>
      <point x="141" y="688"/>
      <point x="141" y="712" type="qcurve" smooth="yes"/>
      <point x="141" y="736"/>
      <point x="172" y="767"/>
      <point x="196" y="767" type="qcurve" smooth="yes"/>
      <point x="219" y="767"/>
      <point x="251" y="735"/>
      <point x="251" y="712" type="qcurve" smooth="yes"/>
      <point x="251" y="689"/>
      <point x="219" y="657"/>
      <point x="196" y="657" type="qcurve" smooth="yes"/>
      <point x="172" y="657"/>
    </contour>
    <contour>
      <point x="355" y="689"/>
      <point x="355" y="712" type="qcurve" smooth="yes"/>
      <point x="355" y="735"/>
      <point x="386" y="767"/>
      <point x="410" y="767" type="qcurve" smooth="yes"/>
      <point x="434" y="767"/>
      <point x="465" y="735"/>
      <point x="465" y="712" type="qcurve" smooth="yes"/>
      <point x="465" y="689"/>
      <point x="434" y="657"/>
      <point x="410" y="657" type="qcurve" smooth="yes"/>
      <point x="386" y="657"/>
    </contour>
  </outline>
</glyph>
<glyph name="divide" format="2">
  <advance width="1000" height="1000"/>
  <unicode hex="00F7"/>
  <outline>
    <contour>
      <point x="572" y="660"/>
      <point x="572" y="630" type="qcurve" smooth="yes"/>
      <point x="572" y="601"/>
      <point x="530" y="558"/>
      <point x="500" y="558" type="qcurve" smooth="yes"/>
      <point x="470" y="558"/>
      <point x="428" y="601"/>
      <point x="428" y="630" type="qcurve" smooth="yes"/>
      <point x="428" y="660"/>
      <point x="470" y="703"/>
      <point x="500" y="703" type="qcurve" smooth="yes"/>
      <point x="530" y="703"/>
    </contour>
    <contour>
      <point x="137" y="341" type="line"/>
      <point x="137" y="410" type="line"/>
      <point x="863" y="410" type="line"/>
      <point x="863" y="341" type="line"/>
    </contour>
    <contour>
      <point x="572" y="150"/>
      <point x="572" y="121" type="qcurve" smooth="yes"/>
      <point x="572" y="91"/>
      <point x="530" y="48"/>
      <point x="500" y="48" type="qcurve" smooth="yes"/>
      <point x="470" y="48"/>
      <point x="428" y="91"/>
      <point x="428" y="121" type="qcurve" smooth="yes"/>
      <point x="428" y="150"/>
      <point x="470" y="193"/>
      <point x="500" y="193" type="qcurve" smooth="yes"/>
      <point x="530" y="193"/>
    </contour>
  </outline>
</glyph>
<glyph name="oslash" format="2">
  <advance width="606" height="606"/>
  <unicode hex="00F8"/>
  <outline>
    <contour>
      <point x="52" y="271" type="qcurve" smooth="yes"/>
      <point x="52" y="358"/>
      <point x="121" y="488"/>
      <point x="235" y="557"/>
      <point x="303" y="557" type="qcurve" smooth="yes"/>
      <point x="346" y="557"/>
      <point x="426" y="528"/>
      <point x="458" y="501" type="qcurve"/>
      <point x="514" y="569" type="line"/>
      <point x="555" y="536" type="line"/>
      <point x="495" y="463" type="line"/>
      <point x="554" y="384"/>
      <point x="554" y="271" type="qcurve" smooth="yes"/>
      <point x="554" y="184"/>
      <point x="485" y="55"/>
      <point x="371" y="-13"/>
      <point x="303" y="-13" type="qcurve" smooth="yes"/>
      <point x="215" y="-13"/>
      <point x="148" y="42" type="qcurve"/>
      <point x="92" y="-26" type="line"/>
      <point x="52" y="6" type="line"/>
      <point x="112" y="79" type="line"/>
      <point x="52" y="157"/>
    </contour>
    <contour>
      <point x="423" y="113"/>
      <point x="465" y="206"/>
      <point x="465" y="267" type="qcurve" smooth="yes"/>
      <point x="465" y="343"/>
      <point x="439" y="395" type="qcurve"/>
      <point x="199" y="104" type="line"/>
      <point x="240" y="61"/>
      <point x="303" y="61" type="qcurve" smooth="yes"/>
      <point x="350" y="61"/>
    </contour>
    <contour>
      <point x="303" y="483" type="qcurve" smooth="yes"/>
      <point x="256" y="483"/>
      <point x="183" y="430"/>
      <point x="142" y="336"/>
      <point x="142" y="275" type="qcurve" smooth="yes"/>
      <point x="142" y="198"/>
      <point x="168" y="148" type="qcurve"/>
      <point x="408" y="439" type="line"/>
      <point x="366" y="483"/>
    </contour>
  </outline>
</glyph>
<glyph name="ucircumflex" format="2">
  <advance width="607" height="607"/>
  <unicode hex="00FB"/>
  <outline>
    <contour>
      <point x="84" y="93"/>
      <point x="84" y="199" type="qcurve" smooth="yes"/>
      <point x="84" y="543" type="line"/>
      <point x="176" y="543" type="line"/>
      <point x="176" y="210" type="line" smooth="yes"/>
      <point x="176" y="134"/>
      <point x="224" y="66"/>
      <point x="278" y="66" type="qcurve" smooth="yes"/>
      <point x="319" y="66"/>
      <point x="385" y="109"/>
      <point x="425" y="158" type="qcurve"/>
      <point x="425" y="543" type="line"/>
      <point x="516" y="543" type="line"/>
      <point x="516" y="0" type="line"/>
      <point x="440" y="0" type="line"/>
      <point x="433" y="85" type="line"/>
      <point x="430" y="85" type="line"/>
      <point x="389" y="37"/>
      <point x="303" y="-13"/>
      <point x="251" y="-13" type="qcurve" smooth="yes"/>
      <point x="166" y="-13"/>
    </contour>
    <contour>
      <point x="348" y="827" type="line"/>
      <point x="476" y="671" type="line"/>
      <point x="436" y="635" type="line"/>
      <point x="305" y="761" type="line"/>
      <point x="301" y="761" type="line"/>
      <point x="169" y="635" type="line"/>
      <point x="130" y="671" type="line"/>
      <point x="257" y="827" type="line"/>
    </contour>
  </outline>
</glyph>
<glyph name="udieresis" format="2">
  <advance width="607" height="607"/>
  <unicode hex="00FC"/>
  <outline>
    <contour>
      <point x="84" y="93"/>
      <point x="84" y="199" type="qcurve" smooth="yes"/>
      <point x="84" y="543" type="line"/>
      <point x="176" y="543" type="line"/>
      <point x="176" y="210" type="line" smooth="yes"/>
      <point x="176" y="134"/>
      <point x="224" y="66"/>
      <point x="278" y="66" type="qcurve" smooth="yes"/>
      <point x="319" y="66"/>
      <point x="385" y="109"/>
      <point x="425" y="158" type="qcurve"/>
      <point x="425" y="543" type="line"/>
      <point x="516" y="543" type="line"/>
      <point x="516" y="0" type="line"/>
      <point x="440" y="0" type="line"/>
      <point x="433" y="85" type="line"/>
      <point x="430" y="85" type="line"/>
      <point x="389" y="37"/>
      <point x="303" y="-13"/>
      <point x="251" y="-13" type="qcurve" smooth="yes"/>
      <point x="166" y="-13"/>
    </contour>
    <contour>
      <point x="140" y="689"/>
      <point x="140" y="712" type="qcurve" smooth="yes"/>
      <point x="140" y="735"/>
      <point x="172" y="767"/>
      <point x="195" y="767" type="qcurve" smooth="yes"/>
      <point x="219" y="767"/>
      <point x="251" y="735"/>
      <point x="251" y="712" type="qcurve" smooth="yes"/>
      <point x="251" y="689"/>
      <point x="219" y="657"/>
      <point x="195" y="657" type="qcurve" smooth="yes"/>
      <point x="172" y="657"/>
    </contour>
    <contour>
      <point x="355" y="689"/>
      <point x="355" y="712" type="qcurve" smooth="yes"/>
      <point x="355" y="735"/>
      <point x="387" y="767"/>
      <point x="410" y="767" type="qcurve" smooth="yes"/>
      <point x="434" y="767"/>
      <point x="466" y="735"/>
      <point x="466" y="712" type="qcurve" smooth="yes"/>
      <point x="466" y="689"/>
      <point x="434" y="657"/>
      <point x="410" y="657" type="qcurve" smooth="yes"/>
      <point x="387" y="657"/>
    </contour>
  </outline>
</glyph>
<glyph name="yacute" format="2">
  <advance width="521" height="521"/>
  <unicode hex="00FD"/>
  <outline>
    <contour>
      <point x="37" y="-223" type="qcurve"/>
      <point x="55" y="-150" type="line"/>
      <point x="80" y="-159"/>
      <point x="97" y="-159" type="qcurve" smooth="yes"/>
      <point x="179" y="-159"/>
      <point x="219" y="-42" type="qcurve"/>
      <point x="231" y="-1" type="line"/>
      <point x="13" y="543" type="line"/>
      <point x="108" y="543" type="line"/>
      <point x="218" y="242" type="line"/>
      <point x="237" y="186" type="line"/>
      <point x="272" y="88" type="line"/>
      <point x="277" y="88" type="line"/>
      <point x="321" y="242" type="line"/>
      <point x="419" y="543" type="line"/>
      <point x="508" y="543" type="line"/>
      <point x="304" y="-46" type="line" smooth="yes"/>
      <point x="272" y="-135"/>
      <point x="177" y="-234"/>
      <point x="101" y="-234" type="qcurve" smooth="yes"/>
      <point x="64" y="-234"/>
    </contour>
    <contour>
      <point x="366" y="872" type="line"/>
      <point x="431" y="812" type="line"/>
      <point x="255" y="640" type="line"/>
      <point x="208" y="686" type="line"/>
    </contour>
  </outline>
</glyph>
<glyph name="thorn" format="2">
  <advance width="620" height="620"/>
  <unicode hex="00FE"/>
  <outline>
    <contour>
      <point x="184" y="796" type="line"/>
      <point x="184" y="580" type="line"/>
      <point x="182" y="486" type="line"/>
      <point x="272" y="557"/>
      <point x="347" y="557" type="qcurve" smooth="yes"/>
      <point x="453" y="557"/>
      <point x="567" y="408"/>
      <point x="567" y="280" type="qcurve" smooth="yes"/>
      <point x="567" y="190"/>
      <point x="502" y="57"/>
      <point x="394" y="-13"/>
      <point x="331" y="-13" type="qcurve" smooth="yes"/>
      <point x="257" y="-13"/>
      <point x="182" y="48" type="qcurve"/>
      <point x="184" y="-45" type="line"/>
      <point x="184" y="-229" type="line"/>
      <point x="92" y="-229" type="line"/>
      <point x="92" y="796" type="line"/>
    </contour>
    <contour>
      <point x="432" y="116"/>
      <point x="472" y="213"/>
      <point x="472" y="279" type="qcurve" smooth="yes"/>
      <point x="472" y="480"/>
      <point x="328" y="480" type="qcurve" smooth="yes"/>
      <point x="264" y="480"/>
      <point x="184" y="406" type="qcurve"/>
      <point x="184" y="120" type="line"/>
      <point x="218" y="91"/>
      <point x="286" y="64"/>
      <point x="316" y="64" type="qcurve" smooth="yes"/>
      <point x="361" y="64"/>
    </contour>
  </outline>
</glyph>
<glyph name="ydieresis" format="2">
  <advance width="521" height="521"/>
  <unicode hex="00FF"/>
  <outline>
    <contour>
      <point x="37" y="-223" type="qcurve"/>
      <point x="55" y="-150" type="line"/>
      <point x="80" y="-159"/>
      <point x="97" y="-159" type="qcurve" smooth="yes"/>
      <point x="179" y="-159"/>
      <point x="219" y="-42" type="qcurve"/>
      <point x="231" y="-1" type="line"/>
      <point x="13" y="543" type="line"/>
      <point x="108" y="543" type="line"/>
      <point x="218" y="242" type="line"/>
      <point x="237" y="186" type="line"/>
      <point x="272" y="88" type="line"/>
      <point x="277" y="88" type="line"/>
      <point x="321" y="242" type="line"/>
      <point x="419" y="543" type="line"/>
      <point x="508" y="543" type="line"/>
      <point x="304" y="-46" type="line" smooth="yes"/>
      <point x="272" y="-135"/>
      <point x="177" y="-234"/>
      <point x="101" y="-234" type="qcurve" smooth="yes"/>
      <point x="64" y="-234"/>
    </contour>
    <contour>
      <point x="109" y="689"/>
      <point x="109" y="712" type="qcurve" smooth="yes"/>
      <point x="109" y="735"/>
      <point x="140" y="767"/>
      <point x="164" y="767" type="qcurve" smooth="yes"/>
      <point x="188" y="767"/>
      <point x="219" y="735"/>
      <point x="219" y="712" type="qcurve" smooth="yes"/>
      <point x="219" y="689"/>
      <point x="188" y="657"/>
      <point x="164" y="657" type="qcurve" smooth="yes"/>
      <point x="140" y="657"/>
    </contour>
    <contour>
      <point x="324" y="689"/>
      <point x="324" y="712" type="qcurve" smooth="yes"/>
      <point x="324" y="735"/>
      <point x="355" y="767"/>
      <point x="379" y="767" type="qcurve" smooth="yes"/>
      <point x="403" y="767"/>
      <point x="434" y="735"/>
      <point x="434" y="712" type="qcurve" smooth="yes"/>
      <point x="434" y="689"/>
      <point x="403" y="657"/>
      <point x="379" y="657" type="qcurve" smooth="yes"/>
      <point x="355" y="657"/>
    </contour>
  </outline>
</glyph>
<glyph name="Abreve" format="2">
  <advance width="608" height="608"/>
  <unicode hex="0102"/>
  <outline>
    <contour>
      <point x="147" y="869"/>
      <point x="140" y="932" type="qcurve"/>
      <point x="195" y="942" type="line"/>
      <point x="202" y="900"/>
      <point x="257" y="847"/>
      <point x="303" y="847" type="qcurve" smooth="yes"/>
      <point x="349" y="847"/>
      <point x="403" y="900"/>
      <point x="410" y="942" type="qcurve"/>
      <point x="465" y="932" type="line"/>
      <point x="459" y="869"/>
      <point x="376" y="788"/>
      <point x="303" y="788" type="qcurve" smooth="yes"/>
      <point x="229" y="788"/>
    </contour>
    <contour>
      <point x="355" y="733" type="line"/>
      <point x="604" y="0" type="line"/>
      <point x="506" y="0" type="line"/>
      <point x="436" y="224" type="line"/>
      <point x="168" y="224" type="line"/>
      <point x="97" y="0" type="line"/>
      <point x="4" y="0" type="line"/>
      <point x="252" y="733" type="line"/>
    </contour>
    <contour>
      <point x="304" y="658" type="qcurve"/>
      <point x="300" y="658" type="line"/>
      <point x="273" y="556"/>
      <point x="227" y="410" type="qcurve" smooth="yes"/>
      <point x="191" y="297" type="line"/>
      <point x="413" y="297" type="line"/>
      <point x="378" y="410" type="line" smooth="yes"/>
      <point x="348" y="503"/>
    </contour>
  </outline>
</glyph>
<glyph name="dcroat" format="2">
  <advance width="620" height="620"/>
  <unicode hex="0111"/>
  <outline>
    <contour>
      <point x="402" y="100"/>
      <point x="436" y="138" type="qcurve"/>
      <point x="436" y="379" type="line"/>
      <point x="403" y="409"/>
      <point x="339" y="436"/>
      <point x="304" y="436" type="qcurve" smooth="yes"/>
      <point x="261" y="436"/>
      <point x="189" y="388"/>
      <point x="147" y="303"/>
      <point x="147" y="250" type="qcurve" smooth="yes"/>
      <point x="147" y="164"/>
      <point x="226" y="64"/>
      <point x="297" y="64" type="qcurve" smooth="yes"/>
      <point x="334" y="64"/>
    </contour>
    <contour>
      <point x="436" y="692" type="line"/>
      <point x="436" y="796" type="line"/>
      <point x="528" y="796" type="line"/>
      <point x="528" y="692" type="line"/>
      <point x="609" y="692" type="line"/>
      <point x="609" y="644" type="line"/>
      <point x="528" y="639" type="line"/>
      <point x="528" y="0" type="line"/>
      <point x="451" y="0" type="line"/>
      <point x="444" y="62" type="line"/>
      <point x="441" y="62" type="line"/>
      <point x="366" y="-13"/>
      <point x="277" y="-13" type="qcurve" smooth="yes"/>
      <point x="174" y="-13"/>
      <point x="53" y="126"/>
      <point x="53" y="249" type="qcurve" smooth="yes"/>
      <point x="53" y="327"/>
      <point x="118" y="447"/>
      <point x="226" y="513"/>
      <point x="288" y="513" type="qcurve" smooth="yes"/>
      <point x="333" y="513"/>
      <point x="401" y="482"/>
      <point x="441" y="450" type="qcurve"/>
      <point x="436" y="543" type="line"/>
      <point x="436" y="639" type="line"/>
      <point x="256" y="639" type="line"/>
      <point x="256" y="692" type="line"/>
    </contour>
  </outline>
</glyph>
<glyph name="ecaron" format="2">
  <advance width="554" height="554"/>
  <unicode hex="011B"/>
  <outline>
    <contour>
      <point x="121" y="55"/>
      <point x="52" y="184"/>
      <point x="52" y="271" type="qcurve" smooth="yes"/>
      <point x="52" y="356"/>
      <point x="120" y="487"/>
      <point x="232" y="557"/>
      <point x="295" y="557" type="qcurve" smooth="yes"/>
      <point x="398" y="557"/>
      <point x="512" y="420"/>
      <point x="512" y="302" type="qcurve" smooth="yes"/>
      <point x="512" y="278"/>
      <point x="508" y="250" type="qcurve"/>
      <point x="142" y="250" type="line"/>
      <point x="146" y="163"/>
      <point x="245" y="60"/>
      <point x="322" y="60" type="qcurve" smooth="yes"/>
      <point x="360" y="60"/>
      <point x="426" y="82"/>
      <point x="458" y="103" type="qcurve"/>
      <point x="490" y="42" type="line"/>
      <point x="407" y="-13"/>
      <point x="312" y="-13" type="qcurve" smooth="yes"/>
      <point x="239" y="-13"/>
    </contour>
    <contour>
      <point x="361" y="484"/>
      <point x="297" y="484" type="qcurve" smooth="yes"/>
      <point x="237" y="484"/>
      <point x="149" y="394"/>
      <point x="141" y="315" type="qcurve"/>
      <point x="432" y="315" type="line"/>
      <point x="432" y="397"/>
    </contour>
    <contour>
      <point x="161" y="833" type="line"/>
      <point x="292" y="707" type="line"/>
      <point x="297" y="707" type="line"/>
      <point x="428" y="833" type="line"/>
      <point x="468" y="797" type="line"/>
      <point x="340" y="642" type="line"/>
      <point x="249" y="642" type="line"/>
      <point x="122" y="797" type="line"/>
    </contour>
  </outline>
</glyph>
<glyph name="Itilde" format="2">
  <advance width="293" height="293"/>
  <unicode hex="0128"/>
  <outline>
    <contour>
      <point x="193" y="733" type="line"/>
      <point x="193" y="0" type="line"/>
      <point x="101" y="0" type="line"/>
      <point x="101" y="733" type="line"/>
    </contour>
    <contour>
      <point x="157" y="816"/>
      <point x="129" y="838" type="qcurve" smooth="yes"/>
      <point x="110" y="855"/>
      <point x="82" y="871"/>
      <point x="66" y="871" type="qcurve" smooth="yes"/>
      <point x="44" y="871"/>
      <point x="14" y="833"/>
      <point x="11" y="798" type="qcurve"/>
      <point x="-50" y="803" type="line"/>
      <point x="-47" y="866"/>
      <point x="14" y="939"/>
      <point x="64" y="939" type="qcurve" smooth="yes"/>
      <point x="95" y="939"/>
      <point x="138" y="916"/>
      <point x="166" y="893" type="qcurve" smooth="yes"/>
      <point x="185" y="876"/>
      <point x="213" y="860"/>
      <point x="229" y="860" type="qcurve" smooth="yes"/>
      <point x="251" y="860"/>
      <point x="279" y="898"/>
      <point x="283" y="934" type="qcurve"/>
      <point x="345" y="930" type="line"/>
      <point x="342" y="866"/>
      <point x="282" y="792"/>
      <point x="232" y="792" type="qcurve" smooth="yes"/>
      <point x="201" y="792"/>
    </contour>
  </outline>
</glyph>
<glyph name="itilde" format="2">
  <advance width="275" height="275"/>
  <unicode hex="0129"/>
  <outline>
    <contour>
      <point x="184" y="543" type="line"/>
      <point x="184" y="0" type="line"/>
      <point x="92" y="0" type="line"/>
      <point x="92" y="543" type="line"/>
    </contour>
    <contour>
      <point x="149" y="672"/>
      <point x="121" y="699" type="qcurve" smooth="yes"/>
      <point x="101" y="720"/>
      <point x="73" y="739"/>
      <point x="58" y="739" type="qcurve" smooth="yes"/>
      <point x="11" y="739"/>
      <point x="6" y="650" type="qcurve"/>
      <point x="-55" y="654" type="line"/>
      <point x="-52" y="724"/>
      <point x="3" y="805"/>
      <point x="59" y="805" type="qcurve" smooth="yes"/>
      <point x="87" y="805"/>
      <point x="128" y="778"/>
      <point x="155" y="752" type="qcurve" smooth="yes"/>
      <point x="176" y="732"/>
      <point x="203" y="712"/>
      <point x="219" y="712" type="qcurve" smooth="yes"/>
      <point x="243" y="712"/>
      <point x="268" y="758"/>
      <point x="270" y="799" type="qcurve"/>
      <point x="331" y="796" type="line"/>
      <point x="329" y="728"/>
      <point x="274" y="645"/>
      <point x="219" y="645" type="qcurve" smooth="yes"/>
      <point x="190" y="645"/>
    </contour>
  </outline>
</glyph>
<glyph name="obreve" format="2">
  <advance width="606" height="606"/>
  <unicode hex="014F"/>
  <outline>
    <contour>
      <point x="121" y="55"/>
      <point x="52" y="184"/>
      <point x="52" y="271" type="qcurve" smooth="yes"/>
      <point x="52" y="358"/>
      <point x="121" y="488"/>
      <point x="235" y="557"/>
      <point x="303" y="557" type="qcurve" smooth="yes"/>
      <point x="371" y="557"/>
      <point x="485" y="488"/>
      <point x="554" y="358"/>
      <point x="554" y="271" type="qcurve" smooth="yes"/>
      <point x="554" y="184"/>
      <point x="485" y="55"/>
      <point x="371" y="-13"/>
      <point x="303" y="-13" type="qcurve" smooth="yes"/>
      <point x="235" y="-13"/>
    </contour>
    <contour>
      <point x="421" y="115"/>
      <point x="461" y="209"/>
      <point x="461" y="271" type="qcurve" smooth="yes"/>
      <point x="461" y="333"/>
      <point x="421" y="428"/>
      <point x="350" y="480"/>
      <point x="303" y="480" type="qcurve" smooth="yes"/>
      <point x="256" y="480"/>
      <point x="185" y="428"/>
      <point x="146" y="333"/>
      <point x="146" y="271" type="qcurve" smooth="yes"/>
      <point x="146" y="177"/>
      <point x="232" y="63"/>
      <point x="303" y="63" type="qcurve" smooth="yes"/>
      <point x="350" y="63"/>
    </contour>
    <contour>
      <point x="134" y="736"/>
      <point x="128" y="807" type="qcurve"/>
      <point x="186" y="816" type="line"/>
      <point x="193" y="767"/>
      <point x="252" y="700"/>
      <point x="303" y="700" type="qcurve" smooth="yes"/>
      <point x="354" y="700"/>
      <point x="413" y="767"/>
      <point x="421" y="816" type="qcurve"/>
      <point x="477" y="807" type="line"/>
      <point x="472" y="736"/>
      <point x="386" y="638"/>
      <point x="303" y="638" type="qcurve" smooth="yes"/>
      <point x="220" y="638"/>
    </contour>
  </outline>
</glyph>
<glyph name="OE" format="2">
  <advance width="947" height="947"/>
  <unicode hex="0152"/>
  <outline>
    <contour>
      <point x="142" y="88"/>
      <point x="58" y="254"/>
      <point x="58" y="369" type="qcurve" smooth="yes"/>
      <point x="58" y="544"/>
      <point x="246" y="733"/>
      <point x="417" y="733" type="qcurve" smooth="yes"/>
      <point x="880" y="733" type="line"/>
      <point x="880" y="655" type="line"/>
      <point x="570" y="655" type="line"/>
      <point x="570" y="425" type="line"/>
      <point x="829" y="425" type="line"/>
      <point x="829" y="346" type="line"/>
      <point x="570" y="346" type="line"/>
      <point x="570" y="79" type="line"/>
      <point x="891" y="79" type="line"/>
      <point x="891" y="0" type="line"/>
      <point x="412" y="0" type="line" smooth="yes"/>
      <point x="302" y="0"/>
    </contour>
    <contour>
      <point x="478" y="658" type="line"/>
      <point x="423" y="658" type="line" smooth="yes"/>
      <point x="291" y="658"/>
      <point x="153" y="510"/>
      <point x="153" y="369" type="qcurve" smooth="yes"/>
      <point x="153" y="228"/>
      <point x="291" y="76"/>
      <point x="423" y="76" type="qcurve" smooth="yes"/>
      <point x="478" y="76" type="line"/>
    </contour>
  </outline>
</glyph>
<glyph name="oe" format="2">
  <advance width="937" height="937"/>
  <unicode hex="0153"/>
  <outline>
    <contour>
      <point x="118" y="55"/>
      <point x="52" y="184"/>
      <point x="52" y="271" type="qcurve" smooth="yes"/>
      <point x="52" y="359"/>
      <point x="118" y="488"/>
      <point x="230" y="557"/>
      <point x="297" y="557" type="qcurve" smooth="yes"/>
      <point x="360" y="557"/>
      <point x="465" y="486"/>
      <point x="495" y="420" type="qcurve"/>
      <point x="526" y="484"/>
      <point x="627" y="557"/>
      <point x="686" y="557" type="qcurve" smooth="yes"/>
      <point x="785" y="557"/>
      <point x="896" y="418"/>
      <point x="896" y="300" type="qcurve" smooth="yes"/>
      <point x="896" y="273"/>
      <point x="891" y="250" type="qcurve"/>
      <point x="536" y="250" type="line"/>
      <point x="538" y="194"/>
      <point x="584" y="108"/>
      <point x="661" y="61"/>
      <point x="707" y="61" type="qcurve" smooth="yes"/>
      <point x="744" y="61"/>
      <point x="808" y="84"/>
      <point x="841" y="106" type="qcurve"/>
      <point x="874" y="42" type="line"/>
      <point x="791" y="-13"/>
      <point x="695" y="-13" type="qcurve" smooth="yes"/>
      <point x="632" y="-13"/>
      <point x="527" y="59"/>
      <point x="495" y="122" type="qcurve"/>
      <point x="463" y="55"/>
      <point x="362" y="-13"/>
      <point x="295" y="-13" type="qcurve" smooth="yes"/>
      <point x="229" y="-13"/>
    </contour>
    <contour>
      <point x="411" y="115"/>
      <point x="450" y="209"/>
      <point x="450" y="271" type="qcurve" smooth="yes"/>
      <point x="450" y="333"/>
      <point x="411" y="428"/>
      <point x="342" y="480"/>
      <point x="297" y="480" type="qcurve" smooth="yes"/>
      <point x="252" y="480"/>
      <point x="183" y="428"/>
      <point x="145" y="333"/>
      <point x="145" y="271" type="qcurve" smooth="yes"/>
      <point x="145" y="209"/>
      <point x="183" y="115"/>
      <point x="252" y="63"/>
      <point x="297" y="63" type="qcurve" smooth="yes"/>
      <point x="342" y="63"/>
    </contour>
    <contour>
      <point x="746" y="484"/>
      <point x="683" y="484" type="qcurve" smooth="yes"/>
      <point x="626" y="484"/>
      <point x="543" y="388"/>
      <point x="536" y="310" type="qcurve"/>
      <point x="815" y="310" type="line"/>
      <point x="815" y="394"/>
    </contour>
  </outline>
</glyph>
<glyph name="Utilde" format="2">
  <advance width="721" height="721"/>
  <unicode hex="0168"/>
  <outline>
    <contour>
      <point x="98" y="135"/>
      <point x="98" y="302" type="qcurve" smooth="yes"/>
      <point x="98" y="733" type="line"/>
      <point x="190" y="733" type="line"/>
      <point x="190" y="300" type="line" smooth="yes"/>
      <point x="190" y="68"/>
      <point x="361" y="68" type="qcurve" smooth="yes"/>
      <point x="441" y="68"/>
      <point x="535" y="176"/>
      <point x="535" y="300" type="qcurve" smooth="yes"/>
      <point x="535" y="733" type="line"/>
      <point x="624" y="733" type="line"/>
      <point x="624" y="302" type="line" smooth="yes"/>
      <point x="624" y="136"/>
      <point x="482" y="-13"/>
      <point x="361" y="-13" type="qcurve" smooth="yes"/>
      <point x="239" y="-13"/>
    </contour>
    <contour>
      <point x="368" y="816"/>
      <point x="340" y="839" type="qcurve" smooth="yes"/>
      <point x="321" y="855"/>
      <point x="294" y="871"/>
      <point x="279" y="871" type="qcurve" smooth="yes"/>
      <point x="257" y="871"/>
      <point x="227" y="833"/>
      <point x="224" y="798" type="qcurve"/>
      <point x="162" y="803" type="line"/>
      <point x="166" y="866"/>
      <point x="226" y="939"/>
      <point x="276" y="939" type="qcurve" smooth="yes"/>
      <point x="307" y="939"/>
      <point x="352" y="915"/>
      <point x="379" y="892" type="qcurve" smooth="yes"/>
      <point x="400" y="875"/>
      <point x="426" y="860"/>
      <point x="441" y="860" type="qcurve" smooth="yes"/>
      <point x="462" y="860"/>
      <point x="492" y="898"/>
      <point x="496" y="934" type="qcurve"/>
      <point x="557" y="930" type="line"/>
      <point x="554" y="866"/>
      <point x="494" y="792"/>
      <point x="444" y="792" type="qcurve" smooth="yes"/>
      <point x="413" y="792"/>
    </contour>
  </outline>
</glyph>
<glyph name="utilde" format="2">
  <advance width="607" height="607"/>
  <unicode hex="0169"/>
  <outline>
    <contour>
      <point x="84" y="93"/>
      <point x="84" y="199" type="qcurve" smooth="yes"/>
      <point x="84" y="543" type="line"/>
      <point x="176" y="543" type="line"/>
      <point x="176" y="210" type="line" smooth="yes"/>
      <point x="176" y="134"/>
      <point x="224" y="66"/>
      <point x="278" y="66" type="qcurve" smooth="yes"/>
      <point x="319" y="66"/>
      <point x="385" y="109"/>
      <point x="425" y="158" type="qcurve"/>
      <point x="425" y="543" type="line"/>
      <point x="516" y="543" type="line"/>
      <point x="516" y="0" type="line"/>
      <point x="440" y="0" type="line"/>
      <point x="433" y="85" type="line"/>
      <point x="430" y="85" type="line"/>
      <point x="389" y="37"/>
      <point x="303" y="-13"/>
      <point x="251" y="-13" type="qcurve" smooth="yes"/>
      <point x="166" y="-13"/>
    </contour>
    <contour>
      <point x="312" y="673"/>
      <point x="285" y="700" type="qcurve" smooth="yes"/>
      <point x="263" y="721"/>
      <point x="238" y="739"/>
      <point x="223" y="739" type="qcurve" smooth="yes"/>
      <point x="176" y="739"/>
      <point x="171" y="650" type="qcurve"/>
      <point x="109" y="654" type="line"/>
      <point x="111" y="723"/>
      <point x="167" y="805"/>
      <point x="222" y="805" type="qcurve" smooth="yes"/>
      <point x="251" y="805"/>
      <point x="294" y="778"/>
      <point x="320" y="751" type="qcurve" smooth="yes"/>
      <point x="341" y="731"/>
      <point x="368" y="712"/>
      <point x="383" y="712" type="qcurve" smooth="yes"/>
      <point x="428" y="712"/>
      <point x="435" y="799" type="qcurve"/>
      <point x="496" y="796" type="line"/>
      <point x="494" y="728"/>
      <point x="439" y="645"/>
      <point x="384" y="645" type="qcurve" smooth="yes"/>
      <point x="355" y="645"/>
    </contour>
  </outline>
</glyph>
<glyph name="Ubreve" format="2">
  <advance width="721" height="721"/>
  <unicode hex="016C"/>
  <outline>
    <contour>
      <point x="98" y="135"/>
      <point x="98" y="302" type="qcurve" smooth="yes"/>
      <point x="98" y="733" type="line"/>
      <point x="190" y="733" type="line"/>
      <point x="190" y="300" type="line" smooth="yes"/>
      <point x="190" y="68"/>
      <point x="361" y="68" type="qcurve" smooth="yes"/>
      <point x="441" y="68"/>
      <point x="535" y="176"/>
      <point x="535" y="300" type="qcurve" smooth="yes"/>
      <point x="535" y="733" type="line"/>
      <point x="624" y="733" type="line"/>
      <point x="624" y="302" type="line" smooth="yes"/>
      <point x="624" y="136"/>
      <point x="482" y="-13"/>
      <point x="361" y="-13" type="qcurve" smooth="yes"/>
      <point x="239" y="-13"/>
    </contour>
    <contour>
      <point x="204" y="869"/>
      <point x="197" y="932" type="qcurve"/>
      <point x="253" y="942" type="line"/>
      <point x="260" y="900"/>
      <point x="314" y="847"/>
      <point x="360" y="847" type="qcurve" smooth="yes"/>
      <point x="405" y="847"/>
      <point x="460" y="900"/>
      <point x="467" y="942" type="qcurve"/>
      <point x="523" y="932" type="line"/>
      <point x="516" y="869"/>
      <point x="433" y="788"/>
      <point x="360" y="788" type="qcurve" smooth="yes"/>
      <point x="287" y="788"/>
    </contour>
  </outline>
</glyph>
<glyph name="ubreve" format="2">
  <advance width="607" height="607"/>
  <unicode hex="016D"/>
  <outline>
    <contour>
      <point x="84" y="93"/>
      <point x="84" y="199" type="qcurve" smooth="yes"/>
      <point x="84" y="543" type="line"/>
      <point x="176" y="543" type="line"/>
      <point x="176" y="210" type="line" smooth="yes"/>
      <point x="176" y="134"/>
      <point x="224" y="66"/>
      <point x="278" y="66" type="qcurve" smooth="yes"/>
      <point x="319" y="66"/>
      <point x="385" y="109"/>
      <point x="425" y="158" type="qcurve"/>
      <point x="425" y="543" type="line"/>
      <point x="516" y="543" type="line"/>
      <point x="516" y="0" type="line"/>
      <point x="440" y="0" type="line"/>
      <point x="433" y="85" type="line"/>
      <point x="430" y="85" type="line"/>
      <point x="389" y="37"/>
      <point x="303" y="-13"/>
      <point x="251" y="-13" type="qcurve" smooth="yes"/>
      <point x="166" y="-13"/>
    </contour>
    <contour>
      <point x="134" y="736"/>
      <point x="128" y="807" type="qcurve"/>
      <point x="185" y="816" type="line"/>
      <point x="193" y="767"/>
      <point x="252" y="700"/>
      <point x="303" y="700" type="qcurve" smooth="yes"/>
      <point x="354" y="700"/>
      <point x="412" y="767"/>
      <point x="420" y="816" type="qcurve"/>
      <point x="478" y="807" type="line"/>
      <point x="472" y="736"/>
      <point x="386" y="638"/>
      <point x="303" y="638" type="qcurve" smooth="yes"/>
      <point x="220" y="638"/>
    </contour>
  </outline>
</glyph>
<glyph name="florin" format="2">
  <advance width="555" height="555"/>
  <unicode hex="0192"/>
  <outline>
    <contour>
      <point x="207" y="456" type="line"/>
      <point x="235" y="456" type="line"/>
      <point x="242" y="519" type="line" smooth="yes"/>
      <point x="255" y="634"/>
      <point x="342" y="746"/>
      <point x="428" y="746" type="qcurve" smooth="yes"/>
      <point x="474" y="746"/>
      <point x="516" y="726" type="qcurve"/>
      <point x="496" y="657" type="line"/>
      <point x="477" y="664"/>
      <point x="451" y="671"/>
      <point x="433" y="671" type="qcurve" smooth="yes"/>
      <point x="348" y="671"/>
      <point x="331" y="526" type="qcurve" smooth="yes"/>
      <point x="323" y="456" type="line"/>
      <point x="463" y="456" type="line"/>
      <point x="463" y="386" type="line"/>
      <point x="315" y="386" type="line"/>
      <point x="286" y="120" type="line" smooth="yes"/>
      <point x="273" y="10"/>
      <point x="189" y="-109"/>
      <point x="101" y="-109" type="qcurve" smooth="yes"/>
      <point x="50" y="-107"/>
      <point x="20" y="-91" type="qcurve"/>
      <point x="37" y="-23" type="line"/>
      <point x="65" y="-34"/>
      <point x="92" y="-34" type="qcurve" smooth="yes"/>
      <point x="142" y="-34"/>
      <point x="192" y="51"/>
      <point x="201" y="140" type="qcurve" smooth="yes"/>
      <point x="228" y="386" type="line"/>
      <point x="130" y="386" type="line"/>
      <point x="130" y="451" type="line"/>
    </contour>
  </outline>
</glyph>
<glyph name="Uhorn" format="2">
  <advance width="736" height="736"/>
  <unicode hex="01AF"/>
  <outline>
    <contour>
      <point x="98" y="135"/>
      <point x="98" y="302" type="qcurve" smooth="yes"/>
      <point x="98" y="733" type="line"/>
      <point x="190" y="733" type="line"/>
      <point x="190" y="300" type="line" smooth="yes"/>
      <point x="190" y="68"/>
      <point x="361" y="68" type="qcurve" smooth="yes"/>
      <point x="441" y="68"/>
      <point x="535" y="176"/>
      <point x="535" y="300" type="qcurve" smooth="yes"/>
      <point x="535" y="733" type="line"/>
      <point x="570" y="733" type="line"/>
      <point x="620" y="739"/>
      <point x="671" y="782"/>
      <point x="671" y="826" type="qcurve" smooth="yes"/>
      <point x="671" y="843"/>
      <point x="662" y="877"/>
      <point x="655" y="890" type="qcurve"/>
      <point x="728" y="922" type="line"/>
      <point x="753" y="879"/>
      <point x="753" y="832" type="qcurve" smooth="yes"/>
      <point x="753" y="773"/>
      <point x="684" y="707"/>
      <point x="624" y="693" type="qcurve"/>
      <point x="624" y="302" type="line" smooth="yes"/>
      <point x="624" y="136"/>
      <point x="482" y="-13"/>
      <point x="361" y="-13" type="qcurve" smooth="yes"/>
      <point x="239" y="-13"/>
    </contour>
  </outline>
</glyph>
<glyph name="uni01CD" format="2">
  <advance width="608" height="608"/>
  <unicode hex="01CD"/>
  <outline>
    <contour>
      <point x="178" y="944" type="line"/>
      <point x="301" y="841" type="line"/>
      <point x="305" y="841" type="line"/>
      <point x="428" y="944" type="line"/>
      <point x="468" y="915" type="line"/>
      <point x="351" y="789" type="line"/>
      <point x="255" y="789" type="line"/>
      <point x="138" y="915" type="line"/>
    </contour>
    <contour>
      <point x="355" y="733" type="line"/>
      <point x="604" y="0" type="line"/>
      <point x="506" y="0" type="line"/>
      <point x="436" y="224" type="line"/>
      <point x="168" y="224" type="line"/>
      <point x="97" y="0" type="line"/>
      <point x="4" y="0" type="line"/>
      <point x="252" y="733" type="line"/>
    </contour>
    <contour>
      <point x="304" y="658" type="qcurve"/>
      <point x="300" y="658" type="line"/>
      <point x="273" y="556"/>
      <point x="227" y="410" type="qcurve" smooth="yes"/>
      <point x="191" y="297" type="line"/>
      <point x="413" y="297" type="line"/>
      <point x="378" y="410" type="line" smooth="yes"/>
      <point x="348" y="503"/>
    </contour>
  </outline>
</glyph>
<glyph name="uni01D1" format="2">
  <advance width="742" height="742"/>
  <unicode hex="01D1"/>
  <outline>
    <contour>
      <point x="137" y="80"/>
      <point x="58" y="253"/>
      <point x="58" y="369" type="qcurve" smooth="yes"/>
      <point x="58" y="484"/>
      <point x="137" y="655"/>
      <point x="279" y="746"/>
      <point x="371" y="746" type="qcurve" smooth="yes"/>
      <point x="463" y="746"/>
      <point x="605" y="655"/>
      <point x="684" y="484"/>
      <point x="684" y="369" type="qcurve" smooth="yes"/>
      <point x="684" y="253"/>
      <point x="605" y="80"/>
      <point x="463" y="-13"/>
      <point x="371" y="-13" type="qcurve" smooth="yes"/>
      <point x="279" y="-13"/>
    </contour>
    <contour>
      <point x="535" y="142"/>
      <point x="589" y="278"/>
      <point x="589" y="369" type="qcurve" smooth="yes"/>
      <point x="589" y="459"/>
      <point x="535" y="593"/>
      <point x="437" y="665"/>
      <point x="371" y="665" type="qcurve" smooth="yes"/>
      <point x="305" y="665"/>
      <point x="207" y="593"/>
      <point x="153" y="459"/>
      <point x="153" y="369" type="qcurve" smooth="yes"/>
      <point x="153" y="278"/>
      <point x="207" y="142"/>
      <point x="306" y="68"/>
      <point x="371" y="68" type="qcurve" smooth="yes"/>
      <point x="436" y="68"/>
    </contour>
    <contour>
      <point x="246" y="944" type="line"/>
      <point x="369" y="841" type="line"/>
      <point x="374" y="841" type="line"/>
      <point x="496" y="944" type="line"/>
      <point x="536" y="915" type="line"/>
      <point x="419" y="789" type="line"/>
      <point x="323" y="789" type="line"/>
      <point x="206" y="915" type="line"/>
    </contour>
  </outline>
</glyph>
